<svg width="344" height="417" fill="none" xmlns="http://www.w3.org/2000/svg"><path d="M347.613 222.027c-4.927 0-127.859-.859-162.53-.859-2.427 0 .644-4.199 1.978-4.498 4.266-.933 8.717-.933 13.066-1.428a42.913 42.913 0 0 0 12.422-3.089c3.416-1.447 6.832-3.108 10.528-3.687 7.149-1.119 13.42 2.754 20.13 4.462a15.224 15.224 0 0 0 12.198-1.708c3.099-1.867 5.917-4.097 9.156-5.74a50.302 50.302 0 0 1 40.131-1.867 46.948 46.948 0 0 1 8.782 4.499c3.276 2.146 6.104 4.9 9.389 7.018 7.279 4.713 16.276 3.183 24.218 5.88.467.196.962 1.017.532 1.017ZM106.416 80.207c-6.533 0-116.072.718-122.96.504-.494 0-.764-.747-.27-.99 4.34-2.146 9.268-1.717 13.775-3.238 2.651-.933 4.284-2.632 6.123-4.62a12.88 12.88 0 0 1 5.702-3.733 12.067 12.067 0 0 1 6.206-.187c2.23.523 4.153 1.802 6.281 2.604 5.264 1.988 10.378.094 14.13-3.798 3.108-3.21 6.15-6.244 10.36-7.97a13.792 13.792 0 0 1 10.984-.15c4.013 1.82 6.776 5.479 10.546 7.681 4.48 2.623 9.828 1.997 14.774 2.8 4.947.803 8.736 4.946 13.066 7.345a9.22 9.22 0 0 0 4.732 1.465c.933 0 1.913-.29 2.874-.401 1.493-.187 2.912-.15 3.911 1.101.242.299.196 1.587-.234 1.587ZM334.369 105.677c-4.76 0-84.751.532-89.781.364-.355 0-.551-.542-.196-.719 3.173-1.568 6.766-1.25 10.06-2.361 1.942-.653 3.127-1.923 4.471-3.37a9.333 9.333 0 0 1 4.162-2.724 8.803 8.803 0 0 1 4.536-.14 39.166 39.166 0 0 1 4.582 1.866c3.836 1.447 7.579.075 10.313-2.8 2.268-2.342 4.489-4.554 7.569-5.814a10.026 10.026 0 0 1 8.017-.112c2.93 1.325 4.946 4.004 7.699 5.6 3.267 1.866 7.177 1.456 10.78 2.034 3.602.579 6.421 3.687 9.547 5.46a6.707 6.707 0 0 0 3.453 1.064 20.33 20.33 0 0 0 2.1-.299 2.88 2.88 0 0 1 2.856.812c.177.205.14 1.139-.168 1.139ZM96.318 167.192c-4.76 0-84.75.522-89.781.364-.355 0-.55-.542-.196-.719 3.173-1.568 6.766-1.251 10.06-2.361 1.942-.653 3.127-1.923 4.471-3.379a9.337 9.337 0 0 1 4.162-2.716 8.812 8.812 0 0 1 4.536-.14 37.81 37.81 0 0 1 4.583 1.867c3.845 1.447 7.578.065 10.322-2.8 2.258-2.342 4.48-4.554 7.56-5.823a10.06 10.06 0 0 1 8.016-.112c2.93 1.334 4.946 4.003 7.7 5.599 3.266 1.867 7.176 1.456 10.779 2.035 3.602.578 6.384 3.612 9.547 5.357a6.738 6.738 0 0 0 3.472 1.129c.71 0 1.4-.215 2.1-.299a2.89 2.89 0 0 1 2.856.803c.159.252.121 1.195-.187 1.195ZM179.575 134.551c-.093.262-126.076 0-124.49 0 .728 0-1.1-1.092-.392-1.437 4.107-2.035 8.596-2.091 13.066-2.501 2.64-.115 5.231-.749 7.625-1.867 2.38-1.241 3.855-3.397 5.544-5.394a23.686 23.686 0 0 1 21.465-8.148c8.96 1.4 16.025 8.223 24.993 9.483 5.395.755 10.491-1.335 15.764-2.072a19.302 19.302 0 0 1 11.862 2.174c2.846 1.409 5.469 2.595 8.679 2.8 2.473.177 4.946-.103 7.42-.131a16.618 16.618 0 0 1 10.91 4.359c.401.373 1.67 2.734-2.446 2.734Z" fill="#EBEBEB"/><path d="M294.64 52.013c14.141 0 25.604-11.463 25.604-25.603 0-14.14-11.463-25.604-25.604-25.604-14.14 0-25.603 11.463-25.603 25.604 0 14.14 11.463 25.603 25.603 25.603Z" fill="#FFDD7D"/><path d="M294.525 46.567c11.131 0 20.154-9.024 20.154-20.154 0-11.131-9.023-20.155-20.154-20.155s-20.154 9.024-20.154 20.155c0 11.13 9.023 20.154 20.154 20.154Z" fill="#FFC727"/><path d="m-28.89 416.533 50.173-.224 50.183-.084 100.346-.158 100.346.158 50.182.084 50.173.224-50.173.234-50.182.084-100.346.149-100.346-.159-50.183-.074-50.173-.234Z" fill="#263238"/><path d="M72.642 232.59s-.467 43.015 13.822 89.062c8.231 26.552 25.515 54.131 39.963 75.036h-24.032s-20.728-51.33-25.32-74.448c-10.266-51.461-6.234-90.388-6.234-90.388l1.8.738Z" fill="#FFC727"/><path d="M72.642 232.59s-.467 43.015 13.822 89.062c8.231 26.552 25.515 54.131 39.963 75.036h-24.032s-20.728-51.33-25.32-74.448c-10.266-51.461-6.234-90.388-6.234-90.388l1.8.738Z" fill="#263238"/><path d="m96.142 380.656.205.56c1.17 0 2.337-.018 3.5-.056 1.997 0 3.995-.102 6.001-.224-2.006-.121-4.004-.177-6-.224a254.308 254.308 0 0 0-3.706-.056ZM98.252 371.805c.998.056 1.997.094 3.005.14l2.996.075c1.997.065 4.003.065 6.001.075h.168a18.37 18.37 0 0 1-.355-.588c-1.941 0-3.873 0-5.814.074l-2.996.075c-1.008.084-2.007.084-3.005.149ZM101.359 367.916c.999.066 2.007.094 3.006.14l2.995.084h.7l-.28-.476h-.42l-2.995.084c-.999.075-2.007.103-3.006.168ZM83.572 345.489c0 .122.074.234.12.346 1.326 0 2.642-.084 3.967-.168-1.362-.056-2.725-.131-4.087-.178ZM81.872 340.16c.047.178.112.346.168.523H84c1.998-.047 3.995-.103 5.992-.224-1.997-.121-3.995-.177-5.992-.224l-2.128-.075ZM75.909 316.062c.008.11.027.219.055.326 1.204 0 2.427-.084 3.63-.158a156.694 156.694 0 0 0-3.685-.168Z" fill="#FFC727"/><path d="m73.38 292.508 2.996.14 2.753.075-.084-.429-2.67.074c-.998.047-1.996.047-2.995.14ZM70.608 271.059v.187l1.782-.093-1.782-.094ZM75.684 289.615c.934.065 1.923.093 2.884.14l-.056-.28c-.961.046-1.894.074-2.828.14Z" fill="#002218"/><path d="m102.797 205.06-7.187-1.736 6.384 4.415a28.75 28.75 0 0 1-4.722 8.567l-7.187-3.22 5.077 5.6a30.544 30.544 0 0 1-2.604 2.361l-4.227-2.109 2.37 3.509a40.044 40.044 0 0 1-5.898 3.444l-3.425-3.808 1.95 4.48a62.423 62.423 0 0 1-12.59 3.873l29.707-51.592a47.774 47.774 0 0 1 3.061 12.133l-3.145-.047 3.322 1.736c.112 1.325.168 2.697.15 4.116l-7.467-.775 7.271 4.209a35.298 35.298 0 0 1-.84 4.844Z" fill="#0076F8"/><path d="m113.603 231.544-2.716-3.267 1.419 4.48a22.723 22.723 0 0 1-4.825 3.211l-3.164-6.011.252 7.205a25.777 25.777 0 0 1-3.294.831l-2.082-4.331-.186 4.667a31.23 31.23 0 0 1-5.89-.056l-1.129-7.541-1.96 7.102c-.989-.186-2.006-.41-3.06-.681v-4.956l-2.614 4.2a72 72 0 0 1-13.402-5.982l48.531-8.111a25.413 25.413 0 0 1-5.88 9.24ZM70.943 230.472a84.683 84.683 0 0 1-11.04-14.419l5.291-3.145-6.477 1.11a56.413 56.413 0 0 1-2.557-5.264l5.394-3.565-6.533.7a45.563 45.563 0 0 1-1.353-4.414l9.333-3.388-10.34-1.605a40.712 40.712 0 0 1-.178-9.669l12.207-2.753-11.47-1.867c.168-.821.373-1.633.598-2.417l6.598.252-5.917-2.464a44.344 44.344 0 0 1 2.333-5.599l9.52 1.922-7.906-4.834a49.84 49.84 0 0 1 10.808-13.066l1.69 74.485Z" fill="#0064D2"/><path d="m53.538 223.78 2.016-5.245-4.21 4.088c-.811-.439-1.633-.934-2.445-1.391l2.194-3.64-3.472 2.856a65.232 65.232 0 0 1-3.864-2.622l3.36-4.359-5.497 2.697a42.586 42.586 0 0 1-6.31-6.271l6.804-5.6-8.567 3.192a29.185 29.185 0 0 1-3.276-6.402l6.72-4.443-7.523 1.867a26.624 26.624 0 0 1-.671-3.808l10.088-4.48-10.126-.606c.15-1.735.44-3.455.868-5.143l7.252-.448-6.533-1.988a49.653 49.653 0 0 1 5.123-10.826s10.201 40.206 35.465 59.245a91.264 91.264 0 0 1-17.396-6.673Z" fill="#0076F8"/><path d="m57.738 235.166-1.204-2.482.438 2.613c-.728.093-1.446.149-2.137.177l-.84-3.332-.933 3.351a24.845 24.845 0 0 1-2.959-.262l.467-5.515-2.67 5.049a21.7 21.7 0 0 1-5.758-2.436l.934-4.209-2.212 3.35a23.265 23.265 0 0 1-2.053-1.614l2.715-4.517-4.171 3.154a30.874 30.874 0 0 1-3.061-3.621l2.426-2.725-3.033 1.801c-.327-.485-.635-.933-.933-1.419l1.642-1.502-2.174.597a35.833 35.833 0 0 1-3.201-7.037c13.588 13.281 41.997 15.866 41.997 15.866a41 41 0 0 1-13.28 4.713Z" fill="#0064D2"/><path d="m95.068 250.576-.728-2.315-.289 2.418c-.932.066-1.868.066-2.8 0l.299-3.995-1.596 3.864a18.09 18.09 0 0 1-4.078-1.073l.606-3.939-2.52 3.08a19.7 19.7 0 0 1-2.463-1.53l1.642-3.006-2.604 2.268a21.14 21.14 0 0 1-1.764-1.586l2.287-3.621-4.05 1.689a36.093 36.093 0 0 1-1.587-2.091l1.932-1.661-2.53.765a47.629 47.629 0 0 1-4.666-9.519s17.611 15.119 32.572 17.975a21.834 21.834 0 0 1-7.663 2.277ZM63.45 246.441l-2.614-2.576 1.54 3.659c-.766.7-1.597 1.325-2.483 1.866l-2.202-2.062 1.194 2.641a12.9 12.9 0 0 1-1.325.607l-2.408-3.612.691 4.218a16.07 16.07 0 0 1-4.405.495l-1.335-3.061-.158 2.949a20.783 20.783 0 0 1-1.96-.317l-.476-2.987-.654 2.707a22.785 22.785 0 0 1-5.972-2.539c15.94-2.146 29.66-16.416 29.66-16.416-1.84 6.822-4.331 11.414-7.094 14.428Z" fill="#0076F8"/><path d="M77.775 241.746a5.964 5.964 0 1 1-11.667-2.48 5.964 5.964 0 0 1 11.667 2.48Z" fill="#FFC727"/><path opacity=".4" d="M77.775 241.746a5.964 5.964 0 1 1-11.667-2.48 5.964 5.964 0 0 1 11.667 2.48Z" fill="#000"/><path d="M73.819 235.482a5.972 5.972 0 1 1-4.61-7.075 5.984 5.984 0 0 1 4.61 7.075Z" fill="#FFC727"/><path opacity=".3" d="M73.819 235.482a5.972 5.972 0 1 1-4.61-7.075 5.984 5.984 0 0 1 4.61 7.075Z" fill="#000"/><path d="M79.894 235.681a5.965 5.965 0 1 1-11.669-2.48 5.965 5.965 0 0 1 11.669 2.48Z" fill="#FFC727"/><path opacity=".2" d="M79.894 235.681a5.965 5.965 0 1 1-11.669-2.48 5.965 5.965 0 0 1 11.669 2.48Z" fill="#000"/><path d="M19.856 274.867a192.045 192.045 0 0 0 13.15 66.077c7.84 19.72 57.956 40.131 71.713 55.707H81.835s-53.402-38.124-57.77-55.259c-9.725-38.209-5.936-67.103-5.936-67.103l1.727.578Z" fill="#FFC727"/><path d="M19.856 274.867a192.045 192.045 0 0 0 13.15 66.077c7.84 19.72 57.956 40.131 71.713 55.707H81.835s-53.402-38.124-57.77-55.259c-9.725-38.209-5.936-67.103-5.936-67.103l1.727.578Z" fill="#263238"/><path d="m66.08 384.809.523.411h2.707c1.867 0 3.817-.084 5.712-.168-1.867-.093-3.808-.131-5.712-.168l-3.23-.075ZM70.272 378.211c.933.056 1.866.075 2.846.122l2.856.046c1.223 0 2.455 0 3.687.047-.234-.14-.458-.271-.682-.42-.998 0-1.997 0-3.005.047l-2.856.056c-.952.037-1.903.056-2.846.102ZM76.683 379.674l2.856.112 2.398.056-.494-.317-1.867.046-2.893.103ZM36.272 358.675c.073.086.151.167.234.243 1.138 0 2.268-.065 3.406-.112-1.204-.056-2.426-.084-3.64-.131ZM32.614 354.738c.103.112.215.243.308.364h.859c1.866 0 3.798-.074 5.702-.168-1.867-.084-3.798-.121-5.702-.158l-1.167-.038Z" fill="#FFC727"/><path d="m22.954 336.838.056.243c1.148 0 2.305-.066 3.462-.122-1.185-.046-2.342-.093-3.518-.121ZM20.556 319.348c.933.047 1.867.066 2.8.103l2.622.056-.084-.317-2.538.056c-.868.028-1.857.056-2.8.102ZM17.915 303.434a.574.574 0 0 1 0 .131l1.707-.065a53.07 53.07 0 0 0-1.707-.066ZM22.73 317.201c.933.047 1.867.075 2.735.103a1.324 1.324 0 0 0 0-.205c-.943.037-1.839.056-2.735.102Z" fill="#002218"/><path d="m36.618 248.318-5.842.046 5.74 2.165a22.532 22.532 0 0 1-1.97 7.467l-6.132-1.046 4.965 3.304c-.47.798-.99 1.565-1.558 2.296l-3.64-.803 2.492 2.24a32.285 32.285 0 0 1-3.864 3.733l-3.35-2.258 2.352 3.052a49.154 49.154 0 0 1-8.923 5.413l12.88-45.274a37.74 37.74 0 0 1 4.666 8.698l-2.426.56 2.883.7c.364 1.026.675 2.07.934 3.127l-5.861.84 6.374 1.866c.187 1.283.28 2.577.28 3.874Z" fill="#0076F8"/><path d="m49.992 266.55-2.707-1.988 1.95 3.173a18.173 18.173 0 0 1-3.089 3.388l-3.583-4.004 1.586 5.479c-.758.477-1.55.898-2.37 1.26l-2.436-2.912.756 3.602c-1.478.499-3 .856-4.545 1.064l-2.315-5.6-.14 5.815c-.793.056-1.624.084-2.482.074l-.934-3.798-1.194 3.733c-3.87-.281-7.7-.957-11.433-2.016l35.67-15.529a20.077 20.077 0 0 1-2.734 8.259ZM17.075 273.913a65.877 65.877 0 0 1-11.2-8.94l3.454-3.426-4.75 2.082a43.69 43.69 0 0 1-2.978-3.556l3.453-3.733-4.862 1.782a33.588 33.588 0 0 1-1.867-3.126l6.533-4.396-8.24.756a32.764 32.764 0 0 1-1.998-7.382l8.838-4.452-9.164.765v-1.969l5.105-1.073-5.068-.831a37.22 37.22 0 0 1 .71-4.75l7.624-.28-7-2.184a39.385 39.385 0 0 1 5.787-12.086l15.623 56.799Z" fill="#0064D2"/><path d="m2.44 272.131.533-4.414-2.445 3.948a49.798 49.798 0 0 1-2.137-.607l.933-3.21-2.035 2.855a45.382 45.382 0 0 1-3.462-1.269l1.736-3.985-3.733 3.126a33.865 33.865 0 0 1-6.039-3.593l4.135-5.599-5.945 4.097a22.449 22.449 0 0 1-3.733-4.275l4.302-4.666-5.422 2.856a21.66 21.66 0 0 1-1.242-2.8l6.879-5.366-7.877 1.474a24.198 24.198 0 0 1-.327-4.116l5.47-1.773-5.414-.27c.242-3.16.869-6.279 1.867-9.287 0 0 15.539 28.876 38.6 38.62a72.026 72.026 0 0 1-14.643-1.746Z" fill="#0076F8"/><path d="m7.844 280.059-1.41-1.643.84 1.923c-.54.205-1.082.392-1.604.55l-1.288-2.473-.056 2.8c-.763.173-1.536.295-2.315.364l-.7-4.321-1.073 4.396a17.479 17.479 0 0 1-4.89-.766l-.122-3.406-1.054 2.996a20.502 20.502 0 0 1-1.867-.84l1.213-3.985-2.594 3.22a24.41 24.41 0 0 1-3.043-2.194l1.335-2.557-1.997 1.988-.933-.933.933-1.466-1.55.878a28.748 28.748 0 0 1-3.733-4.797c12.964 7.578 35.25 4.078 35.25 4.078a32.32 32.32 0 0 1-9.342 6.188Z" fill="#0064D2"/><path d="m39.436 284.713-1.008-1.633.243 1.913c-.696.225-1.407.399-2.128.523l-.588-3.117-.485 3.276a14.848 14.848 0 0 1-3.332 0l-.29-3.146-1.343 2.847a15.48 15.48 0 0 1-2.184-.7l.681-2.623-1.558 2.24a16.783 16.783 0 0 1-1.661-.877l1.063-3.21-2.8 2.062a21.836 21.836 0 0 1-1.614-1.297l1.157-1.643-1.791 1.073a37.538 37.538 0 0 1-5.385-6.411s16.406 8.213 28.427 7.531a17.251 17.251 0 0 1-5.404 3.192ZM14.387 287.609l-2.502-1.474 1.867 2.51a12.082 12.082 0 0 1-1.53 1.904l-2.082-1.166 1.419 1.801c-.298.256-.61.496-.933.718l-2.53-2.286 1.326 3.098c-1.03.557-2.133.968-3.276 1.223l-1.624-2.091.457 2.287c-.523.073-1.05.12-1.577.14l-.933-2.203v2.203a17.818 17.818 0 0 1-5.068-.803C9.216 288.804 17 275.187 17 275.187c-.047 5.581-1.045 9.585-2.613 12.422Z" fill="#0076F8"/><path d="M24.476 281.26a4.722 4.722 0 1 1-4.89-4.545 4.735 4.735 0 0 1 4.89 4.545Z" fill="#FFC727"/><path opacity=".4" d="M24.476 281.26a4.722 4.722 0 1 1-4.89-4.545 4.735 4.735 0 0 1 4.89 4.545Z" fill="#000"/><path d="M20.248 277.221a4.721 4.721 0 0 1-7.934 3.633 4.725 4.725 0 0 1 .45-7.288 4.713 4.713 0 0 1 2.594-.89 4.722 4.722 0 0 1 4.89 4.545Z" fill="#FFC727"/><path opacity=".3" d="M20.248 277.221a4.721 4.721 0 0 1-7.934 3.633 4.725 4.725 0 0 1 .45-7.288 4.713 4.713 0 0 1 2.594-.89 4.722 4.722 0 0 1 4.89 4.545Z" fill="#000"/><path d="M24.933 276.193A4.721 4.721 0 0 1 17 279.826a4.72 4.72 0 0 1 3.044-8.178 4.657 4.657 0 0 1 3.402 1.243 4.66 4.66 0 0 1 1.488 3.302Z" fill="#FFC727"/><path opacity=".2" d="M24.933 276.193A4.721 4.721 0 0 1 17 279.826a4.72 4.72 0 0 1 3.044-8.178 4.657 4.657 0 0 1 3.402 1.243 4.66 4.66 0 0 1 1.488 3.302Z" fill="#000"/><path d="m277.543 384.809-.513.411h-2.716c-1.866 0-3.817-.084-5.711-.168 1.866-.093 3.807-.131 5.711-.168l3.229-.075ZM273.353 378.211c-.933.056-1.867.075-2.847.122l-2.855.046c-1.223 0-2.455 0-3.687.047.233-.14.457-.271.681-.42.999 0 1.998 0 3.006.047l2.855.056c.952.037 1.904.056 2.847.102ZM266.941 379.674l-2.856.112-2.398.056.495-.317 1.866.046 2.893.103ZM307.352 358.675c-.073.086-.15.167-.233.243-1.139 0-2.268-.065-3.406-.112 1.204-.056 2.426-.084 3.639-.131Z" fill="#FFC727"/><path d="M296.684 274.867a192.046 192.046 0 0 1-13.149 66.076c-7.84 19.72-57.957 40.131-71.714 55.707h22.884s53.403-38.124 57.77-55.259c9.725-38.208 5.936-67.103 5.936-67.103l-1.727.579Z" fill="#002218"/><path d="M295.782 274.867a192.07 192.07 0 0 1-13.15 66.076c-7.84 19.72-57.957 40.131-71.713 55.707h22.884s53.402-38.124 57.77-55.259c9.724-38.208 5.935-67.103 5.935-67.103l-1.726.579Z" fill="#263238"/><path d="m279.02 248.314 5.842.047-5.711 2.165a22.54 22.54 0 0 0 1.969 7.466l6.132-1.082-4.966 3.303a23.55 23.55 0 0 0 1.531 2.334l3.64-.803-2.492 2.24a32.373 32.373 0 0 0 3.864 3.733l3.35-2.259-2.352 3.052a49.135 49.135 0 0 0 8.913 5.395l-12.879-45.274a37.696 37.696 0 0 0-4.666 8.698l2.426.56-2.884.7a32.442 32.442 0 0 0-.933 3.127l5.861.84-6.374 1.866a26.677 26.677 0 0 0-.271 3.892Z" fill="#0064D2"/><path d="m265.646 266.549 2.706-1.988-1.95 3.174a18.129 18.129 0 0 0 3.089 3.387l3.584-4.003-1.587 5.478c.758.477 1.551.898 2.371 1.26l2.435-2.921-.756 3.602c1.478.503 3 .862 4.546 1.073l2.314-5.599.14 5.814a30.72 30.72 0 0 0 2.483.075l.933-3.799 1.194 3.733a57.004 57.004 0 0 0 11.433-2.015l-35.67-15.53a20.066 20.066 0 0 0 2.735 8.259ZM298.562 273.916a65.884 65.884 0 0 0 11.246-8.941l-3.453-3.425 4.751 2.081a43.742 43.742 0 0 0 2.977-3.556l-3.453-3.733 4.862 1.783a33.884 33.884 0 0 0 1.867-3.127l-6.533-4.396 8.241.756a32.831 32.831 0 0 0 1.997-7.382l-8.838-4.452 9.164.766v-1.97l-5.105-1.073 5.012-.756a37.3 37.3 0 0 0-.709-4.75l-7.625-.28 7-2.184a39.392 39.392 0 0 0-5.787-12.086l-15.614 56.725Z" fill="#0076F8"/><path d="m314.1 272.132-.532-4.415 2.445 3.948a50.067 50.067 0 0 0 2.137-.607l-.98-3.21 2.119 2.856a45.868 45.868 0 0 0 3.462-1.27l-1.736-3.985 3.733 3.127a33.98 33.98 0 0 0 6.039-3.593l-4.135-5.6 5.945 4.125a22.429 22.429 0 0 0 3.733-4.274l-4.302-4.667 5.422 2.856c.48-.903.894-1.838 1.241-2.8l-6.878-5.366 7.877 1.474c.226-1.36.335-2.737.327-4.115l-5.507-1.802 5.413-.27a38.973 38.973 0 0 0-1.866-9.286s-15.539 28.875-38.601 38.619a72.037 72.037 0 0 0 14.644-1.745Z" fill="#0064D2"/><path d="m308.696 280.057 1.409-1.642-.84 1.922c.541.206 1.083.392 1.605.551l1.288-2.473.056 2.744c.763.173 1.536.294 2.315.364l.7-4.321 1.073 4.395a17.437 17.437 0 0 0 4.89-.765l.122-3.406 1.054 2.995a20.014 20.014 0 0 0 1.867-.84l-1.213-3.985 2.594 3.22a24.456 24.456 0 0 0 3.043-2.193l-1.335-2.557 1.997 1.988.934-.934-.934-1.465 1.55.877a28.702 28.702 0 0 0 3.733-4.797c-12.964 7.579-35.25 4.079-35.25 4.079a32.324 32.324 0 0 0 9.342 6.243Z" fill="#0076F8"/><path d="m276.202 284.714 1.008-1.642-.243 1.913a15.4 15.4 0 0 0 2.128.522l.588-3.117.485 3.276a14.85 14.85 0 0 0 3.332 0l.289-3.145 1.344 2.846a15.506 15.506 0 0 0 2.184-.7l-.681-2.622 1.558 2.24c.57-.261 1.124-.554 1.661-.877l-1.064-3.211 2.8 2.063a21.654 21.654 0 0 0 1.615-1.298l-1.157-1.642 1.792 1.073a37.582 37.582 0 0 0 5.385-6.412s-16.426 8.167-28.475 7.495a17.28 17.28 0 0 0 5.451 3.238ZM301.25 287.609l2.502-1.474-1.867 2.51c.445.685.958 1.323 1.531 1.904l2.081-1.166-1.419 1.801c.298.256.61.496.934.719l2.575-2.324-1.371 3.135c1.03.557 2.132.968 3.275 1.223l1.624-2.09-.457 2.286c.523.073 1.049.12 1.577.14l.933-2.203v2.203a17.817 17.817 0 0 0 5.068-.803c-11.815-4.666-19.599-18.282-19.599-18.282.047 5.581 1.046 9.584 2.613 12.421Z" fill="#0064D2"/><path d="M292.065 281.261a4.72 4.72 0 0 0 5.47 4.836 4.718 4.718 0 0 0 3.844-3.572 4.726 4.726 0 0 0-1.83-4.919 4.716 4.716 0 0 0-5.977.373 4.724 4.724 0 0 0-1.507 3.282Z" fill="#FFC727"/><path opacity=".4" d="M291.162 281.261a4.725 4.725 0 0 0 5.47 4.836 4.718 4.718 0 0 0 3.844-3.572 4.717 4.717 0 0 0-1.83-4.919 4.716 4.716 0 0 0-5.977.373 4.728 4.728 0 0 0-1.507 3.282Z" fill="#000"/><path d="M296.293 277.221a4.72 4.72 0 0 0 5.47 4.837 4.725 4.725 0 0 0 3.844-3.573 4.726 4.726 0 0 0-1.831-4.918 4.72 4.72 0 0 0-5.979.369 4.723 4.723 0 0 0-1.504 3.285Z" fill="#FFC727"/><path opacity=".3" d="M295.39 277.221a4.729 4.729 0 0 0 2.753 4.468 4.726 4.726 0 0 0 5.181-.834 4.722 4.722 0 1 0-7.934-3.634Z" fill="#000"/><path d="M291.607 276.192a4.725 4.725 0 0 0 5.47 4.837 4.723 4.723 0 0 0-.579-9.382 4.656 4.656 0 0 0-3.403 1.243 4.662 4.662 0 0 0-1.488 3.302Z" fill="#FFC727"/><path opacity=".2" d="M290.704 276.192a4.725 4.725 0 0 0 5.471 4.837 4.724 4.724 0 0 0-.58-9.382 4.656 4.656 0 0 0-3.402 1.243 4.665 4.665 0 0 0-1.489 3.302Z" fill="#000"/><path d="m137.132 35.634-.29-.093.29.093Z" fill="#FFC727"/><path d="m328.664 148.239-9.893 6.495-24.61-.242 4.311-14.317 24.779-.317 5.413 8.381Z" fill="#455A64"/><path d="m323.251 139.856-2.1-1.045-24.069.252-4.247 15.026 1.325.401 4.312-14.317 24.779-.317Z" fill="#37474F"/><path d="m338.165 182.36-9.669 4.489-40.159-14.317 5.021-14.083 40.159 14.316 4.648 9.595Z" fill="#FFC727"/><path d="m333.517 172.765 1.652 1.802 4.415 8.912-10.78 4.947-40.551-14.569.084-1.325 40.159 14.316 9.669-4.489-4.648-9.594Z" fill="#FFC727"/><path opacity=".1" d="m333.517 172.765 1.652 1.802 4.415 8.912-10.78 4.947-40.551-14.569.084-1.325 40.159 14.316 9.669-4.489-4.648-9.594Z" fill="#000"/><path d="m242.915 143.21 5.842 8.913 41.68 9.006 3.145-14.615-41.67-9.016-8.997 5.712Z" fill="#263238"/><path d="m242.915 143.209 5.842 8.913 41.68 9.006-.905 2.417-40.775-8.857-5.693-8.483-.149-2.996Z" fill="#37474F"/><path d="m243.829 334.661-11.199-3.359 64.779-205.48c.821-2.604 2.716-4.303 4.274-3.836l.252.075c1.559.476 2.193 2.939 1.437 5.553l-59.543 207.047Z" fill="#FFC727"/><path opacity=".4" d="m243.829 334.661-11.199-3.359 64.779-205.48c.821-2.604 2.716-4.303 4.274-3.836l.252.075c1.559.476 2.193 2.939 1.437 5.553l-59.543 207.047Z" fill="#000"/><g style="mix-blend-mode:multiply" opacity=".3"><path d="M298.417 129.659a2203.546 2203.546 0 0 0-7.345 22.548c-2.426 7.522-4.825 15.054-7.13 22.613-2.305 7.56-4.554 15.138-6.654 22.763l-1.54 5.721-1.437 5.749c-.887 3.836-1.671 7.718-2.688 11.554-2.044 7.653-4.667 15.119-7.382 22.548l-8.232 22.24a346.205 346.205 0 0 0-13.607 45.385c1.605-7.746 3.574-15.408 5.823-22.987 2.25-7.578 4.816-15.063 7.467-22.501l8.166-22.268c2.678-7.466 5.282-14.932 7.298-22.539.989-3.807 1.792-7.68 2.697-11.535l1.466-5.749 1.549-5.73c2.137-7.616 4.405-15.185 6.747-22.744a1437.538 1437.538 0 0 1 14.802-45.068ZM300.181 125.435l-2.193 9.202-2.343 9.174a954.28 954.28 0 0 1-4.918 18.273 500.673 500.673 0 0 1-5.479 18.125c-1.931 5.991-3.947 11.983-6.346 17.825l1.624-4.442 1.521-4.48c.999-2.986 1.988-5.982 2.903-8.997a687.72 687.72 0 0 0 5.329-18.152c1.698-6.066 3.434-12.133 5.068-18.236l4.834-18.292Z" fill="#000" style="mix-blend-mode:multiply" opacity=".3"/><path d="M249.457 288.897c1.288-2.8 2.529-5.656 3.733-8.502 1.204-2.847 2.455-5.693 3.649-8.558 2.38-5.721 4.667-11.489 6.757-17.313 2.091-5.823 4.2-11.666 5.917-17.611a83.991 83.991 0 0 0 1.242-4.479c.364-1.503.802-2.996 1.101-4.518.299-1.521.663-3.023.933-4.545l.691-4.591a101.256 101.256 0 0 1-3.687 18.217c-1.67 5.973-3.658 11.862-5.777 17.686-2.118 5.824-4.479 11.573-6.915 17.275-2.436 5.702-4.919 11.367-7.644 16.939ZM283.941 188.931a545.157 545.157 0 0 0-4.013 10.266c-1.297 3.426-2.566 6.869-3.649 10.36a34.306 34.306 0 0 0-1.26 5.31c-.06.431-.06.867 0 1.297a.34.34 0 0 0 .084.178h.094c.16-.122.301-.267.42-.43.512-.743.953-1.534 1.315-2.361a34.474 34.474 0 0 0 1.811-5.161c.497-1.766.829-3.575.989-5.403a31.912 31.912 0 0 1-2.482 10.704 12.75 12.75 0 0 1-1.307 2.464 2.24 2.24 0 0 1-.541.532.484.484 0 0 1-.541 0 .739.739 0 0 1-.243-.42 5.32 5.32 0 0 1 0-1.437 34.007 34.007 0 0 1 1.241-5.394c1.111-3.51 2.389-6.953 3.733-10.36a202.983 202.983 0 0 1 4.349-10.145ZM261.889 264.864c-2.679 6.907-5.413 13.785-8.344 20.533a220.738 220.738 0 0 1-2.24 5.086c-.774 1.689-1.633 3.322-2.389 5.002a68.844 68.844 0 0 0-3.733 10.397 35.985 35.985 0 0 0-1.055 5.404 8.36 8.36 0 0 0 .103 2.687c.068.406.289.769.616 1.018.196.102.28.121.448 0 .173-.112.325-.254.448-.42a20.532 20.532 0 0 0 2.38-4.928 64.185 64.185 0 0 0 1.67-5.273 44.9 44.9 0 0 0 1.167-5.404c.067-.451.111-.906.131-1.362a2.515 2.515 0 0 0-.178-1.269c-.084-.131-.27-.112-.438 0a1.964 1.964 0 0 0-.448.475 7.76 7.76 0 0 0-.7 1.176 33.359 33.359 0 0 0-1.932 5.171 33.037 33.037 0 0 0-.681 2.688 18.62 18.62 0 0 0-.224 1.372 3.368 3.368 0 0 0 0 1.371 3.283 3.283 0 0 1-.066-1.381c.05-.46.115-.918.196-1.372.168-.933.383-1.81.616-2.706a32.369 32.369 0 0 1 1.867-5.245 9.31 9.31 0 0 1 .7-1.223c.14-.201.31-.381.504-.532a.731.731 0 0 1 .382-.149.463.463 0 0 1 .411.187c.21.448.294.945.243 1.437 0 .466-.066.933-.122 1.39a46.474 46.474 0 0 1-1.148 5.553 67.438 67.438 0 0 1-1.642 5.32 33.632 33.632 0 0 1-1.027 2.585 11.634 11.634 0 0 1-1.372 2.464 2.01 2.01 0 0 1-.56.523.85.85 0 0 1-.448.121 1.176 1.176 0 0 1-.41-.149 2.014 2.014 0 0 1-.831-1.27 8.712 8.712 0 0 1-.121-2.799 30.03 30.03 0 0 1 1.064-5.479 67.9 67.9 0 0 1 3.863-10.434c.775-1.689 1.662-3.313 2.418-4.993.756-1.68 1.53-3.369 2.277-5.058 2.93-6.826 5.799-13.663 8.605-20.514ZM235.701 332.211c.541-2.601 1.11-5.202 1.708-7.803l1.819-7.774 1.932-7.746a360.37 360.37 0 0 1 2.054-7.718 369.305 369.305 0 0 1-1.708 7.802l-1.82 7.774-1.932 7.746c-.681 2.576-1.372 5.152-2.053 7.719ZM238.612 333.095a22.282 22.282 0 0 0 2.352-6.085c.504-2.114.624-4.301.355-6.458a26.075 26.075 0 0 1 0-6.617c.236-2.197.6-4.378 1.091-6.533-.382 2.165-.625 4.349-.811 6.533a28.782 28.782 0 0 0 .139 6.533 16.463 16.463 0 0 1-.363 6.617 18.25 18.25 0 0 1-2.763 6.01Z" fill="#000" style="mix-blend-mode:multiply" opacity=".3"/><path d="M259.779 271.88a192.202 192.202 0 0 0-4.834 15.493c-.691 2.613-1.307 5.254-1.736 7.914-.43 2.66-.812 5.366-1.363 8.017-.55 2.65-1.148 5.301-1.932 7.905a37.747 37.747 0 0 1-2.996 7.578 47.67 47.67 0 0 0-3.593 7.252 76.436 76.436 0 0 0-2.65 7.662 57.247 57.247 0 0 1 5.889-15.11 37.177 37.177 0 0 0 2.912-7.513 110.175 110.175 0 0 0 1.95-7.858c.56-2.651 1.008-5.31 1.428-7.989.42-2.678 1.111-5.31 1.867-7.923 1.4-5.217 3.145-10.35 5.058-15.428ZM302.561 122.399a397.68 397.68 0 0 1-2.137 9.576c-.738 3.192-1.54 6.355-2.334 9.529a256.954 256.954 0 0 1-2.585 9.472c-.915 3.146-1.866 6.272-3.061 9.333.513-1.558.98-3.117 1.419-4.666a292.82 292.82 0 0 0 1.297-4.732 666.81 666.81 0 0 0 2.473-9.482l2.464-9.538 2.464-9.492Z" fill="#000" style="mix-blend-mode:multiply" opacity=".3"/></g><path d="M358.205 416.542H-14.583a190.037 190.037 0 0 1 13.57-22.931 183.447 183.447 0 0 1 5.04-6.98c.569-.756 1.157-1.531 1.744-2.278a207.755 207.755 0 0 1 3.594-4.479 205.771 205.771 0 0 1 3.733-4.378l1.866-2.137c1.279-1.428 2.595-2.8 3.92-4.218a99.14 99.14 0 0 1 4.05-4.107c.672-.681 1.372-1.343 2.072-2.015a204.04 204.04 0 0 1 24.676-20.206c3.198-2.24 6.471-4.389 9.818-6.449 1.11-.69 2.23-1.362 3.37-2.034a223.178 223.178 0 0 1 6.859-3.883l2.8-1.502 1.577-.803c.532-.271 1.064-.551 1.605-.812l.906-.383.429-.205 2.622-1.269a138.99 138.99 0 0 1 3.379-1.568c.933-.42 1.867-.821 2.734-1.213.868-.392 1.867-.794 2.744-1.167l.486-.205 2.286-.934c1.223-.485 2.473-.98 3.733-1.455l1.867-.71a199.46 199.46 0 0 1 13.383-4.452l1.708-.485a.15.15 0 0 0 .084 0l.504-.14c.914-.261 1.829-.513 2.744-.756l.98-.252a74.083 74.083 0 0 1 2.846-.737 182.31 182.31 0 0 1 3.603-.868c1.194-.271 2.211-.513 3.341-.756l.569-.112 1.867-.383.205-.046.383-.075.755-.149h.084l.85-.159h.112l1.624-.308h.074c.504-.103 1.008-.187 1.522-.28l4.069-.672h.084c1.269-.186 2.538-.373 3.807-.541.263-.049.528-.083.794-.103 1.12-.168 2.258-.298 3.378-.429l.411-.047c1.064-.13 2.109-.233 3.182-.336a34.302 34.302 0 0 1 1.96-.196c.448-.046.933-.093 1.363-.112a81.03 81.03 0 0 1 3.042-.242h.364c.934-.084 1.932-.15 2.903-.196a167.96 167.96 0 0 1 3.733-.168 80.923 80.923 0 0 1 2.996-.094h5.543c5.668 0 11.268.209 16.799.626l3.08.261 1.503.149 1.549.15c1.443.155 2.881.323 4.312.504 1.605.196 3.201.42 4.797.653l3.005.457c3.005.495 5.982 1.036 8.931 1.643 1.97.41 3.92.84 5.871 1.297 2.918.691 5.811 1.437 8.679 2.24 1.867.532 3.827 1.101 5.712 1.689a211.121 211.121 0 0 1 42.819 18.666 206.214 206.214 0 0 1 39.813 29.865 452.532 452.532 0 0 1 3.201 3.154 185.388 185.388 0 0 1 6.188 6.533 210.634 210.634 0 0 1 5.88 6.766 194.275 194.275 0 0 1 24.265 37.005l.037-.243Z" fill="#455A64"/><g opacity=".2" fill="#000"><path opacity=".2" d="M209.227 322.281c-1.549 2.744-4.041 3.285-6.934 3.481-2.893.196-5.6-1.279-8.661.541-3.061 1.82-6.169 11.676-10.219 12.226-4.051.551-11.2-8.754-12.711-11.498-1.512-2.744 3.471-8.586 1.11-11.311-2.361-2.725-6.533-2.203-13.066-2.744-.41 0-.849-.056-1.316-.065-7.065-.187-20.41 2.034-19.879 4.274.15.635 1.867.933 4.294 1.045 6.533.383 18.208-.13 18.665 3.323.569 4.75-15.996 12.776-18.871 12.048-2.874-.727-6.757-5.469-10.984-6.019-4.228-.551-7.719 2.734-10.378 3.098a6.604 6.604 0 0 1-3.239-.69c-1.913-.738-4.078-1.774-6.608-1.316-4.041.718-5.011 4.013-7.13 5.291-2.118 1.279-7.13 1.279-7.7 4.191-.28 1.465 1.289 2.604 3.155 3.602 1.867.999 4.06 1.867 4.928 2.8 1.736 1.867-2.119 8.036-.383 9.333 1.736 1.297 12.525-7.681 15.213-9.865 2.687-2.184 5.011-11.684 10.788-11.507 5.777.177 7.7 9.501 9.632 10.406 1.932.905 6.169-2.184 12.515-.933 6.346 1.25 10.779 14.447 11.965 18.451 1.185 4.003 3.854 8.044 1.549 9.687-2.305 1.643-12.721-1.101-14.055-3.649-1.335-2.548 6.925-6.393 6.346-7.298-.579-.906-5.394-2.203-7.886-.775s-3.659 4.405-6.365 5.142c-2.707.738-9.828-6.934-11.741-4.75-1.913 2.184 1.867 9.137 3.845 10.779 1.979 1.643 9.053 2.558 9.622 4.377.57 1.82-4.806 5.833-11.358 5.479-6.551-.355-11.936-5.115-14.447-3.108-2.51 2.006-1.148 7.298-2.884 9.127-1.735 1.83-11.199.551-15.791 5.283-4.591 4.731-6.747 11.862-11.367 15.865-4.62 4.004-6.729-1.091-12.898 4.564a16.814 16.814 0 0 0-3.733 5.357H5.53c0-.261 0-.522-.075-.784-1.138-10.956 2.893-22.454 10.985-31.731 0 0 1.157-6.029 2.305-9.856 1.148-3.826 26.001-19.169 28.932-23.546 1.204-1.867 1.614-4.667 2.044-7.784 3.198-2.24 6.47-4.389 9.818-6.449 1.11-.69 2.23-1.362 3.369-2.034a223.06 223.06 0 0 1 6.86-3.883l2.8-1.502 1.577-.803c.532-.271 1.064-.551 1.605-.812l.868-.392.43-.205a93.694 93.694 0 0 1 2.622-1.269l.68-.392c1.793-.85 3.613-1.662 5.442-2.455l2.744-1.176.485-.205 2.287-.933c1.222-.486 2.473-.98 3.733-1.456l1.866-.71a199.748 199.748 0 0 1 13.383-4.451l1.708-.486a.15.15 0 0 0 .084 0l.504-.14c.915-.261 1.83-.513 2.744-.756l.98-.252a74.138 74.138 0 0 1 2.847-.737c1.204-.299 2.407-.597 3.602-.868 1.195-.27 2.212-.513 3.341-.756l.569-.112 1.867-.382.205-.047 1.139-.224h.084l.849-.159h.112l1.624-.308h.065c.504-.102 1.008-.186 1.522-.28l4.069-.672h.084c1.269-.186 2.538-.373 3.808-.541.262-.049.527-.083.793-.103 1.12-.168 2.258-.298 3.378-.429l.411-.047c1.064-.13 2.109-.233 3.182-.336a34.302 34.302 0 0 1 1.96-.196c.448-.046.934-.093 1.363-.112a81.03 81.03 0 0 1 3.042-.242h.364c.934-.084 1.932-.15 2.903-.196a167.96 167.96 0 0 1 3.733-.168 80.991 80.991 0 0 1 2.996-.094h5.543c5.669 0 11.268.209 16.799.626.196.261.392.494.579.728a.387.387 0 0 0 .093.112 17.022 17.022 0 0 0 3.668 3.369 37.821 37.821 0 0 0 8.754 4.013c7.383 2.38 9.118 5.665 7.569 8.381ZM214.239 323.764c-1.008 2.296 3.658 3.108 6.355 4.564 2.697 1.456 4.807 2.37 6.356 0 1.549-2.371-.579-5.115-2.697-5.656-2.119-.541-9.053-1.101-10.014 1.092ZM250.637 345.118c1.773 1.774 4.816 1.456 6.934 4.013 2.119 2.558 1.344 6.935 4.041 8.213 2.697 1.279 4.62 0 4.816-1.82.196-1.819-3.854-6.393-3.462-7.307.392-.915 5.599 1.278 6.738 4.022 1.138 2.744-1.157 6.533 1.54 7.299 2.697.765 2.118-2.558 3.276-3.286 1.157-.728 3.658-.364 3.462-2.557-.196-2.193-3.276-6.934-5.777-8.577-2.501-1.642-4.424-3.471-8.661-4.377-4.237-.905-8.287-.186-10.406 1.456-2.118 1.643-3.602 1.829-2.501 2.921ZM333.959 379.51a3.196 3.196 0 0 1-1.082 1.922c-4.051 2.744-8.866-6.747-14.447-8.567-5.581-1.82-8.092-8.586-9.24-7.121-1.148 1.465-.774 3.462-2.51 5.833-1.736 2.37-4.237 1.866-5.395 6.393-1.157 4.526 5.395 12.954 3.855 15.698-1.54 2.743-3.463 1.819-6.533 1.642-3.071-.177-2.501 2.371-6.533 1.269-4.032-1.101-.579-5.833-6.934-11.488-6.356-5.656-8.475-6.757-7.121-9.333 1.353-2.576-.579-6.197 2.305-6.533 2.884-.336 5.198 3.658 7.121 4.75 1.922 1.092 4.433-2.193 4.666-5.114.234-2.921-6.747-6.934-9.249-9.202-2.501-2.268-2.697-10.509-1.735-12.133.961-1.624 3.854-1.092 4.666-5.105.448-2.361-3.49-6.309-6.822-9.155a204.052 204.052 0 0 1 54.988 46.244ZM358.207 416.543h-59.142c-1.54-2.978-3.798-6.692-3.938-9.529-.196-3.64 3.649-3.481 10.975-8.596 7.326-5.114 9.24-4.741 14.83-2.921a83.896 83.896 0 0 0 12.338 3.313c3.201.532 7.522 8.279 8.959 8.232h.084c1.344-.373 1.549-2.744 2.119-6.206a7.658 7.658 0 0 1 2.398-3.92 189.785 189.785 0 0 1 11.377 19.627Z"/></g><path opacity=".1" d="M193.202 305.922c-1.316.121-2.613.28-3.911.429a193.78 193.78 0 0 0-11.507 1.754 192.537 192.537 0 0 0-20.327 4.844 191.54 191.54 0 0 0-15.586 5.32 194.046 194.046 0 0 0-24.834 11.759 193.593 193.593 0 0 0-15.278 9.613 144.093 144.093 0 0 0-3.005 2.156 181.056 181.056 0 0 0-60.234 74.746h-53.103a190.039 190.039 0 0 1 13.57-22.931 183.44 183.44 0 0 1 5.04-6.98 135.32 135.32 0 0 1 1.744-2.278 207.786 207.786 0 0 1 3.594-4.479 205.54 205.54 0 0 1 3.733-4.378l1.866-2.137c1.279-1.428 2.595-2.8 3.92-4.218a99.2 99.2 0 0 1 4.05-4.107c.672-.681 1.372-1.343 2.072-2.015a204.04 204.04 0 0 1 24.676-20.206c3.198-2.24 6.47-4.389 9.818-6.449 1.11-.69 2.23-1.362 3.37-2.034a223.178 223.178 0 0 1 6.859-3.883l2.8-1.502 1.577-.803c.532-.271 1.064-.551 1.605-.812l.906-.383.429-.205 2.622-1.269.682-.392 2.706-1.241c1.81-.822 3.637-1.615 5.479-2.38l2.8-1.139c1.222-.485 2.473-.98 3.733-1.456l1.866-.709a214.696 214.696 0 0 1 13.383-4.452l1.708-.485a.15.15 0 0 0 .084 0l.504-.14c.915-.261 1.829-.513 2.744-.756l.98-.252a74.083 74.083 0 0 1 2.846-.737c1.204-.299 2.408-.598 3.603-.868 1.194-.271 2.212-.514 3.341-.756l.569-.112 1.867-.383.205-.047 1.139-.224h.084l.849-.158h.112l1.624-.308h.037c.504-.103 1.008-.187 1.522-.28l4.069-.672h.084c1.269-.187 2.538-.373 3.807-.541.263-.049.528-.083.794-.103 1.12-.168 2.258-.299 3.378-.429l.411-.047a118.54 118.54 0 0 1 3.182-.336 34.302 34.302 0 0 1 1.96-.196c.448-.047.933-.093 1.363-.112a81.024 81.024 0 0 1 3.042-.243h.364a71.61 71.61 0 0 1 2.903-.196c1.26-.065 2.501-.13 3.733-.168a80.921 80.921 0 0 1 2.996-.093h5.543c5.668 0 11.268.208 16.799.625l3.08.262 1.559-.028Z" fill="#000"/><path opacity=".3" d="M358.206 416.543h-10.611a187.532 187.532 0 0 0-5.367-9.528 168.17 168.17 0 0 0-4.358-6.963 196.5 196.5 0 0 0-13.001-17.452 201.342 201.342 0 0 0-15.716-16.846 205.084 205.084 0 0 0-25.049-20.429 200.548 200.548 0 0 0-14.643-9.268 213.903 213.903 0 0 0-76.529-26.337 213.922 213.922 0 0 0-14.242-1.549c-.317 0-.625-.056-.933-.065a214.973 214.973 0 0 0-15.969-.588 218.972 218.972 0 0 0-49.706 5.683l.504-.14c.914-.261 1.829-.513 2.744-.756l.98-.252a75.974 75.974 0 0 1 2.846-.737c1.204-.298 2.408-.597 3.603-.868 1.194-.27 2.211-.513 3.341-.756l.569-.112 1.867-.382.205-.047 1.138-.224h.084l.85-.159h.112l1.624-.308h.065c.504-.102 1.008-.186 1.521-.28l4.069-.672h.084c1.27-.186 2.539-.373 3.808-.541.262-.048.527-.083.793-.103 1.12-.168 2.259-.298 3.379-.429l.41-.047c1.064-.13 2.11-.233 3.183-.336a33.42 33.42 0 0 1 1.96-.195c.448-.047.933-.094 1.362-.112a78.863 78.863 0 0 1 3.043-.243h.364a71.559 71.559 0 0 1 2.902-.196c1.26-.065 2.502-.131 3.733-.168a78.922 78.922 0 0 1 2.996-.093h5.544c5.668 0 11.268.208 16.799.625l3.08.261 1.502.15 1.55.149c1.443.155 2.88.323 4.311.504 1.606.196 3.201.42 4.797.653l3.006.457c3.005.495 5.982 1.036 8.931 1.643 1.969.42 3.92.849 5.87 1.297 2.918.691 5.812 1.437 8.68 2.24a244.72 244.72 0 0 1 5.711 1.689 211.073 211.073 0 0 1 42.819 18.666 206.302 206.302 0 0 1 39.814 29.865 527.583 527.583 0 0 1 3.201 3.154 186.268 186.268 0 0 1 6.188 6.533 211.691 211.691 0 0 1 5.879 6.766 194.28 194.28 0 0 1 24.266 37.005l.037-.159Z" fill="#fff"/><path d="M171.811 352.966c54.286 0 98.293-4.592 98.293-10.256 0-5.665-44.007-10.257-98.293-10.257-54.285 0-98.293 4.592-98.293 10.257 0 5.664 44.008 10.256 98.293 10.256Z" fill="#263238"/><path d="M267.697 327.927c-2.007.224-55.549-11.544-57.303-13.289-.682-.654.578-8.549 2.379-18.059l.056-.299c.364-1.951 7.793-35.25 7.793-35.25l35.465 8.269-8.624 34.195-.149.579s18.479 13.672 20.206 15.791c1.726 2.118 2.183 7.858.177 8.063Z" fill="#EB9481"/><path d="M210.394 314.635c1.754 1.746 55.297 13.514 57.303 13.3 2.007-.215 1.54-5.964-.177-8.073s-20.206-15.791-20.206-15.791l.15-.579 1.241-3.845-34.671-7.877c-.383 1.391-1.148 4.228-1.204 4.517 0 .094 0 .196-.066.29-1.754 9.51-3.051 17.414-2.37 18.058Z" fill="#EBEBEB"/><path d="M267.706 327.927c-1.036.112-15.614-2.93-29.818-6.159-2.847-.644-5.684-1.298-8.4-1.932-10.107-2.38-18.422-4.527-19.104-5.199-.681-.672.551-8.334 2.305-17.657 0-.131.047-.262.075-.402.028-.14.047-.205.056-.298h.056l34.587 7.195-.14.588s18.479 13.673 20.206 15.791c1.726 2.119 2.174 7.859.177 8.073Z" fill="#FFC727"/><path d="M267.548 325.724c-8.978-2.212-45.395-10.266-54.438-11.75-.075 0-.084 0 0 .056 8.847 2.38 45.329 10.126 54.419 11.834.177.037.205-.093.019-.14ZM251.281 304.436c-3.407-1.446-7.868-1.866-11.134.075-.131.074 0 .261.102.242a52.106 52.106 0 0 1 10.92.122.231.231 0 0 0 .143-.049.23.23 0 0 0 .084-.127.237.237 0 0 0-.012-.151.238.238 0 0 0-.103-.112ZM253.511 306.546c-3.407-1.447-7.877-1.867-11.143.074-.131.075 0 .262.102.243a52.106 52.106 0 0 1 10.92.121.232.232 0 0 0 .121-.438ZM255.733 308.655c-3.407-1.446-7.868-1.866-11.144.075-.121.075 0 .252.103.243 3.637-.347 7.3-.307 10.929.121a.231.231 0 0 0 .143-.049.23.23 0 0 0 .071-.278.232.232 0 0 0-.102-.112Z" fill="#263238"/><path d="m249.087 297.184-34.214-8.4s13.169-62.893 12.851-64.499c-.391-2.062-33.598-96.827-33.598-96.827h33.459s34.531 75.11 36.929 89.968c2.24 14.055-15.427 79.758-15.427 79.758Z" fill="#EB9481"/><path d="m212.942 184.649 36.286-12.571-21.634-44.62h-33.458l18.806 57.191Z" fill="#0076F8"/><path d="M243.619 169.149c-5.87 1.26-26.384 7.774-28.465 8.894v.122c2.352-.252 20.131-5.6 28.484-8.848.121-.028.037-.186-.019-.168Z" fill="#263238"/><path d="m227.277 127.458-14.653 56.239-18.488-56.239h33.141Z" fill="#0064D2"/><path d="M231.112 342.056c-1.932.606-56.743-.402-58.796-1.764-.784-.504-1.111-8.503-1.214-18.171v-.308c0-1.988 1.745-35.409 1.745-35.409l35.176.56-1.549 35.11v.597s20.812 9.772 22.921 11.508c2.109 1.736 3.64 7.27 1.717 7.877Z" fill="#EB9481"/><path d="M171.056 317.989V322.123c.103 9.669.42 17.667 1.223 18.171 2.053 1.363 56.874 2.371 58.796 1.764 1.923-.607.336-6.141-1.764-7.877-2.099-1.736-22.912-11.507-22.912-11.507v-.597l.159-3.734c-6.244-.074-24.368-.242-35.502-.354Z" fill="#EBEBEB"/><path d="M231.112 342.055c-1.932.607-56.743-.401-58.796-1.763-.784-.504-1.111-8.503-1.214-18.171v-.308l35.372.261v.597s20.812 9.772 22.921 11.508c2.109 1.735 3.64 7.27 1.717 7.876Z" fill="#FFC727"/><path d="M230.535 339.917c-9.24-.401-46.524-1.129-55.689-.821-.075 0-.075.056 0 .065 9.146.588 46.44 1.018 55.679.934.196-.028.196-.168.01-.178ZM210.393 322.281c-3.621-.747-8.082-.271-10.9 2.268-.112.102 0 .252.149.224a51.044 51.044 0 0 1 10.733-2.035.234.234 0 0 0 .15-.371.231.231 0 0 0-.132-.086ZM212.988 323.877c-3.621-.747-8.082-.271-10.901 2.268-.112.102 0 .252.15.214a51.03 51.03 0 0 1 10.732-2.025.233.233 0 0 0 .019-.457ZM215.582 325.502c-3.621-.747-8.073-.262-10.901 2.277-.112.093 0 .252.15.215a50.967 50.967 0 0 1 10.732-2.026.21.21 0 0 0 .09-.014.231.231 0 0 0 .091-.377.228.228 0 0 0-.162-.075Z" fill="#263238"/><path d="M227.594 127.458s-3.733 21.465-6.43 29.379c0 0-6.328 2.24-7.037 2.67l-7.308 154.457h-35.52s4.517-79.534 4.47-84.742c-.084-8.399 4.517-65.04 4.041-66.468-4.909-14.643 3.211-35.296 3.211-35.296h44.573Z" fill="#EB9481"/><path d="m176.777 183.426 36.492.775.858-24.694 7.037-2.67s5.021-11.684 6.43-29.379h-44.582s-8.969 18.525-4.237 34.064l-1.998 21.904Z" fill="#0076F8"/><path d="M210.646 177.743c-9.66-.644-28.381-.784-30.798-.355-.056 0-.056.112 0 .122 2.389.485 25.124.933 30.798.41.093-.009.093-.168 0-.177ZM187.324 144.874c.662-.261 1.409-.327 2.09-.532a15.508 15.508 0 0 0 2.128-.746 16.267 16.267 0 0 0 3.659-2.203 8.52 8.52 0 0 0 2.379-3.462c.299-.71 1.587-4.471 1.596-4.499.01-.028.215-.056.215 0 0 .504-.756 3.733-1.008 4.527a8.22 8.22 0 0 1-2.38 3.975 13.05 13.05 0 0 1-4.088 2.352c-.768.296-1.561.52-2.37.672a6.161 6.161 0 0 1-2.259.14c-.093-.028-.056-.196.038-.224ZM222.274 155.735a67.61 67.61 0 0 0-10.64 4.955c-.13.075-.046.28.094.215 3.593-1.54 7.242-3.005 10.742-4.741a.237.237 0 0 0-.196-.429ZM223.413 131.137c0-.121-.224-.149-.224 0a118.435 118.435 0 0 1-.607 11.955c-.159 1.867-1.652 12.049-4.853 11.302-.532-.121-.803-.653-.887-1.456.011-1.058.152-2.111.42-3.136.355-2.127.644-4.274.822-6.43a58.654 58.654 0 0 0-.122-12.076.11.11 0 0 0-.107-.08.108.108 0 0 0-.067.022.104.104 0 0 0-.04.058 110.467 110.467 0 0 1-.934 16.659c-.401 2.65-1.736 6.654 1.036 7.055 2.772.401 4.667-6.271 5.003-8.101a61.396 61.396 0 0 0 .56-15.772Z" fill="#263238"/><path d="M217.823 154.682c-.29.686-.533 1.391-.728 2.109a4.877 4.877 0 0 0-.299 1.745.133.133 0 0 0 .177.047.125.125 0 0 0 .047-.047 6.283 6.283 0 0 0 .747-1.698c.243-.653.495-1.297.728-1.96a.356.356 0 0 0-.497-.367.355.355 0 0 0-.175.171ZM210.478 101.092a32.698 32.698 0 0 1-6.991 2.427c4.592-4.862 6.953-17.639 6.141-15.931-3.891 8.204-11.47 16.435-13.644 16.435a24.492 24.492 0 0 1-14.093-6.468c5.721-5.375 8.456-18.292 7.989-17.573-5.039 7.69-12.655 11.124-13.775 10.854-3.266-4.928-4.573-9.417-3.892-9.678 4.993-1.96 10.397-8.708 15.53-15.969 5.077-7.158 8.4-14.288 14.652-20.298 5.684-5.497 14.41-4.807 18.442-.42 10.574 11.414-7.214 55.11-10.359 56.621Z" fill="#263238"/><path d="M220.082 43.678a8.786 8.786 0 0 1 2.267 2.911 20.419 20.419 0 0 1 1.363 3.463 34.9 34.9 0 0 1 1.148 7.345 55.5 55.5 0 0 1-1.269 14.764 87.98 87.98 0 0 1-4.424 14.149 67.247 67.247 0 0 1-1.456 3.406l-1.558 3.37-1.69 3.34-1.773 3.239 1.577-3.341 1.512-3.37 1.447-3.396c.448-1.148.933-2.278 1.344-3.435a95.597 95.597 0 0 0 4.227-14.092 58.944 58.944 0 0 0 1.456-14.588 35.908 35.908 0 0 0-.933-7.27 20.821 20.821 0 0 0-1.11-3.49 11.853 11.853 0 0 0-.934-1.587 5.875 5.875 0 0 0-1.194-1.418ZM171.99 79.628a62.53 62.53 0 0 0 4.825-4.2 77.49 77.49 0 0 0 4.48-4.554c1.409-1.587 2.799-3.201 4.059-4.909 1.26-1.708 2.492-3.462 3.733-5.198 2.53-3.444 5.068-6.897 7.803-10.201a83.644 83.644 0 0 1 4.293-4.788 30.762 30.762 0 0 1 2.398-2.146 7.898 7.898 0 0 1 2.8-1.559 8.33 8.33 0 0 0-2.66 1.727c-.793.709-1.53 1.474-2.249 2.258a73.106 73.106 0 0 0-4.088 4.91c-2.622 3.36-5.151 6.803-7.634 10.265-1.269 1.718-2.492 3.453-3.808 5.17a54.881 54.881 0 0 1-4.199 4.882 61.032 61.032 0 0 1-9.753 8.343Z" fill="#263238"/><path d="M223.889 86.965c17.461 3.957 48.838 1.008 49.603-7.187.523-5.693-3.126-24.573-13.597-33.915-1.54-1.381-15.605 15.325-13.626 17.443a22.458 22.458 0 0 1 4.386 7.55c.317 1.083-17.779 4.499-25.058 6.17-13.458 3.098-6.571 8.837-1.708 9.939Z" fill="#EB9481"/><path d="M227.631 87.675s2.576-4.863-1.241-10.798c0 0 7.466-6.916 14.634-3.463a12.714 12.714 0 0 1 1.717 15.222s-5.254 4.424-15.11-.961Z" fill="#FFC727"/><path d="M238.514 83.204a1.24 1.24 0 1 0-.001 2.481 1.24 1.24 0 0 0 .001-2.481Zm0 2.267a1.03 1.03 0 0 1-.949-.633 1.02 1.02 0 0 1 .223-1.12 1.023 1.023 0 0 1 1.118-.222 1.026 1.026 0 0 1 .634.949 1.024 1.024 0 0 1-.298.728 1.01 1.01 0 0 1-.728.298Zm-7.467-10.312a1.242 1.242 0 1 0 .019 0h-.019Zm0 2.258a1.03 1.03 0 0 1-.955-.627 1.024 1.024 0 0 1 .217-1.122 1.026 1.026 0 1 1 .757 1.75h-.019Zm12.254-.588a1.026 1.026 0 0 1-1.008-1.017 1.04 1.04 0 0 1 .15-.532l-.131-.187c-.153.209-.235.46-.233.719a1.25 1.25 0 0 0 1.25 1.241h.066a1.514 1.514 0 0 0-.094-.224Z" fill="#fff"/><path d="m148.138 231.79-50.62-14.237-26.497 94.209 50.621 14.237 26.496-94.209Z" fill="#0076F8"/><g opacity=".1" fill="#020100"><path opacity=".1" d="m146.28 243.432-50.805-14.119-.16.576 50.805 14.118.16-.575ZM143.442 253.659 92.637 239.54l-.16.576 50.806 14.118.159-.575ZM140.604 263.874l-50.805-14.118-.16.575 50.806 14.118.159-.575ZM137.767 274.089l-50.805-14.118-.16.575 50.805 14.118.16-.575ZM134.912 284.304l-50.805-14.118-.16.575 50.806 14.119.159-.576ZM130.695 293.875l-50.621-14.237-.161.573 50.621 14.237.161-.573ZM127.844 304.048l-50.621-14.237-.161.573 50.621 14.237.161-.573ZM126.399 314.96l-50.805-14.118-.16.575 50.805 14.118.16-.575Z"/></g><path d="m126.005 225.67-3.921-1.089-26.258 94.556 3.92 1.089 26.259-94.556ZM124.658 260.653l-4.22-1.187-8.006 28.464 4.22 1.187 8.006-28.464ZM125.12 319.667l-12.208-3.388-6.841 5.721 17.079 4.751 1.97-7.084ZM74.313 305.554l12.198 3.388 2.92 8.437-17.087-4.741 1.969-7.084Z" fill="#263238"/><path d="m112.147 332.844 4.517 1.251 5.348-7.662-9.744-2.707 1.606 5.021-1.727 4.097Z" fill="#263238"/><path d="M107.247 334.253a6.463 6.463 0 0 0 2.248 6.816 6.454 6.454 0 0 0 7.158.53 6.457 6.457 0 1 0-9.406-7.346Z" fill="#37474F"/><path d="M110.066 335.037a3.53 3.53 0 0 0 5.163 3.97 3.53 3.53 0 0 0 .914-5.369 3.52 3.52 0 0 0-3.109-1.192 3.524 3.524 0 0 0-2.968 2.591Z" fill="#DBDBDB"/><path d="M113.948 333.899c-.13.485-.186.933-.112.933.075 0 .243-.364.374-.849.13-.485.186-.933.121-.933s-.224.364-.383.849ZM115.293 334.863c-.439.252-.766.513-.738.578.028.066.43-.084.868-.336.439-.252.775-.504.738-.569-.038-.065-.43.084-.868.327ZM115.544 336.484c-.485-.14-.933-.187-.933-.112 0 .074.364.233.849.373.486.14.934.187.934.112s-.364-.243-.85-.373ZM114.584 337.81c-.252-.448-.504-.775-.57-.738-.065.038.084.43.327.868.243.439.504.766.569.728.066-.037-.084-.42-.326-.858ZM112.959 338.06c.14-.494.187-.933.121-.933-.065 0-.242.364-.382.849-.14.486-.187.934-.112.934.074 0 .242-.364.373-.85ZM111.644 337.09c.438-.243.765-.504.728-.569-.038-.066-.42.084-.868.336s-.766.504-.728.569c.037.065.42-.084.868-.336ZM111.382 335.475c.495.13.934.186.934.112 0-.075-.355-.243-.85-.374-.494-.13-.933-.186-.933-.112 0 .075.364.243.849.374ZM112.353 334.15c.252.439.504.775.57.737.065-.037-.084-.429-.336-.868-.252-.438-.504-.774-.57-.737-.065.037.066.429.336.868ZM78.634 323.529l-4.517-1.251-.635-9.333 9.743 2.716-3.966 3.472-.625 4.396Z" fill="#263238"/><path d="M82.105 327.266a6.463 6.463 0 0 1-5.437 4.682 6.453 6.453 0 0 1-6.407-3.23 6.458 6.458 0 1 1 11.844-1.452Z" fill="#37474F"/><path d="M79.287 326.482a3.53 3.53 0 0 1-6.469.803 3.529 3.529 0 0 1 4.005-5.143 3.538 3.538 0 0 1 2.464 4.34Z" fill="#DBDBDB"/><path d="M76.524 323.493c-.14.495-.308.877-.374.849-.065-.028 0-.429.112-.933s.299-.868.374-.849c.074.019.028.448-.112.933ZM74.891 323.642c.252.439.401.831.336.868-.065.037-.327-.289-.57-.737-.242-.448-.4-.831-.335-.868.065-.037.317.308.569.737ZM73.818 324.892c.485.14.868.308.84.383-.029.074-.43 0-.934-.112s-.868-.308-.849-.383c.019-.075.476-.019.943.112ZM73.986 326.525c.438-.252.83-.401.868-.336.037.065-.29.327-.738.579-.448.252-.83.392-.868.326-.037-.065.299-.317.738-.569ZM75.237 327.581c.14-.495.307-.868.382-.849.075.018 0 .429-.112.933s-.308.868-.383.849c-.074-.018-.018-.448.113-.933ZM76.87 327.43c-.244-.438-.393-.821-.328-.858.066-.038.318.289.57.728.252.438.392.83.327.868-.066.037-.318-.29-.57-.738ZM77.924 326.181c-.485-.14-.868-.308-.849-.383.019-.074.43 0 .933.121.504.122.868.299.85.374-.02.074-.448.018-.934-.112ZM77.775 324.549c-.439.252-.821.401-.859.336-.037-.066.29-.327.728-.57.44-.242.831-.401.868-.336.038.066-.289.318-.737.57ZM136.854 224.095l-8.48-2.355-1.184 4.263 8.48 2.355 1.184-4.263Z" fill="#263238"/><path d="m167.66 158.248-3.858-1.072-20.403 73.42 3.858 1.072 20.403-73.42Z" fill="#C7C7C7"/><path d="m168.785 157.401-5.494-1.527-2.569 9.244 5.494 1.526 2.569-9.243Z" fill="#263238"/><path d="m228.901 113.405-1.306 14.055h-44.583s12.702-35.1 25.338-46.944c5.031-4.666 9.697-3.313 13.253.299.812.82 10.621 17.013 11.451 22.8.682 4.759-4.153 9.79-4.153 9.79Z" fill="#EB9481"/><path d="m228.901 113.405-.317 3.443-40.906-1.129c4.835-11.33 12.758-27.802 20.663-35.203 5.03-4.666 9.697-3.313 13.253.299.812.82 10.62 17.023 11.451 22.809.69 4.75-4.144 9.781-4.144 9.781Z" fill="#FFC727"/><path d="m228.901 113.405-.047.541-.056.579a.933.933 0 0 1 0 .224v.569l-.14 1.493-33.495-.933h-.206l-2.034-.056h-.215l-4.937-.14a187.859 187.859 0 0 1 12.459-24.666l.112-.196c.327-.532.663-1.055.999-1.559l.121-.187c1.988-3.117 4.32-6 6.953-8.595 5.031-4.666 9.697-3.313 13.253.299a15.37 15.37 0 0 1 1.073 1.558.95.95 0 0 0 .112.177c.299.495.653 1.064 1.036 1.708l.112.196a172.49 172.49 0 0 1 4.564 8.148c.035.074.075.146.121.215.261.503.523 1.007.775 1.511l.112.224c1.773 3.566 3.229 6.981 3.527 9.062.635 4.798-4.199 9.828-4.199 9.828Z" fill="#FFC727"/><path d="M218.718 94.298a1.242 1.242 0 1 0-.215 2.475 1.242 1.242 0 0 0 .215-2.475Zm0 2.259a1.028 1.028 0 0 1-.735-1.752 1.026 1.026 0 1 1 .735 1.752Zm-19.72 7.466a1.243 1.243 0 0 0-1.217 1.487 1.24 1.24 0 0 0 .981.973 1.236 1.236 0 0 0 1.273-.536 1.24 1.24 0 0 0 .204-.692 1.234 1.234 0 0 0-.759-1.172 1.25 1.25 0 0 0-.482-.097v.037Zm0 2.268a1.027 1.027 0 1 1 1.036-1.036c-.01.268-.123.522-.316.709a1.04 1.04 0 0 1-.72.29v.037Zm7.886-9.006a1.24 1.24 0 1 0 1.241 1.241 1.243 1.243 0 0 0-.757-1.18 1.242 1.242 0 0 0-.484-.098v.037Zm0 2.258a1.016 1.016 0 0 1-1.017-1.017 1.023 1.023 0 0 1 .607-1.036 1.022 1.022 0 0 1 1.175.248 1.027 1.027 0 0 1 .262.788 1.021 1.021 0 0 1-1.027.98v.037Zm16.958-15.25a.933.933 0 0 1-.355.075 1.018 1.018 0 0 1-.681-1.782.948.948 0 0 1-.112-.178 1.231 1.231 0 0 0-.448.933 1.25 1.25 0 0 0 1.241 1.242c.164 0 .326-.036.476-.103l-.121-.186Zm5.6 10.08a1.029 1.029 0 0 1-.934-1.026.878.878 0 0 1 .14-.486 1.606 1.606 0 0 1-.121-.215 1.17 1.17 0 0 0-.233.71 1.248 1.248 0 0 0 1.241 1.25l-.093-.233Zm-12.973 10.901a1.236 1.236 0 0 0-1.154.762 1.238 1.238 0 0 0 .267 1.357 1.244 1.244 0 0 0 1.914-.194c.135-.206.207-.447.205-.693a1.242 1.242 0 0 0-1.251-1.27l.019.038Zm0 2.258a1.022 1.022 0 0 1-.948-.633 1.032 1.032 0 0 1 .222-1.119 1.022 1.022 0 0 1 1.119-.223c.187.078.348.21.461.378.112.169.173.368.173.571a1.025 1.025 0 0 1-1.046.989l.019.037Zm11.339 6.001a1.022 1.022 0 0 1 1.018.99l.056-.579a1.243 1.243 0 0 0-2.315.616 1.252 1.252 0 0 0 1.241 1.241 1.233 1.233 0 0 0 .934-.448v-.569a1.017 1.017 0 1 1-.99-1.251h.056Zm-15.865-29.202a1.241 1.241 0 1 0 1.241 1.241 1.25 1.25 0 0 0-.373-.926 1.23 1.23 0 0 0-.934-.352l.066.037Zm0 2.268a1.029 1.029 0 0 1-1.007-1.227 1.023 1.023 0 0 1 1.86-.37 1.025 1.025 0 0 1 .089.979 1.021 1.021 0 0 1-1.008.618h.066Zm-10.472 2.51-.121.187a.934.934 0 0 1 .168.55 1.014 1.014 0 0 1-.626.949 1.016 1.016 0 0 1-.391.078c-.05.01-.1.01-.15 0l-.112.196a.94.94 0 0 0 .271 0 1.23 1.23 0 0 0 1.167-1.176 1.172 1.172 0 0 0-.271-.784h.065Zm5.087 21.372a1.249 1.249 0 0 0-1.154.76 1.244 1.244 0 0 0 .899 1.698 1.236 1.236 0 0 0 1.486-1.216 1.229 1.229 0 0 0-.383-.898 1.233 1.233 0 0 0-.914-.344h.066Zm0 2.268a1.021 1.021 0 0 1-.956-.627 1.032 1.032 0 0 1 .217-1.122 1.025 1.025 0 0 1 1.12-.227 1.03 1.03 0 0 1-.037 1.915 1.02 1.02 0 0 1-.41.061h.066Zm-12.628 1.811a1.241 1.241 0 0 0-1.241 1.241.132.132 0 0 0 0 .056h.215a.106.106 0 0 1 0-.056c0-.272.108-.533.3-.726a1.03 1.03 0 0 1 1.452 0c.193.193.301.454.301.726a.42.42 0 0 1 0 .112h.205a.49.49 0 0 0 0-.121 1.253 1.253 0 0 0-.386-.892 1.231 1.231 0 0 0-.911-.34h.065Zm34.933-11.199a1.241 1.241 0 1 0-.002 2.482 1.241 1.241 0 0 0 .002-2.482Zm0 2.267a1.026 1.026 0 1 1 .94-.621 1.025 1.025 0 0 1-1.005.612l.065.009Z" fill="#fff"/><path d="M222.694 110.745a35.424 35.424 0 0 0-6.682.803c-1.102.252-2.184.579-3.276.933-.541.177-1.083.327-1.624.476a5.47 5.47 0 0 1-1.727.261.061.061 0 0 0-.024.021.056.056 0 0 0 0 .061c.006.01.014.017.024.021a9.496 9.496 0 0 0 1.624.112 9.059 9.059 0 0 0 1.587-.243c1.12-.242 2.23-.559 3.341-.821 2.258-.532 4.508-1.064 6.776-1.381.093-.028.084-.252-.019-.243ZM227.912 113.756a37.183 37.183 0 0 0-5.441-.831 24.805 24.805 0 0 0-2.754 0c-.438 0-.877 0-1.315.075-.439.075-.934.149-1.456.177-.047 0-.056.103 0 .103.457 0 .933.084 1.362.112l1.372.075c.933.056 1.867.121 2.744.158 1.866.084 3.649.196 5.478.364.094-.028.103-.214.01-.233ZM218.401 121.916c-.439.308-.767.75-.933 1.26a4.608 4.608 0 0 0-.299 1.531c0 .541.327.709.579.177.101-.241.164-.496.186-.756a1.876 1.876 0 0 0-.065-.812 2.036 2.036 0 0 1 .196 1.699 1.03 1.03 0 0 1-.243.438.59.59 0 0 1-.578.159.636.636 0 0 1-.439-.401 1.4 1.4 0 0 1-.103-.486 3.729 3.729 0 0 1 .42-1.726 2.065 2.065 0 0 1 1.279-1.083Z" fill="#263238"/><path d="M207.155 88.225c-3.882 5.6-20.261 28.866-20.737 30.079-.476 1.214-8.867 25.787-9.744 29.753-.616 2.8-19.907-6.533-19.225-8.922 1.577-5.6 5.963-22.567 10.172-28.689 5.497-7.998 28.101-26.99 34.961-29.743 6.86-2.754 10.957-1.68 4.573 7.522Z" fill="#EB9481"/><path d="M165.727 157.165c1.213-.728 1.596-.093.709 2.24-.886 2.333-6.402 10.845-3.275 12.515 3.126 1.671 10.732-10.434 11.917-14.438a66.472 66.472 0 0 0 1.699-10.91c-1.951 2.063-7.168 6.599-11.05 10.593Z" fill="#EB9481"/><path d="M160.128 133.944c-5.292 6.001-12.236 13.149-13.944 22.016a4.447 4.447 0 0 0 .346 2.902c-.831 3.957.784 5.544.784 5.544.345 3.92 2.23 5.31 2.23 5.31s-.933 4.667 1.792 5.693c3.043 1.167 3.733-5.6 6.421-9.09 6.113-7.989 17.032-17.62 19.02-19.748l-16.649-12.627Z" fill="#EB9481"/><path d="M158.279 153.452a65.487 65.487 0 0 0-4.946 7.298 65.339 65.339 0 0 0-3.733 8.922.075.075 0 0 1-.15 0 34.265 34.265 0 0 1 8.726-16.313c.103-.094.196 0 .103.093ZM153.995 149.063c-1.568 2.417-4.311 6.682-6.589 15.362h-.056a30.666 30.666 0 0 1 6.533-15.437c.112-.14.196-.084.112.075ZM151.653 146.749a48.34 48.34 0 0 0-5.096 12.133h-.056c1.139-5.768 2.212-7.728 5.021-12.189.094-.205.234-.112.131.056ZM182.498 129.744c.224-1.157.532-2.296.849-3.434a68.16 68.16 0 0 1 1.036-3.37c.374-1.11.766-2.23 1.223-3.313a9.72 9.72 0 0 1 .793-1.624c.364-.466.7-.933 1.083-1.409-.243.541-.523 1.064-.784 1.587a9.047 9.047 0 0 0-.579 1.624c-.336 1.129-.709 2.239-1.073 3.359a57.803 57.803 0 0 1-1.195 3.314c-.429 1.091-.84 2.193-1.353 3.266Z" fill="#263238"/><path d="M197.225 83.361a12.64 12.64 0 0 0 8.455 7.7s-1.204 10.126-8.875 12.132a12.731 12.731 0 0 1-11.2-10.462s.644-7.018 11.62-9.37Z" fill="#FFC727"/><path d="M200.435 88.615a1.241 1.241 0 1 0 .002 2.482 1.241 1.241 0 0 0-.002-2.482Zm0 2.259a1.025 1.025 0 0 1-1.017-1.221 1.032 1.032 0 0 1 .804-.812 1.028 1.028 0 0 1 .933 1.729c-.19.192-.449.302-.72.304Zm-8.772 4.452a1.24 1.24 0 1 0 0 2.481 1.24 1.24 0 0 0 0-2.481Zm0 2.258a1.026 1.026 0 1 1 1.017-1.026 1.014 1.014 0 0 1-.626.948 1.016 1.016 0 0 1-.391.078Zm-2.502-10.583a1.07 1.07 0 0 0-.158.14 1.013 1.013 0 0 1-.022 1.422 1.005 1.005 0 0 1-.725.295.93.93 0 0 1-.672-.261.67.67 0 0 0-.13.168c.219.2.505.31.802.308a1.232 1.232 0 0 0 1.288-1.232 1.191 1.191 0 0 0-.383-.84Z" fill="#fff"/><path d="M205.821 94.86s0-.065-.056 0c-.336.476-.7.934-1.073 1.382a7.59 7.59 0 0 1-.588.634 35.37 35.37 0 0 0 1.539-4.246s0-.056-.046 0a28.943 28.943 0 0 1-3.584 6.598 10.546 10.546 0 0 1-5.236 4.032.093.093 0 0 0-.039.012.077.077 0 0 0-.03.027.095.095 0 0 0-.015.078c.004.013.01.025.019.036.009.01.02.019.033.025a.105.105 0 0 0 .039.008 10.969 10.969 0 0 0 5.546-3.62 13.3 13.3 0 0 0 1.624-2.604c.28-.28.569-.56.831-.859.391-.467.738-.97 1.036-1.503Z" fill="#263238"/><path d="M211.458 79.928c.364.822 5.506 5.647 9.407 4.732 1.27-.298-.065-7.307-.065-7.307v-.532l.271-7.55-9.501-3.883-1.363-.495s.056 2.072.159 4.667v1.95c0 .392 0 .588.056.934.056.345.047.616.065.933.173 2.204.497 4.393.971 6.552Z" fill="#EB9481"/><path d="M210.366 69.541a15.159 15.159 0 0 0 10.462 7.28l.271-7.55-9.529-3.883-1.363-.495s.056 2.072.159 4.648Z" fill="#263238"/><path d="M229.423 56.295c3.117 12.889-4.246 16.211-7.027 16.883-2.52.607-11.2 2.352-15.623-10.135-4.424-12.487.569-18.022 6.262-19.72 5.693-1.699 13.262.102 16.388 12.972Z" fill="#EB9481"/><path d="M225.998 53.851h-.933c-.319.053-.647 0-.934-.15a.476.476 0 0 1-.14-.56 1.2 1.2 0 0 1 1.064-.54c.423-.037.845.082 1.186.336a.51.51 0 0 1 .198.541.507.507 0 0 1-.441.373ZM217.543 56.008c.289-.112.541-.262.821-.402.312-.093.582-.29.765-.56a.464.464 0 0 0-.13-.56 1.15 1.15 0 0 0-1.186 0 1.66 1.66 0 0 0-.933.84.507.507 0 0 0 .09.575.505.505 0 0 0 .573.107ZM220.025 58.833s-.056.056-.046.093c.261.868.42 1.867-.29 2.399 0 0 0 .065 0 0 .943-.364.728-1.717.336-2.492Z" fill="#263238"/><path d="M219.008 58.161c-1.428.271-.794 3.108.541 2.865 1.335-.242.653-3.117-.541-2.865Z" fill="#263238"/><path d="M218.476 58.416c-.215.215-.392.551-.691.644-.299.094-.663-.12-.933-.354h-.047c.121.541.457 1.054 1.055.998.597-.056.821-.616.84-1.185-.01-.065-.131-.196-.224-.103ZM225.074 57.474s.084 0 .084.065c.168.933.504 1.866 1.363 1.997-.999.13-1.428-1.194-1.447-2.063Z" fill="#263238"/><path d="M225.662 56.381c1.39-.41 2.128 2.408.83 2.8-1.297.392-1.997-2.445-.83-2.8Z" fill="#263238"/><path d="M226.297 56.416c.261.093.55.308.821.252.271-.056.467-.42.588-.765h.056c.149.532.121 1.138-.373 1.381-.495.243-.934-.159-1.186-.663-.046-.074-.009-.242.094-.205ZM221.919 65.827c.252.168.514.42.84.392.338-.06.658-.198.934-.402h.046a1.202 1.202 0 0 1-1.036.682.932.932 0 0 1-.84-.663s.019-.028.056-.01ZM224.831 61.774s.495 1.27.644 1.866c0 .066-.13.122-.336.187a3.012 3.012 0 0 1-3.117-.42c-.056-.047 0-.13.075-.103.917.348 1.922.39 2.865.122 0-.178-.933-2.138-.821-2.175a6 6 0 0 1 1.484 0c-.934-2.669-2.324-5.16-3.239-7.84 0-.093.103-.158.15-.074a45.183 45.183 0 0 1 3.845 8.297c.112.345-1.279.187-1.55.14Z" fill="#263238"/><path d="M224.551 63.763a3.18 3.18 0 0 1-1.017 1.27c-.247.17-.541.257-.84.252-.663 0-.812-.579-.812-1.092.003-.27.038-.54.103-.803a4.179 4.179 0 0 0 2.566.373Z" fill="#263238"/><path d="M223.534 65.001a1.44 1.44 0 0 1-.84.252c-.663 0-.812-.578-.812-1.091a1.503 1.503 0 0 1 1.652.84Z" fill="#FF9CBD"/><path d="M207.192 63.267a5.336 5.336 0 0 0 2.567-4.61c10.574-3.995 11.787-11.834 11.787-11.834 3.994 4.853 6.16 5.16 6.748 5.898 0 0-.803-5.142-3.733-8.26a10.734 10.734 0 0 0-12.926-2.165c-3.118 1.568-4.881 5.348-4.881 5.348s-3.398 1.614-3.846 4.965c-.755 5.553 4.284 10.658 4.284 10.658Z" fill="#263238"/><path d="M221.565 46.336a9.22 9.22 0 0 1-.831 4.433 11.646 11.646 0 0 1-2.669 3.733l-.878.738c-.298.233-.634.429-.933.644a13.45 13.45 0 0 1-1.997 1.11c-.691.318-1.409.55-2.109.83l-2.193.56c.7-.28 1.409-.513 2.118-.774.709-.261 1.372-.588 2.035-.933a16.465 16.465 0 0 0 3.649-2.51 12.144 12.144 0 0 0 2.669-3.51 10.757 10.757 0 0 0 1.139-4.32Z" fill="#263238"/><path d="M214.957 45.546c0 1.371-2.314 2.454-5.105 2.407-2.79-.046-5.049-1.194-5.03-2.575.019-1.382 2.305-2.455 5.105-2.408 2.8.046 5.049 1.194 5.03 2.576Z" fill="#FFC727"/><path d="M213.809 45.236c0 1.054-1.754 1.866-3.882 1.866s-3.836-.933-3.817-1.96c.018-1.026 1.754-1.866 3.873-1.866 2.118 0 3.873.886 3.826 1.96Z" fill="#263238"/><path d="m213.809 44.165-.793-.355c.933-2.007 3.257-2.1 4.377-1.867l-.177.85c-.075 0-2.529-.495-3.407 1.372ZM204.784 63.166c0-.14-.55-3.444-.606-4.098-.056-.653 3.247-12.02 3.285-12.132l.373.224.411.14c-.215.634-3.183 10.9-3.211 11.666.056.597.598 3.975.607 4.013l-.859.187Z" fill="#FFC727"/><path d="M226.007 41.708c0 1.381-2.305 2.455-5.105 2.417-2.799-.037-5.049-1.204-5.021-2.575.028-1.372 2.305-2.464 5.105-2.418 2.8.047 5.04 1.195 5.021 2.576Z" fill="#FFC727"/><path d="M224.877 41.486c0 1.045-1.754 1.866-3.882 1.866s-3.836-.933-3.817-1.96c.019-1.026 1.754-1.866 3.882-1.866s3.836.905 3.817 1.96Z" fill="#263238"/><path d="M209.059 63.559s-3.481-3.659-5.189-2.362c-1.708 1.298 1.353 6.907 3.659 7.392a2.249 2.249 0 0 0 2.799-1.643l-1.269-3.387Z" fill="#EB9481"/><path d="M204.785 62.829v.065a5.67 5.67 0 0 1 3.425 3.015 1.246 1.246 0 0 0-1.437-.356c-.163.068-.309.17-.43.3 0 0 0 .093.056.075a1.363 1.363 0 0 1 1.568.251c.351.332.664.701.933 1.102.094.121.327 0 .252-.14-.317-1.988-2.24-4.48-4.367-4.312Z" fill="#263238"/><path d="M262.685 47.897S252.214 36.399 244.02 33.3c-3.416-1.297-18.75-3.5-19.413.196-.597 3.332 12.786 3.733 12.786 3.733s-13.467-1.586-13.448 2.567c.019 4.153 15.194 2.585 15.194 2.585s-13.85-1.316-13.197 2.968c.532 3.229 14.363 2.585 14.363 2.585s-11.936-1.055-11.535 2.296c.439 3.733 13.243 3.91 13.243 3.91.737 6.234 3.005 9.23 6.533 10.957.868.41 14.139-17.2 14.139-17.2Z" fill="#EB9481"/><path d="M242.106 37.482c-1.577-.243-3.173-.504-4.759-.607a51.18 51.18 0 0 0-4.788-.102 26.527 26.527 0 0 0-6.188.774 58.31 58.31 0 0 1 10.957-.233c1.596.102 3.183.13 4.778.233.038 0 .038-.056 0-.065ZM241.808 43.231c-2.025-.224-4.022-.522-6.066-.662-2.044-.14-3.957-.084-5.983-.075-.158 0-.102.084.047.093 2.035.075 3.901.299 5.926.402 2.026.102 4.06.112 6.076.289v-.047ZM242.499 48.215a46.06 46.06 0 0 0-9.333-.29c-.149 0-.074.103.084.112 3.108 0 5.553 0 9.249.29.037 0 .065-.103 0-.112Z" fill="#263238"/></svg>