<svg width="343" height="417" fill="none" xmlns="http://www.w3.org/2000/svg"><mask id="a" style="mask-type:alpha" maskUnits="userSpaceOnUse" x="0" y="0" width="343" height="417"><rect width="342.246" height="417" rx="21" fill="#000"/></mask><g mask="url(#a)"><path d="M174.269 156.429h-73.276s3.635-4.745 7.655-5.371c0 0 7.815-23.277 20.895-23.42 12.157-.152 17.009 14.324 17.009 14.324s5.631-6.491 11.012-3.527c5.38 2.963 8.433 11.459 8.433 11.459s6.079 3.285 8.272 6.535ZM218.234 49.69h-49.775s2.48-3.222 5.201-3.625c0 0 5.309-15.792 14.19-15.908 8.263-.108 11.575 9.713 11.575 9.713s3.823-4.405 7.485-2.39c3.661 2.014 5.747 7.78 5.747 7.78s4.082 2.22 5.577 4.43ZM258.718 100.192h92.702s0-5.918-12.766-7.082c0 0-11.638-25.872-29.453-22.38-11.083 2.166-16.741 17.385-16.741 17.385s-8.38-11.978-15.076-9.66c-6.697 2.319-10.681 15.067-10.681 15.067s-6.938 3.322-7.985 6.67ZM7.243 108.777h63.016s-5.945-5.533-8.586-5.533c-2.64 0-10.358-18.585-20.214-17.797-9.857.788-15.085 14.628-15.085 14.628s-11.987-3.75-19.131 8.702ZM264.797 183.342h53.885s-2.686-3.482-5.631-3.921c0 0-5.748-17.099-15.363-17.224-8.952-.117-12.533 10.519-12.533 10.519s-4.136-4.772-8.057-2.588c-3.921 2.185-6.204 8.425-6.204 8.425s-4.521 2.381-6.097 4.789ZM-43.31 261.3s29.64-19.848 40.285-20.376c10.645-.528 17.556 2.614 24.995 2.095 7.44-.519 43.5-37.869 58.916-38.075 15.416-.206 41.182 8.881 47.448 6.965 6.267-1.916 48.845-28.997 66.15-28.997 30.268 0 56.66 52.515 69.695 50.823 13.034-1.692 23.661-2.211 33.732 1.71 10.072 3.921 56.141 25.855 56.141 25.855H-43.311Z" fill="#EBEBEB"/><path opacity=".6" d="M79.935 72.89c13.051-5.353 19.292-20.272 13.94-33.324-5.353-13.051-20.273-19.292-33.325-13.94C47.5 30.98 41.258 45.9 46.61 58.952c5.354 13.051 20.273 19.292 33.325 13.94Z" fill="#FFC727"/><path d="M88.294 56.8c4.162-9.97-.546-21.425-10.515-25.587-9.97-4.162-21.425.546-25.587 10.515-4.162 9.97.546 21.425 10.515 25.587 9.97 4.162 21.425-.546 25.587-10.515Z" fill="#FFC727"/><path d="m-56.452 261.298 52.953-.224 52.954-.072 105.907-.152 105.908.152 52.953.072 52.954.224-52.954.215-52.953.08-105.908.152-105.907-.152-52.954-.08-52.953-.215Z" fill="#263238"/><path d="M270.714 255.533c-.421.42-5.291.609-7.063.609-1.773 0-6.643-.189-7.064-.609-.42-.421 5.479-32.811 7.064-32.811 1.584 0 7.484 32.399 7.063 32.811Z" fill="#455A64"/><path d="M270.848 247.279c-1.209.465-5.667 2.274-6.625 2.811v-.609c1.075-.636 2.158-1.262 3.241-1.889 1.083-.627 2.399-1.28 3.483-2.068.044 0 0-.152-.054-.116a27.954 27.954 0 0 0-3.402 1.88c-1.101.644-2.185 1.307-3.268 1.969v-4.655a37.207 37.207 0 0 0 5.085-2.587c.054 0 0-.135 0-.108a36.566 36.566 0 0 0-5.04 2.489v-2.426c-.045-4.154-.054-8.317-.161-12.471 1.056-.537 2.148-1.003 3.205-1.54.071 0 0-.161-.054-.134-1.074.421-2.104.895-3.16 1.379-.054-2.14-.134-4.289-.269-6.428a.054.054 0 0 0-.015-.038.053.053 0 0 0-.076 0 .055.055 0 0 0-.016.038c-.152 3.984-.134 7.967-.09 11.951-1.092-.895-2.265-1.647-3.375-2.497 0 0-.089.044 0 .071 1.164.895 2.256 1.871 3.429 2.758v.68c-1.191-.546-2.399-1.056-3.581-1.567-.089 0-.179.099-.08.143 1.226.582 2.444 1.182 3.679 1.737 0 1.97.063 3.948.09 5.918.044 3.446.116 6.893.196 10.34a238.854 238.854 0 0 0-6.777-3.313c-.089 0-.17.081-.08.135a72.25 72.25 0 0 0 6.857 3.446c.063 2.865.126 5.721.162 8.586a.134.134 0 0 0 .134.134.134.134 0 0 0 .134-.134c-.045-3.653-.045-7.305-.054-10.958a64.458 64.458 0 0 0 6.706-2.73c-.072-.054-.143-.242-.224-.197ZM339.165 255.103c-.457.448-5.694.645-7.601.645s-7.162-.197-7.6-.645c-.439-.448 5.899-35.291 7.6-35.291 1.701 0 8.049 34.843 7.601 35.291Z" fill="#37474F"/><path d="M339.264 246.222c-1.289.493-6.087 2.453-7.162 3.017v-.653l3.474-2.033a40.967 40.967 0 0 0 3.751-2.22c.054-.045 0-.161-.054-.125a30.545 30.545 0 0 0-3.661 2.023c-1.182.689-2.346 1.406-3.51 2.122v-5.013a38.85 38.85 0 0 0 5.47-2.776c.063 0 0-.143-.044-.116a40.06 40.06 0 0 0-5.426 2.686v-2.606c-.044-4.476-.053-8.952-.17-13.428 1.137-.573 2.31-1.083 3.447-1.656.072 0 0-.17-.054-.135-1.155.448-2.265.985-3.402 1.477-.062-2.3-.152-4.61-.286-6.911a.067.067 0 0 0-.018-.044.064.064 0 0 0-.045-.019.063.063 0 0 0-.062.063c-.153 4.279-.144 8.568-.09 12.856-1.182-.949-2.435-1.791-3.635-2.686 0 0-.089 0 0 .072 1.254.958 2.426 2.014 3.689 2.963v.725c-1.28-.582-2.579-1.128-3.868-1.674-.098-.045-.188.099-.089.143 1.316.636 2.623 1.281 3.957 1.871.036 2.125.068 4.247.098 6.366.045 3.706.126 7.412.206 11.118a593.19 593.19 0 0 0-7.287-3.58c-.099-.045-.179.089-.081.134a74.762 74.762 0 0 0 7.377 3.706c.063 3.08.125 6.159.161 9.239a.154.154 0 0 0 .148.116.154.154 0 0 0 .148-.116c0-3.93-.054-7.851-.063-11.781a71.874 71.874 0 0 0 7.216-2.937c.08-.027-.009-.233-.135-.188Z" fill="#455A64"/><path d="M286.74 255.103c-.448.448-5.685.645-7.592.645-1.906 0-7.162-.197-7.6-.645-.439-.448 5.899-35.291 7.6-35.291 1.701 0 8.049 34.843 7.592 35.291Z" fill="#37474F"/><path d="M286.847 246.222c-1.289.493-6.088 2.453-7.162 3.017v-.653l3.473-2.033a42.182 42.182 0 0 0 3.751-2.22c.054-.045 0-.161-.053-.125a31.114 31.114 0 0 0-3.671 2.023 172.255 172.255 0 0 0-3.5 2.122v-5.013a38.85 38.85 0 0 0 5.47-2.776.064.064 0 0 0 .031-.085.055.055 0 0 0-.015-.02.064.064 0 0 0-.07-.011 40.473 40.473 0 0 0-5.416 2.686v-2.606c-.045-4.476-.054-8.952-.17-13.428 1.137-.573 2.309-1.083 3.446-1.656.072 0 0-.17-.062-.135-1.146.448-2.265.985-3.393 1.477-.063-2.3-.152-4.61-.287-6.911a.063.063 0 0 0-.062-.063.064.064 0 0 0-.045.019.067.067 0 0 0-.018.044c-.161 4.279-.143 8.568-.09 12.856-1.181-.949-2.435-1.791-3.634-2.686-.045 0-.09 0-.045.072 1.253.958 2.426 2.014 3.679 2.963v.725c-1.271-.582-2.569-1.128-3.858-1.674-.107-.045-.197.099-.09.143 1.316.636 2.624 1.281 3.957 1.871 0 2.125.033 4.247.099 6.366 0 3.706.125 7.412.206 11.118a2076.238 2076.238 0 0 0-7.287-3.58c-.099-.045-.18.089-.081.134a75.616 75.616 0 0 0 7.368 3.706c.071 3.08.134 6.159.17 9.239a.154.154 0 0 0 .148.116.149.149 0 0 0 .093-.033.15.15 0 0 0 .054-.083c-.044-3.93-.053-7.851-.062-11.781a71.857 71.857 0 0 0 7.215-2.937c.117-.027.027-.233-.089-.188Z" fill="#455A64"/><path d="M189.489 255.103c-.448.448-5.694.645-7.592.645-1.898 0-7.162-.197-7.6-.645-.439-.448 5.899-35.291 7.6-35.291 1.701 0 8.04 34.843 7.592 35.291Z" fill="#37474F"/><path d="M189.595 246.223c-1.298.492-6.097 2.453-7.162 3.017v-.654l3.482-2.032a42.681 42.681 0 0 0 3.743-2.22c.062-.045 0-.161-.054-.126a30.426 30.426 0 0 0-3.662 2.024c-1.181.689-2.345 1.405-3.509 2.121v-5.013a39.278 39.278 0 0 0 5.47-2.775c.054 0 0-.144-.054-.117a39.595 39.595 0 0 0-5.416 2.686v-2.605c-.054-4.476-.063-8.953-.17-13.429 1.137-.573 2.31-1.083 3.438-1.656.08 0 0-.17-.054-.134-1.155.447-2.265.984-3.393 1.477a197.003 197.003 0 0 0-.296-6.911.063.063 0 0 0 .005-.03.06.06 0 0 0-.011-.029.07.07 0 0 0-.022-.02.06.06 0 0 0-.03-.007.06.06 0 0 0-.029.007.074.074 0 0 0-.023.02.072.072 0 0 0-.01.029c-.001.01 0 .02.004.03-.161 4.279-.143 8.567-.089 12.855-1.182-.949-2.435-1.79-3.635-2.685-.045 0-.099 0-.045.071 1.253.958 2.426 2.014 3.68 2.963v.726a152.357 152.357 0 0 0-3.868-1.675c-.098-.044-.188.099-.08.144 1.307.635 2.623 1.28 3.957 1.871 0 2.122.062 4.243.089 6.365.054 3.706.134 7.413.206 11.119a593.122 593.122 0 0 0-7.287-3.581c-.09-.045-.17.089-.081.134a76.916 76.916 0 0 0 7.377 3.707c.063 3.079.134 6.159.17 9.238 0 .188.295.188.286 0 0-3.93 0-7.851-.053-11.781a72.564 72.564 0 0 0 7.215-2.936c.117-.027.036-.233-.089-.188ZM316.811 256.966c.323.313 3.984.456 5.309.456 1.325 0 4.996-.143 5.309-.456.313-.314-4.118-24.655-5.309-24.655-1.19 0-5.613 24.341-5.309 24.655Z" fill="#455A64"/><path d="M316.739 250.762c.896.349 4.262 1.71 4.987 2.113v-.456l-2.435-1.424c-.9-.471-1.772-.991-2.614-1.558v-.08c.886.409 1.742.882 2.56 1.414.824.484 1.638.976 2.453 1.477v-3.5a26.455 26.455 0 0 1-3.823-1.943c-.044 0 0-.098 0-.08a27.92 27.92 0 0 1 3.787 1.871v-1.791c0-3.115.045-6.266.117-9.373-.788-.403-1.612-.752-2.409-1.155-.044 0 0-.116.045-.098.806.313 1.585.689 2.373 1.038.044-1.611.107-3.223.206-4.834h.08c.117 2.99.099 5.989.063 8.952.823-.653 1.701-1.235 2.542-1.871 0 0 .063 0 0 .054-.895.663-1.692 1.406-2.569 2.068v.51c.895-.411 1.79-.787 2.686-1.172.071 0 .134.071.062.098-.895.448-1.835.895-2.766 1.307 0 1.486-.045 2.972-.063 4.476 0 2.597-.098 5.184-.152 7.771 1.683-.895 3.384-1.683 5.094-2.48.063 0 .125.054.063.09a54.524 54.524 0 0 1-5.157 2.596 765.113 765.113 0 0 0-.116 6.455c0 .125-.206.125-.206 0 0-2.749 0-5.488.045-8.237a50.771 50.771 0 0 1-5.05-2.05c.054-.08.108-.188.197-.188Z" fill="#37474F"/><path d="M166.034 256.966c.314.313 3.975.456 5.309.456s4.996-.143 5.309-.456c.313-.314-4.127-24.655-5.309-24.655-1.182 0-5.631 24.341-5.309 24.655Z" fill="#455A64"/><path d="M165.953 250.762c.895.349 4.261 1.71 4.986 2.113v-.456c-.805-.484-1.62-.949-2.435-1.424a27.669 27.669 0 0 1-2.614-1.558v-.08c.886.409 1.742.882 2.561 1.414.823.484 1.638.976 2.453 1.477v-3.5a26.403 26.403 0 0 1-3.823-1.943v-.08a28.036 28.036 0 0 1 3.787 1.871v-1.791c0-3.115.044-6.266.125-9.373-.797-.403-1.62-.752-2.408-1.155-.054 0 0-.116 0-.098.806.313 1.584.689 2.372 1.038.045-1.611.108-3.223.206-4.834h.081c.116 2.99.107 5.989.062 8.952.824-.653 1.701-1.235 2.543-1.871 0 0 .063 0 0 .054-.895.663-1.701 1.406-2.578 2.068v.51c.895-.411 1.79-.787 2.685-1.172.072 0 .135.071.063.098-.895.448-1.835.895-2.766 1.307 0 1.486-.045 2.972-.063 4.476a688.486 688.486 0 0 1-.152 7.771c1.692-.895 3.384-1.683 5.094-2.48.071 0 .125.054.062.09a53.568 53.568 0 0 1-5.156 2.596c0 2.149-.09 4.297-.117 6.455a.106.106 0 0 1-.102.076.106.106 0 0 1-.103-.076V253a50.771 50.771 0 0 1-5.05-2.05c.144-.08.206-.188.287-.188Z" fill="#37474F"/><path d="M283.282 256.966c.313.313 3.975.456 5.309.456s4.995-.143 5.308-.456c.314-.314-4.127-24.655-5.308-24.655-1.182 0-5.622 24.341-5.309 24.655Z" fill="#455A64"/><path d="M283.212 250.762c.895.349 4.252 1.71 4.977 2.113v-.457c-.805-.483-1.62-.949-2.426-1.423a26.743 26.743 0 0 1-2.623-1.558v-.08c.887.409 1.742.882 2.561 1.414.823.483 1.647.976 2.453 1.477v-3.5a26.403 26.403 0 0 1-3.823-1.943v-.081a28.16 28.16 0 0 1 3.787 1.872v-1.791c0-3.115 0-6.267.116-9.373-.797-.403-1.611-.752-2.408-1.155-.054 0 0-.116 0-.098.806.313 1.585.689 2.381 1.038 0-1.611.099-3.223.197-4.834 0-.054.081-.054.081 0 .116 2.99.107 5.989.072 8.952.823-.653 1.7-1.235 2.533-1.871 0 0 .063 0 0 .054-.895.662-1.701 1.405-2.578 2.068v.51c.895-.412 1.79-.788 2.685-1.173.072 0 .135.072.063.099-.895.447-1.835.895-2.766 1.307 0 1.486-.045 2.972-.063 4.476 0 2.596-.089 5.184-.143 7.771 1.683-.895 3.384-1.683 5.094-2.48a.063.063 0 0 1 .02-.013.065.065 0 0 1 .024-.002.063.063 0 0 1 .023.008.073.073 0 0 1 .017.018.057.057 0 0 1 .007.022.047.047 0 0 1-.003.024.048.048 0 0 1-.014.02 52.355 52.355 0 0 1-5.177 2.609c-.045 2.148-.09 4.297-.116 6.454a.107.107 0 0 1-.103.077.105.105 0 0 1-.103-.077c0-2.748 0-5.487.044-8.236a51.53 51.53 0 0 1-5.04-2.05c.099-.081.161-.188.251-.188Z" fill="#37474F"/><path d="M236.237 330.438c3.796 10.376 131.663 18.093 131.663 30.823 0 10.367-78.513 18.594-88.575 29.078-10.063 10.483-17.905 26.436-17.905 26.436h117.751V255.013s-69.685 7.601-83.007 19.418c-13.321 11.817 24.405 12.104 24.405 21.137 0 7.287-24.62 7.448-37.52 11.003-22.542 6.204-49.892 15.425-46.812 23.867Z" fill="#455A64"/><path d="M377.588 274.87c-1.594 2.381-5.954 6.267-11.638 9.23-5.685 2.963-17.27 11.907-19.946 14.324-2.677 2.417-22.928 8.335-27.35 8.174-4.423-.162-30-1.254-35.631 0 12.901-3.581 37.52-3.716 37.52-11.003 0-6.902-22.023-8.702-26.473-14.431.323.08 5.623 1.531 10.627 3.267 5.165 1.791 33.563 5.058 37.43 3.357 3.868-1.7 13.106-7.529 18.165-10.51 5.058-2.981 18.88-4.789 17.296-2.408Z" fill="#37474F"/><path d="M122.909 417.276s-1.137-13.195-33.92-33.589c-32.785-20.394-49.49-28.209-48.344-42.426 1.522-19.444 88.065-27.851 143.767-35.89 37.601-5.425 61.996-8.559 61.996-17.538 0-9.525-42.309-13.814-42.309-20.358 0-7.529 98.298-6.177 98.298-6.177s-99.471-4.978-120.858-4.978c-21.388 0-62.524-21.673-81.987-24.019-19.462-2.345-30.134 4.808-51.494 4.136-21.36-.671-33.59-20.761-61.387-27.932-27.797-7.17-55.12 21.415-55.12 21.415v187.356h191.358Z" fill="#455A64"/><path d="M60.805 366.248c-15.46-6.535-57.564-12.417-68.665-21.387-11.101-8.97-21.593-26.956-23.599-30.913-2.005-3.957 25.595-12.775 30.152-16.947 4.557-4.172 34.539 12.372 43.07 15.318 8.532 2.945 55.774 3.142 60.537 2.945 4.762-.197 14.153-.448 14.628-.465-39.964 6.186-75.362 14.091-76.329 26.463-.725 9.302 6.178 15.855 20.206 24.986ZM129.694 295.415c-.555 1.835-23.222-1.585-26.991-4.96-3.77-3.375-8.953-8.335-9.722-10.322-.77-1.987 10.519 1.987 13.491 3.966 2.972 1.978 12.703 3.975 15.881 5.559 3.179 1.585 7.646 4.754 7.341 5.757Z" fill="#37474F"/><path d="M-68.45 417.278s25.963-22.963 37.896-31.764c7.69-5.649 55.326-6.338 61.674-7.824 6.347-1.486 28.03-15.04 42.971-23.071 14.942-8.03 71.029-2.873 81.253-3.026 10.224-.152 23.742-11.781 40.286-15.765 32.793-7.887 78.781.179 88.011 3.814 26.222 10.295 30.958 38.639 65.353 46.947 9.481 2.291 25.434 21.297 30.17 30.689H-68.449Z" fill="#37474F"/><path opacity=".5" d="M124.922 417.277H-5.864s49.149-17.752 58.066-26.284c8.916-8.532-1.406-12.113 1.97-18.218 3.374-6.106 22.989-17.699 34.914-21.737 22.497-2.426 58.298.681 66.248.564a16.986 16.986 0 0 0 2.999-.34c-13.053 5.747-41.808 17.851-38.576 21.352 2.265 2.444 16.598 10.044 34.314 9.122 9.929-.51 7.798 9.517 8.362 13.912 1.271 9.678-37.511 21.629-37.511 21.629ZM323.667 396.543c-1.791-2.686-14.602-1.343-36.705 1.584-22.104 2.928-43.178.063-38.585-3.035 3.241-2.184 32.032-2.9 38.585-5.183 6.553-2.283 21.557-2.91 27.511-6.222 5.953-3.312-1.63-18.003-7.879-27.099 10.896 11.638 20.788 24.771 42.408 30 9.481 2.291 25.434 21.298 30.17 30.689H202.648s49.301-4.208 61.055-5.184c11.755-.976 61.754-12.873 59.964-15.55Z" fill="#263238"/><path d="M147.107 71.168a15.59 15.59 0 0 0-1.987-.895 8.063 8.063 0 0 0-2.167-.502 1.788 1.788 0 0 0-.671.072 1.5 1.5 0 0 0-.215.098l-.125.099a2.697 2.697 0 0 0-.233.188c-.279.252-.545.518-.797.797-.483.555-.895 1.128-1.352 1.71l.538-.189a16.85 16.85 0 0 0-2.221-.465 9.582 9.582 0 0 0-1.154-.08 3.729 3.729 0 0 0-.618 0 1.84 1.84 0 0 0-.654.233c-.342.229-.645.513-.895.84-.234.287-.452.586-.653.896-.398.63-.742 1.291-1.03 1.978.474-.564.895-1.136 1.423-1.683.232-.271.48-.528.743-.77a3.38 3.38 0 0 1 .779-.608c.289-.095.594-.126.896-.09.345.027.689.075 1.029.143.698.126 1.406.296 2.086.484l.349.09.197-.278c.394-.573.824-1.137 1.262-1.683.207-.269.428-.526.663-.77.063-.054.116-.117.17-.152l.081-.072a.935.935 0 0 1 .376-.08 11.02 11.02 0 0 1 2.05.196c.725.215 1.432.359 2.13.493ZM139.248 92.304a22.72 22.72 0 0 0-2.686-1.79 12.71 12.71 0 0 0-3.044-1.37 2.728 2.728 0 0 0-1.011-.09 1.23 1.23 0 0 0-.332.09l-.223.098a4.225 4.225 0 0 0-.403.215c-.481.286-.944.6-1.388.94-.895.663-1.683 1.379-2.498 2.113l.851-.117a24.666 24.666 0 0 0-3.125-1.333 12.018 12.018 0 0 0-1.674-.457 5.912 5.912 0 0 0-.895-.116 3.314 3.314 0 0 0-.51 0c-.179 0-.358.09-.537.134a6.073 6.073 0 0 0-1.531.985c-.43.365-.84.753-1.227 1.163a20.895 20.895 0 0 0-2.095 2.606c.896-.699 1.71-1.406 2.588-2.06.429-.322.895-.644 1.316-.895a5.236 5.236 0 0 1 1.325-.662 3.01 3.01 0 0 1 1.298.125c.503.138.996.309 1.477.51.985.385 1.978.851 2.927 1.317l.475.241.376-.358a51.88 51.88 0 0 1 2.336-2.095c.403-.34.806-.662 1.209-.94l.295-.188.144-.071h.053c.193-.032.39-.032.582 0 1.009.201 1.996.5 2.946.895 1.029.295 2.014.716 2.981 1.11ZM12.92 43.389a17.524 17.524 0 0 0-1.79-1.164 8.813 8.813 0 0 0-2.06-.895 2.045 2.045 0 0 0-.68 0 1.14 1.14 0 0 0-.215.063l-.152.08-.26.143c-.31.204-.61.425-.895.663-.573.456-1.101.958-1.62 1.46l.563-.1a17.738 17.738 0 0 0-2.112-.814 9.035 9.035 0 0 0-1.128-.269c-.204-.04-.41-.06-.618-.062a2.13 2.13 0 0 0-.331 0 2.69 2.69 0 0 0-.358.098c-.368.177-.706.41-1.003.69-.279.255-.545.524-.797.805a14.43 14.43 0 0 0-1.334 1.79c.564-.483 1.11-.975 1.674-1.432.287-.223.573-.447.896-.644.275-.197.576-.354.895-.466.298-.05.605-.032.895.054.338.081.67.186.994.313.662.233 1.334.52 1.978.815l.323.143.241-.241a29.154 29.154 0 0 1 1.522-1.45c.25-.233.52-.457.779-.654l.197-.126.09-.053c.127-.024.257-.024.384 0 .678.112 1.344.289 1.988.528.582.224 1.253.483 1.934.725ZM30.647 40.524a23.043 23.043 0 0 0-2.014-2.543 12.2 12.2 0 0 0-2.498-2.21 2.685 2.685 0 0 0-.94-.386 1.049 1.049 0 0 0-.34 0h-.242c-.151.02-.3.05-.448.09-.546.13-1.084.291-1.611.483-1.03.376-2.014.815-3.008 1.28l.841.135a23.177 23.177 0 0 0-2.578-2.194c-.47-.327-.961-.626-1.468-.895a6.11 6.11 0 0 0-.842-.376 3.248 3.248 0 0 0-.492-.134 3.66 3.66 0 0 0-.546 0 5.812 5.812 0 0 0-1.79.474 17.21 17.21 0 0 0-1.522.752 22.318 22.318 0 0 0-2.731 1.8c1.03-.403 2.05-.833 3.08-1.19a14.472 14.472 0 0 1 1.522-.493c.472-.149.963-.23 1.459-.242.432.08.841.255 1.2.51.44.271.86.57 1.262.896a36.23 36.23 0 0 1 2.408 2.13l.385.367.447-.188c.896-.465 1.907-.895 2.865-1.307.465-.205.94-.384 1.424-.537l.34-.09h.215c.194.022.382.08.555.17a16.864 16.864 0 0 1 2.551 1.728c.86.6 1.674 1.29 2.516 1.97ZM164.583 87.122a23.106 23.106 0 0 0-2.014-2.543 12.218 12.218 0 0 0-2.498-2.21 2.686 2.686 0 0 0-.895-.386 1.048 1.048 0 0 0-.34 0h-.242a3.57 3.57 0 0 0-.448.09 14.64 14.64 0 0 0-1.611.483c-1.03.376-2.014.815-3.008 1.28l.841.135a23.076 23.076 0 0 0-2.578-2.194 14.201 14.201 0 0 0-1.468-.895 6.097 6.097 0 0 0-.842-.376 3.248 3.248 0 0 0-.492-.134 3.658 3.658 0 0 0-.546 0 5.819 5.819 0 0 0-1.791.474c-.528.224-1.029.484-1.521.752a22.302 22.302 0 0 0-2.767 1.862c1.03-.402 2.05-.832 3.08-1.19a14.48 14.48 0 0 1 1.531-.493c.472-.148.964-.23 1.459-.241.432.08.842.255 1.2.51.439.27.861.57 1.262.895a36.405 36.405 0 0 1 2.408 2.13l.385.368.457-.233c.895-.465 1.906-.895 2.864-1.307.465-.205.94-.384 1.424-.537l.34-.09h.215c.194.022.382.08.555.17a16.885 16.885 0 0 1 2.551 1.728c.833.582 1.648 1.272 2.489 1.952Z" fill="#263238"/><path d="m282.12 293.321 1.02 40.286c0 7.439-.179 13.966-.573 17.332a.123.123 0 0 1 0 .054c-.01.795-.2 1.579-.555 2.291v.054c-2.22 1.486-61.682 3.035-63.777 2.39-2.095-.644-.421-6.66 1.844-8.558 2.265-1.898 24.772-12.677 24.772-12.677l-.654-40.232 37.923-.94Z" fill="#F7A9A0"/><path d="m283.203 325.612-.063 7.986c0 7.439-.179 13.966-.573 17.332a.123.123 0 0 1 0 .054 10.326 10.326 0 0 1-.555 2.291v.054c-2.22 1.486-61.682 3.035-63.777 2.39-2.095-.644-.421-6.66 1.844-8.558 2.265-1.898 24.772-12.677 24.772-12.677v-8.057l38.352-.815Z" fill="#fff"/><path d="M241.152 334.512c3.957-.654 8.764.053 11.719 2.927.116.108-.045.269-.17.233a55.5 55.5 0 0 0-11.549-2.686.25.25 0 0 1 0-.474ZM238.261 336.159c3.966-.645 8.774.062 11.728 2.936.117.107-.045.269-.17.224a56.028 56.028 0 0 0-11.549-2.686.252.252 0 0 1-.009-.474ZM235.378 337.816c3.966-.645 8.774.062 11.728 2.936.117.107-.045.269-.17.224a55.408 55.408 0 0 0-11.549-2.686.252.252 0 0 1-.009-.474Z" fill="#263238"/><path d="M218.18 355.72c2.095.644 61.557-.895 63.778-2.39.895-.555 1.137-9.239 1.172-19.696v-.331l-38.37.573v.644s-22.488 10.743-24.762 12.677c-2.274 1.934-3.912 7.887-1.818 8.523Z" fill="#263238"/><path d="M283.14 333.268v.34c-.045 10.483-.322 19.167-1.181 19.695-1.003.681-13.895 1.37-27.825 1.862-16.66.591-34.816.896-35.953.538-2.095-.645-.411-6.67 1.845-8.568 2.256-1.898 24.762-12.677 24.762-12.677v-.644l12.793-.188 25.559-.358Z" fill="#FFC727"/><path d="M218.79 353.4c10.018-.51 50.465-1.602 60.411-1.343.081 0 .081.054 0 .063-9.919.716-50.375 1.486-60.402 1.441-.215 0-.215-.152-.009-.161Z" fill="#263238"/><path opacity=".1" d="M257.554 333.651c-.895 6.428-2.363 15.9-3.42 21.54-16.66.591-34.816.895-35.953.537-2.095-.645-.411-6.67 1.845-8.568 2.256-1.897 24.762-12.676 24.762-12.676v-.645l12.766-.188Z" fill="#000"/><path d="m286.594 317.904-43.034.412s-2.435-54.118-2.623-77.483c-.251-31.674-.117-31.665 1.298-106.74h32.193s4.234 11.038 5.21 21.11c.457 4.673-1.003 9.4-1.513 11.405l-1.361 76.4 9.83 74.896Z" fill="#FFC727"/><path d="m286.594 317.904-43.034.412s-2.435-54.118-2.623-77.483c-.251-31.674-.117-31.665 1.298-106.74h32.193s4.234 11.038 5.21 21.11c.457 4.673-1.003 9.4-1.513 11.405l-1.361 76.4 9.83 74.896Z" fill="#0064D2"/><path d="M283.38 310.339a33.607 33.607 0 0 0-3.428-.268c-1.272-.09-2.543-.188-3.814-.242a200.229 200.229 0 0 0-7.35-.152c-4.942 0-9.848 0-14.816.17-2.811.089-5.622.206-8.425.367a.093.093 0 0 0-.044.032.093.093 0 0 0-.017.053c0 .019.006.037.017.052a.09.09 0 0 0 .044.033c4.897.179 9.848.26 14.7.349 4.853.09 9.803.197 14.691.099 1.406 0 2.811 0 4.208-.117 1.397-.116 2.838 0 4.217-.206.107-.009.143-.143.017-.17ZM245.476 252.847c-.635-23.186-.796-51.36-.501-74.547.161-13.016.51-21.038.895-34.019 0-.152-.223-.143-.223 0-.976 18.308-1.701 41.629-1.728 69.919 0 23.196 3.106 79.533 4.082 92.514 0 .546.358.188.349.072-.519-11.719-2.569-42.354-2.874-53.939Z" fill="#263238"/><path d="m236.085 299.713-.331 38.935c0 7.439-.17 13.965-.573 17.331a.068.068 0 0 1 .007.027.06.06 0 0 1-.007.027 5.32 5.32 0 0 1-.555 2.292l-.045.045c-2.22 1.495-61.691 3.044-63.777 2.399-2.086-.645-.421-6.661 1.835-8.559 2.256-1.897 24.798-12.676 24.798-12.676l.698-38.89 37.95-.931Z" fill="#F7A9A0"/><path d="m235.825 330.663-.071 7.985c0 7.44-.17 13.966-.573 17.332a.064.064 0 0 1 .007.027.064.064 0 0 1-.007.027 10.46 10.46 0 0 1-.555 2.292l-.045.044c-2.22 1.495-61.691 3.044-63.777 2.4-2.086-.645-.421-6.661 1.835-8.559 2.256-1.898 24.798-12.677 24.798-12.677v-8.11l38.388-.761Z" fill="#fff"/><path d="M193.766 339.552c3.966-.645 8.774.062 11.728 2.936.116.108-.045.269-.17.224a55.486 55.486 0 0 0-11.549-2.686.25.25 0 0 1-.009-.474ZM190.885 341.181c3.966-.654 8.773.063 11.728 2.936.116.108 0 .269-.17.224a55.5 55.5 0 0 0-11.549-2.686.25.25 0 0 1-.009-.474ZM188.001 342.865c3.957-.653 8.774.054 11.728 2.937.117.107-.045.268-.17.224a55.408 55.408 0 0 0-11.549-2.686.252.252 0 0 1-.009-.475Z" fill="#263238"/><path d="M170.804 360.769c2.095.644 61.548-.896 63.777-2.4.851-.555 1.137-9.23 1.173-19.695v-.331l-38.37.573v.644s-22.498 10.743-24.772 12.677c-2.274 1.934-3.903 7.896-1.808 8.532Z" fill="#FFC727"/><path d="M171.415 358.441c10.018-.501 50.465-1.602 60.411-1.343.081 0 .081.063 0 .072-9.919.716-50.375 1.486-60.402 1.441-.215 0-.224-.152-.009-.17Z" fill="#263238"/><path d="M255.745 170.27s-17.654 60.617-17.968 70.84c-.277 8.72.842 80.25.842 80.25l-44.691.26s3.778-73.294 4.477-82.363c1.414-18.46 9.632-51.924 18.8-84.726 1.728-6.195 8.012-20.447 8.012-20.447h48.173a71.24 71.24 0 0 1-10.295 32.524s-4.485 2.041-7.35 3.662Z" fill="#FFC727"/><path d="M255.745 170.27s-17.654 60.617-17.968 70.84c-.277 8.72.842 80.25.842 80.25l-44.691.26s3.778-73.294 4.477-82.363c1.414-18.46 9.632-51.924 18.8-84.726 1.728-6.195 8.012-20.447 8.012-20.447h48.173a71.24 71.24 0 0 1-10.295 32.524s-4.485 2.041-7.35 3.662Z" fill="#0064D2"/><path d="M236.245 313.116c-5.165-.143-10.519-.295-15.684-.17-5.166.125-10.251.206-15.372.51-2.9.17-5.792.269-8.683.555a.08.08 0 0 0-.057.024.076.076 0 0 0-.024.057c0 .021.008.042.024.057a.08.08 0 0 0 .057.023c5.156.296 10.34.233 15.505.188 5.166-.044 10.251-.098 15.372-.331 2.9-.134 5.792-.286 8.692-.483.314-.018.475-.421.17-.43ZM213.831 210.619a44.84 44.84 0 0 1-.233 1.048c-1.459 6.92-2.686 12.972-3.294 16.329a199.671 199.671 0 0 0-2.847 32.828c-.09 11.075.053 22.167.089 33.25.036 11.083.197 4.243-.098 15.326 0 .126-.206.144-.215 0a213.032 213.032 0 0 1-.099-4.154c-.197-11.136-.286-4.342-.367-15.478-.08-11.137-.295-22.176-.062-33.259a189.804 189.804 0 0 1 3.581-32.354c.546-2.838 1.539-7.547 2.748-13.017.072-.358.161-.725.242-1.092l.053.063c.177.161.344.331.502.51ZM226.793 155.382c-1.378 6.052-3.044 12.05-4.601 18.075-.43 1.647-1.379 5.738-2.588 11.002 0 .197-.089.403-.125.6l-.591-.098c.054-.197.099-.403.144-.6 1.441-6.267 2.623-11.244 3.079-12.99 1.424-5.372 2.766-10.743 4.36-16.07a.166.166 0 0 1 .081-.078.17.17 0 0 1 .241.159ZM244.688 171.344a40.325 40.325 0 0 0 6.643-.609 63.898 63.898 0 0 0 6.428-1.79 51.438 51.438 0 0 1 6.266-1.03 21.853 21.853 0 0 0 6.178-1.844c.098 0 .17.098.08.143a38.639 38.639 0 0 1-5.926 2.57c-2.113.662-4.333.76-6.482 1.28a54.309 54.309 0 0 1-6.616 1.531 24.181 24.181 0 0 1-6.625-.117c-.053-.009-.026-.134.054-.134Z" fill="#263238"/><path d="M241.88 220.583c.42-1.648 7.967-32.99 10.08-39.498 1.2-3.698 2.265-7.431 3.671-11.048 0-.019.007-.037.021-.05a.067.067 0 0 1 .05-.021.071.071 0 0 1 .072.071c-.707 3.375-1.701 6.679-2.596 10.009-.896 3.33-9.848 38.254-10.475 40.062-.626 1.809-1.155 3.76-1.925 5.569a.083.083 0 0 1-.023.057.081.081 0 0 1-.057.023.081.081 0 0 1-.057-.023.084.084 0 0 1-.024-.057c.296-1.728.824-3.411 1.263-5.094ZM230.417 204.415c.645-3.491.439-2.39 1.084-5.891.644-3.5 1.369-6.848 1.88-10.295.062-.394.107-.725-.314-.985a9.407 9.407 0 0 0-2.551-.653c-2.131-.484-4.279-.896-6.428-1.325-4.431-.833-9.445-1.692-13.939-2.095-.421 0-.519.528-.089.573a184.818 184.818 0 0 1 21.208 3.652c.376.081 1.244.188 1.45.538-.022.257-.07.512-.143.761l-.43 2.282-.895 4.566c-.582 3.053-.313 1.504-.895 4.548-.26 1.397-.529 2.793-.788 4.19l-.43 2.283c-.071.385-.116.778-.215 1.146a1.586 1.586 0 0 1-1.262 1.351c-1.406.466-2.963.699-4.423 1.039l-4.914 1.146a11.19 11.19 0 0 1-2.632.573c-.896 0-1.791-1.146-2.4-1.701l-5.595-5.067a7.896 7.896 0 0 1-1.423-1.791c-.367-.743 2.685-16.633 3.876-19.856.054-.144-.358-.269-.412-.126-1.092 3.044-4.664 18.075-4.673 19.642 0 1.334 1.119 2.14 2.113 3.044l4.207 3.787c.735.653 1.451 1.316 2.185 1.96.474.515 1.102.86 1.79.985a5.865 5.865 0 0 0 1.889-.322l2.865-.681 5.533-1.325c1.217-.286 3.16-.411 3.813-1.513a5.279 5.279 0 0 0 .448-1.736c.17-.931.34-1.818.51-2.704Z" fill="#263238"/><path d="M232.354 189.115c-3.948 1.397-7.905 2.767-11.96 3.939-.52.153-1.039.314-1.567.448a1.894 1.894 0 0 1-2.167-.636c-.707-.68-1.387-1.378-2.086-2.05-1.611-1.557-3.249-3.088-4.87-4.637-.125-.116-.34 0-.223.143 1.674 1.791 3.339 3.671 5.067 5.47 1.172 1.227 2.256 2.963 4.252 2.453 2.274-.582 4.476-1.432 6.679-2.22a105.497 105.497 0 0 0 6.938-2.784c.071-.036.027-.152-.063-.126Z" fill="#263238"/><path d="M219.148 191.531a1.005 1.005 0 0 0-.421-.797 1.261 1.261 0 0 0-1.119 0c-.161.062-.053.295.108.233a.896.896 0 0 1 .447-.081c.072.01.14.037.197.081l.081.08c.036.061.069.124.098.188v.099c.037.143.053.291.045.438a.629.629 0 0 1-.456.555.376.376 0 0 1-.412-.116.758.758 0 0 1-.161-.457s-.081-.044-.081 0a.723.723 0 0 0 .322.743.892.892 0 0 0 .896-.125.951.951 0 0 0 .456-.841ZM236.863 60.745l-13.151-1.736 1.603-8.64 12.9 3.107-1.352 7.27Z" fill="#263238"/><path d="m230.902 61.408-19.337-2.56 2.363-12.695 18.961 4.566-1.987 10.689Z" fill="#37474F"/><path d="m217.42 60.253-24.091-3.187 2.936-15.82 23.626 5.695-2.471 13.312Z" fill="#455A64"/><path d="M191.968 48.633c-.814 4.36-.206 8.138 1.361 8.433 1.567.296 3.483-3.017 4.297-7.385.815-4.37.206-8.138-1.361-8.434-1.566-.295-3.482 3.017-4.297 7.386Z" fill="#455A64"/><path d="M199.075 41.927a1.022 1.022 0 0 0-.851.51c-.206.281-.386.581-.537.896a14.65 14.65 0 0 0-.752 1.951 31.469 31.469 0 0 0-1.011 4.047 28.12 28.12 0 0 0-.466 4.163 14.818 14.818 0 0 0 0 2.086c.023.346.074.69.152 1.03.09.321.206.697.546.832-.358-.09-.537-.475-.653-.797a6.085 6.085 0 0 1-.26-1.039c-.1-.702-.151-1.411-.152-2.121-.007-1.42.116-2.837.367-4.235.268-1.391.645-2.76 1.128-4.091.245-.668.544-1.315.895-1.934.179-.32.392-.62.636-.895a1.069 1.069 0 0 1 .958-.403Z" fill="#37474F"/><path d="m232.638 62.311-13.213-1.208 1.253-8.693 13.017 2.587-1.057 7.314Z" fill="#263238"/><path d="m226.713 63.207-19.427-1.772 1.844-12.776 19.14 3.796-1.557 10.752Z" fill="#37474F"/><path d="m213.185 62.609-24.199-2.212 2.301-15.917 23.832 4.727-1.934 13.402Z" fill="#455A64"/><path d="M187.285 52.018c-.635 4.396.126 8.147 1.701 8.37 1.576.224 3.366-3.15 4.002-7.546.636-4.396-.125-8.147-1.701-8.37-1.576-.225-3.366 3.16-4.002 7.546Z" fill="#455A64"/><path d="M194.116 45.044a1.023 1.023 0 0 0-.823.537 4.97 4.97 0 0 0-.502.895 13.524 13.524 0 0 0-.671 1.979 31.657 31.657 0 0 0-.851 4.1 29.41 29.41 0 0 0-.295 4.172c-.006.697.033 1.394.116 2.086.036.344.099.685.188 1.02.108.313.233.69.582.806-.367-.072-.564-.448-.689-.77a5.752 5.752 0 0 1-.296-1.02 15.297 15.297 0 0 1-.241-2.113c-.06-1.42.006-2.844.197-4.253.207-1.402.528-2.785.958-4.136.219-.675.489-1.334.805-1.97.169-.317.37-.617.6-.895a1.043 1.043 0 0 1 .922-.438Z" fill="#37474F"/><path d="M192.218 44.712c3.84.654 7.663 1.352 11.486 2.06 3.822.706 7.645 1.45 11.459 2.228h.197v.206l-.09.618-.17-.233 6.607 1.343c2.202.475 4.405.895 6.598 1.406h.072v.071l-.233 1.424v-.054l2.175.474-2.193-.385h-.045v-.044l.179-1.424.063.09c-2.22-.385-4.423-.815-6.634-1.227l-6.625-1.27h-.197v-.207l.09-.617.17.241c-3.823-.725-7.627-1.522-11.45-2.283a541.448 541.448 0 0 1-11.459-2.417Z" fill="#263238"/><path d="M245.19 85.705c2.981.367 5.828-4.477 6.875-8.013.081-.268-.555-2.82-1.217-5.962-.394-1.916-.788-4.047-1.012-6.025l-12.05 4.387a31.593 31.593 0 0 1 2.032 7.448c.027.274.027.55 0 .824a.753.753 0 0 0 0 .134c-.071 1.567 2.489 6.858 5.372 7.207Z" fill="#F7A9A0"/><path d="M239.827 78.364v.134c.425.01.85-.014 1.272-.071 6.714-.896 7.896-9.266 8.057-12.534l-11.406 4.154a31.568 31.568 0 0 1 2.033 7.457c.044.285.059.573.044.86Z" fill="#263238"/><path d="M254.734 49.592c1.325 5.371-1.54 18.37-5.452 21.557-5.685 4.62-14.584 4.61-18.398-2.121-3.706-6.536.117-22.973 4.477-25.828 6.374-4.199 17.421-1.504 19.373 6.392Z" fill="#F7A9A0"/><path d="M231.761 50.71s-.385 3.16 1.638 4.207c.161.081 6.347 15.676 17.547 14.826 0 0 8.693-9.266 6.813-18.004-1.227-5.658-5.014-7.367-5.014-7.367s-7.672-7.315-16.929-4.128c-9.257 3.188-7.466 9.982-4.055 10.466Z" fill="#263238"/><path d="m227.877 120.951-2.605 13.133h49.157s-5.183-38.988-18.191-53.115c-6.508-7.063-14.154-6.535-19.015-1.593-1.235 1.244-12.721 19.3-14.27 26.723-1.343 6.535 4.924 14.852 4.924 14.852Z" fill="#FFC727"/><path d="M275.789 137.72h-52.47l1.137-6.115h50.599l.734 6.115Z" fill="#263238"/><path d="M244.491 81.659c.421-.215 3.303 0 3.16-.448-.089-.269-.698-3.124-2.247-4.718a4.832 4.832 0 0 0-3.84-1.047c-2.489.322-12.292 17.01-13.751 22.73-1.46 5.72-.636 23.276.385 26.069 1.02 2.793 4.977 11.468 6.078 10.904 1.101-.564 2.883-3.876 2.883-4.53 0-.653-3.966-8.71-4.7-10.456-.734-1.746-.824-18.406-.573-21.181.251-2.776 10.107-21.397 10.394-21.665.286-.269 2.041 4.422 2.211 4.342Z" fill="#263238"/><path d="M193.41 116.948c-3.644-5.013-2.391-16.822 1.011-41.181.466-3.366 24.467-3.644 24.172 0-.403 4.566-2.937 22.184-3.286 23.455-2.954 10.663-19.418 21.128-21.897 17.726Z" fill="#F7A9A0"/><path d="M222.827 49.152a3.644 3.644 0 0 0-4.154.358 5.425 5.425 0 0 0-2.686-2.56c-2.077-.824-4.27 2.077-4.27 2.077a6.727 6.727 0 0 0-3.232-2.257c-2.059-.581-4.691 2.024-4.691 2.024a5.873 5.873 0 0 0-4.091-.197c-3.537 1.28-4.745 6.902-5.542 10.465-.797 3.563.26 14.432.251 16.526l22.846 5.372s8.138-14.969 8.487-19.293c.341-3.67-.501-11.002-2.918-12.515Z" fill="#F7A9A0"/><path d="M218.754 49.564c.618 3.948 0 7.869-.322 11.808.004.01.005.023.004.034a.075.075 0 0 1-.038.054.071.071 0 0 1-.092-.022.063.063 0 0 1-.012-.032.066.066 0 0 1 .004-.034c.402-3.921 0-7.87.268-11.79a.097.097 0 0 1 .031-.054.099.099 0 0 1 .157.036ZM211.842 49.026c.047.9-.019 1.802-.197 2.686a80.644 80.644 0 0 1-.457 2.856 114.8 114.8 0 0 1-1.146 5.684c0 .09-.152.081-.134 0 .334-1.897.632-3.801.895-5.711.125-.958.242-1.916.358-2.874.044-.908.188-1.809.43-2.686a.143.143 0 0 1 .251.045ZM203.812 48.876a7.169 7.169 0 0 1-.305 2.444c-.17.895-.331 1.728-.492 2.596-.322 1.728-.645 3.465-.895 5.202 0 .09-.152.08-.143 0 .259-1.79.492-3.581.761-5.318.134-.895.277-1.737.42-2.605.053-.805.25-1.593.582-2.328l.072.009Z" fill="#263238"/><path d="M239.379 88.641c-12.461 19.695-24.028 28.648-37.86 30.179-13.652 1.531-7.985-9.588-7.251-10.743 2.757-4.306 23.805-21.36 38.701-28.872 14.897-7.51 9.49 4.566 6.41 9.436Z" fill="#F7A9A0"/><path d="m216.856 89.132-4.584 3.483c-1.531 1.155-3.062 2.3-4.575 3.482-1.513 1.182-3.035 2.337-4.53 3.537-1.495 1.199-2.972 2.408-4.377 3.724a44.743 44.743 0 0 1 4.162-3.984c1.451-1.262 2.964-2.453 4.477-3.635 1.513-1.181 3.07-2.3 4.637-3.402a123.79 123.79 0 0 1 4.79-3.205ZM286.506 153.716h-50.572l.958-66.006a4.099 4.099 0 0 1 4.1-4.038h37.967a6.631 6.631 0 0 1 6.634 6.535l.913 63.509Z" fill="#263238"/><path d="M286.505 153.716h-50.026a2.603 2.603 0 0 1-2.596-2.74l2.891-55.648 48.72.358 1.011 58.03Z" fill="#37474F"/><path d="m247.24 153.716.663-58.388s.089-6.696-1.63-9.516c-1.011-1.656-7.565-2.086-8.558.51-.994 2.596-.896 7.064-.896 7.064l.081-6.07a3.697 3.697 0 0 1 3.697-3.644h38.97a6.267 6.267 0 0 1 6.267 6.16l.251 22.748a8.71 8.71 0 0 1 1.334 2.462c.662 9.847 1.02 28.952 1.137 35.979a2.686 2.686 0 0 1-2.686 2.686l-38.63.009Z" fill="#455A64"/><path d="M247.697 106.671c0 .895 0 1.924.707 2.48a4.64 4.64 0 0 0 2.542.608c1.791 0 3.635-.044 5.452-.062l10.913-.081 10.922.081 5.461.089c.434.061.876.034 1.298-.08a1.383 1.383 0 0 0 .744-.967c.205-.881.307-1.782.304-2.686.076.915.031 1.836-.134 2.739a1.59 1.59 0 0 1-.815 1.146 1.676 1.676 0 0 1-.716.161h-.681l-5.461.09-10.922.081-10.913-.063c-1.79-.045-3.634 0-5.47-.116a4.83 4.83 0 0 1-2.641-.806 1.863 1.863 0 0 1-.59-1.245 8.69 8.69 0 0 1 0-1.369Z" fill="#37474F"/><path d="M271.386 108.507h-7.627v3.912h7.627v-3.912Z" fill="#FFC727"/><path d="m241.333 120.246-2.918-.05-.058 3.357 2.918.05.058-3.357Z" fill="#DBDBDB"/><path d="m242.225 122.526-4.762-.082-.066 3.84 4.762.082.066-3.84Z" fill="#C7C7C7"/><path d="M245.36 131.157c-.054 3.482-.295 17.564-.295 17.564l-11.325-.197s.241-14.082.295-17.555c.054-3.474 2.292-6.124 5.766-6.061 3.473.062 5.622 2.775 5.559 6.249Z" fill="#FFC727"/><path opacity=".1" d="M245.36 131.157c-.054 3.482-.295 17.564-.295 17.564l-11.325-.197s.241-14.082.295-17.555c.054-3.474 2.292-6.124 5.766-6.061 3.473.062 5.622 2.775 5.559 6.249Z" fill="#000"/><path d="M239.174 126.206a.44.44 0 0 1-.076.249.44.44 0 0 1-.462.189.443.443 0 0 1-.349-.356.448.448 0 0 1 .619-.495.432.432 0 0 1 .238.242.457.457 0 0 1 .03.171ZM244.724 130.271a.436.436 0 0 1-.533.419.435.435 0 0 1-.307-.604.438.438 0 0 1 .84.185ZM239.711 130.628a.441.441 0 0 1-.279.414.445.445 0 0 1-.609-.332.45.45 0 0 1 .857-.252.45.45 0 0 1 .031.17ZM240.079 134.854a.44.44 0 0 1-.134.307.426.426 0 0 1-.145.092.445.445 0 0 1-.607-.417.448.448 0 1 1 .895 0l-.009.018ZM235.441 139.178a.45.45 0 0 1-.448.438.446.446 0 0 1-.311-.138.436.436 0 0 1-.119-.318.426.426 0 0 1 .133-.311.432.432 0 0 1 .482-.082.431.431 0 0 1 .233.242.443.443 0 0 1 .03.169ZM235.037 135.276a.447.447 0 0 1-.895 0 .444.444 0 0 1 .447-.439.432.432 0 0 1 .316.125.444.444 0 0 1 .132.314ZM235.252 131.094a.454.454 0 0 1-.279.415.453.453 0 0 1-.489-.101.452.452 0 0 1-.091-.491.443.443 0 0 1 .42-.27.454.454 0 0 1 .439.447ZM237.204 128.588a.445.445 0 0 1-.447.439.453.453 0 0 1-.311-.138.451.451 0 0 1-.119-.319.448.448 0 1 1 .895 0l-.018.018ZM237.571 132.975a.44.44 0 0 1-.871.068.438.438 0 0 1 .441-.516.43.43 0 0 1 .43.448ZM241.976 128.283a.454.454 0 0 1-.773.308.448.448 0 0 1 .317-.764.442.442 0 0 1 .424.28.426.426 0 0 1 .032.176ZM242.433 132.59a.431.431 0 0 1-.448.43.448.448 0 0 1-.438-.448.446.446 0 0 1 .138-.311.436.436 0 0 1 .318-.119.426.426 0 0 1 .311.132c.04.042.071.092.092.146.02.054.029.112.027.17ZM237.723 137.066a.448.448 0 1 1-.896 0 .448.448 0 0 1 .896 0ZM242.433 140.646a.441.441 0 0 1-.279.4.443.443 0 0 1-.479-.104.448.448 0 1 1 .767-.314l-.009.018ZM242.307 143.967a.437.437 0 0 1-.538.41.442.442 0 0 1-.333-.354.445.445 0 0 1 .197-.444.44.44 0 0 1 .674.388ZM237.939 140.646a.444.444 0 0 1-.279.4.437.437 0 0 1-.592-.332.44.44 0 0 1 .843-.238c.021.054.03.112.028.17ZM235.7 145.777a.448.448 0 1 1-.895 0 .444.444 0 0 1 .447-.438.432.432 0 0 1 .414.268.452.452 0 0 1 .034.17ZM240.257 138.704a.436.436 0 0 1-.533.419.435.435 0 0 1-.307-.604.439.439 0 0 1 .84.185ZM240.249 142.286a.447.447 0 1 1-.895 0 .447.447 0 0 1 .895 0ZM240.195 145.857a.456.456 0 0 1-.457.438.456.456 0 0 1-.247-.08.45.45 0 0 1 .178-.808.44.44 0 0 1 .258.031.442.442 0 0 1 .268.419ZM242.406 147.549a.45.45 0 0 1-.448.439.43.43 0 0 1-.31-.138.43.43 0 0 1-.119-.319.429.429 0 0 1 .447-.43.451.451 0 0 1 .308.135.442.442 0 0 1 .122.313ZM235.71 142.437a.448.448 0 1 1-.439-.448.43.43 0 0 1 .313.132.45.45 0 0 1 .126.316ZM237.885 144.039a.449.449 0 0 1-.448.439.448.448 0 0 1-.308-.137.453.453 0 0 1-.131-.31.448.448 0 1 1 .895 0l-.008.008ZM244.536 145.927a.45.45 0 0 1-.764.307.448.448 0 1 1 .764-.307ZM237.92 147.513a.448.448 0 1 1-.895 0 .448.448 0 0 1 .447-.438.432.432 0 0 1 .316.125.444.444 0 0 1 .132.313ZM244.724 138.899a.446.446 0 0 1-.538.439.45.45 0 0 1-.35-.357.447.447 0 0 1 .449-.529.457.457 0 0 1 .314.131.426.426 0 0 1 .094.146.43.43 0 0 1 .031.17ZM244.662 142.365a.447.447 0 0 1-.896 0 .449.449 0 0 1 .448-.439.439.439 0 0 1 .448.439ZM242.587 137.065a.45.45 0 0 1-.448.439.449.449 0 0 1-.316-.764.444.444 0 0 1 .316-.131.431.431 0 0 1 .422.279c.021.057.03.117.026.177ZM245.011 134.871a.425.425 0 0 1-.277.403.45.45 0 0 1-.17.027.435.435 0 0 1-.403-.278.446.446 0 0 1-.027-.17.447.447 0 0 1 .895 0l-.018.018Z" fill="#fff"/><path d="M232.728 149.222c2.534 3.519 12.927 2.937 13.59 1.558.277-.582 0-14.986 0-14.986s-8.953.832-13.796-.896c-.036-.035-.582 13.223.206 14.324Z" fill="#455A64"/><path d="M278.824 84.433h-35.219a5.726 5.726 0 0 1-4.054-1.675 5.713 5.713 0 0 1-1.675-4.054v-1.137a5.715 5.715 0 0 1 1.675-4.054 5.735 5.735 0 0 1 4.054-1.676h35.049a5.72 5.72 0 0 1 5.667 4.88l.17 1.136a5.733 5.733 0 0 1-5.667 6.58Z" fill="#FFC727"/><path opacity=".1" d="M242.146 82.67c1.745 0 3.16-2.065 3.16-4.611s-1.415-4.61-3.16-4.61-3.16 2.064-3.16 4.61c0 2.546 1.415 4.61 3.16 4.61Z" fill="#000"/><path d="M250.812 66.341c3.411 1.012 10.026 7.512 10.402 13.008.376 5.497-3.482 11.952-5.183 11.844-1.701-.107-7.216-3.795-9.973-8.191-2.757-4.396 3.071-17.117 4.754-16.66Z" fill="#263238"/><path d="M250.794 66.394c-.089-.081 0-.26.108-.198 2.685 1.406 5.049 3.886 7.162 6.017a17.518 17.518 0 0 1 4.324 5.89 8.192 8.192 0 0 1-.385 6.822 16.817 16.817 0 0 1-5.416 6.49c-.072 0-.18 0-.117-.107 3.68-3.76 7.753-8.576 5.013-14.037-2.273-4.665-6.92-7.583-10.689-10.877Z" fill="#263238"/><path d="M256.228 89.832c2.471 1.79 6.58 10.698 4.942 16.392-1.638 5.694-9.848 10.904-11.477 10.743-1.629-.161-4.798-8.281-4.745-12.901 0-3.079 2.588-5.3 4.691-7.735 3.107-3.616 6.204-6.777 6.589-6.5Z" fill="#263238"/><path d="M243.713 102.536c2.059-5.587 7.798-9.078 12.131-12.758.045-.044.107 0 .071.072-3.446 3.93-8.352 6.446-11.002 11.083a9.76 9.76 0 0 0-.779 8.952c1.164 2.57 3.286 4.611 5.13 6.697.116.134-.108.304-.224.17-3.751-4.011-7.457-8.451-5.327-14.216ZM256.523 90.628c-.098-.143.107-.304.206-.16 2.793 3.876 5.9 9.005 5.81 13.956-.107 5.371-4.709 8.487-8.729 11.155a.041.041 0 0 1-.015.007.037.037 0 0 1-.018.001.044.044 0 0 1-.016-.006.047.047 0 0 1-.013-.011.048.048 0 0 1-.008-.016c-.001-.006-.002-.012-.001-.017a.05.05 0 0 1 .006-.017.049.049 0 0 1 .012-.013c4.019-2.739 8.666-6.329 8.406-11.755-.206-4.664-3.026-9.408-5.64-13.124Z" fill="#263238"/><path d="M249.47 116.644c-2.283.126-6.401 2.095-8.675 5.542-3.903 5.9-5.738 3.581-13.429 2.166-6.517-1.19-10.742 4.826-9.015 9.472 0 0 0-4.861 4.835-5.085 5.792-.259 14.404 9.535 22.784 5.255 10.823-5.532 3.5-17.35 3.5-17.35Z" fill="#263238"/><path d="M245.655 118.472c.116-.054 0-.251-.09-.206a10.309 10.309 0 0 0-3.151 1.916c-1.191 1.083-1.871 2.533-2.981 3.679-2.82 2.927-6.983.895-10.134-.215-4.235-1.54-8.648-.51-10.824 3.697 0 .054.063.108.099.045a7.975 7.975 0 0 1 7.108-4.243c2.847.054 5.309 1.79 8.057 2.301 1.889.349 3.903.385 5.434-.896a15.451 15.451 0 0 0 2.059-2.578 11.198 11.198 0 0 1 4.423-3.5Z" fill="#263238"/><path d="M250.203 117.897c0-.044-.107 0-.089 0 1.298 3.331 2.73 6.724 1.906 10.376-.895 3.921-4.359 6.706-8.164 7.619-4.262 1.029-7.162-1.656-10.385-3.93-2.337-1.648-4.816-3.116-7.726-3.358-.09 0-.107.135 0 .153 4.476.895 7.645 3.733 11.343 6.15 3.017 1.978 6.078 1.987 9.301.394 7.082-3.474 7.091-11.101 3.814-17.404Z" fill="#263238"/><path d="M253.498 65.696a.898.898 0 1 1 .671 1.665.898.898 0 0 1-.671-1.665Z" fill="#FFC727"/><path d="M252.147 66.681a.899.899 0 1 1 .68 1.664.899.899 0 0 1-.68-1.664Z" fill="#FFC727"/><path d="M250.643 67.441a.898.898 0 1 1 .671 1.665.898.898 0 0 1-.671-1.665Z" fill="#FFC727"/><path d="M249.084 67.969a.899.899 0 1 1 .68 1.664.899.899 0 0 1-.68-1.664Z" fill="#FFC727"/><path d="M247.428 68.238a.9.9 0 0 1 1.17 1.18.897.897 0 0 1-1.468.286.908.908 0 0 1-.261-.638.905.905 0 0 1 .559-.828Z" fill="#FFC727"/><path d="M245.781 68.194a.898.898 0 1 1 .672 1.665.898.898 0 0 1-.672-1.665Z" fill="#FFC727"/></g></svg>