<svg width="33" height="32" viewBox="0 0 33 32" fill="none" xmlns="http://www.w3.org/2000/svg">
<path d="M20.9818 3.84692C21.0825 5.1616 20.6667 6.46374 19.8228 7.47681C19.4187 7.97942 18.9058 8.38378 18.3228 8.65944C17.7397 8.93511 17.1018 9.07488 16.4569 9.06824C16.4157 8.43603 16.4996 7.80191 16.7037 7.20213C16.9078 6.60235 17.228 6.04867 17.6462 5.57274C18.5015 4.59854 19.6925 3.98234 20.9818 3.84692Z" fill="#0D1634"/>
<path d="M23.3336 13.4154C22.9051 14.1704 22.6746 15.0214 22.6634 15.8894C22.6645 16.8657 22.9529 17.8201 23.4927 18.6336C24.0326 19.4471 24.7999 20.0837 25.6991 20.4641C25.3456 21.6125 24.8127 22.6979 24.1201 23.6799C23.19 25.0712 22.2149 26.4305 20.6671 26.4556C19.931 26.4726 19.4341 26.2609 18.9164 26.0403C18.3763 25.8103 17.8135 25.5705 16.9329 25.5705C15.9989 25.5705 15.4109 25.818 14.8438 26.0566C14.3538 26.2629 13.8793 26.4626 13.2107 26.4903C11.7366 26.5449 10.6102 25.0054 9.64627 23.6271C7.71976 20.8125 6.21965 15.6951 8.23076 12.2131C8.69504 11.3788 9.36752 10.679 10.1827 10.1819C10.9978 9.68477 11.9278 9.40727 12.8821 9.37643C13.7181 9.35924 14.5203 9.68145 15.2236 9.96395C15.7615 10.18 16.2415 10.3728 16.6346 10.3728C16.9802 10.3728 17.4468 10.1876 17.9906 9.97177C18.8473 9.63177 19.8955 9.21576 20.9636 9.32788C21.7822 9.3535 22.5836 9.56963 23.304 9.95913C24.0245 10.3486 24.6442 10.9007 25.114 11.5716C24.3745 12.0263 23.7621 12.6605 23.3336 13.4154Z" fill="#0D1634"/>
</svg>
