<svg width="33" height="32" viewBox="0 0 33 32" fill="none" xmlns="http://www.w3.org/2000/svg">
<path d="M14.1666 27.8667C8.49996 26.8667 4.16663 21.9333 4.16663 16C4.16663 9.4 9.56663 4 16.1666 4C22.7666 4 28.1666 9.4 28.1666 16C28.1666 21.9333 23.8333 26.8667 18.1666 27.8667L17.5 27.3333H14.8333L14.1666 27.8667Z" fill="#0D1634"/>
<path d="M20.8333 19.3333L21.3666 16H18.1666V13.6666C18.1666 12.7333 18.5 12 19.9666 12H21.5V8.93329C20.6333 8.79996 19.7 8.66663 18.8333 8.66663C16.1 8.66663 14.1666 10.3333 14.1666 13.3333V16H11.1666V19.3333H14.1666V27.8C14.8333 27.9333 15.5 28 16.1666 28C16.8333 28 17.5 27.9333 18.1666 27.8V19.3333H20.8333Z" fill="white"/>
</svg>
