<svg width="33" height="32" viewBox="0 0 33 32" fill="none" xmlns="http://www.w3.org/2000/svg">
<path fill-rule="evenodd" clip-rule="evenodd" d="M27.3799 16.2576C27.3799 15.454 27.3078 14.6813 27.1738 13.9395H16.4999V18.3234H22.5993C22.3366 19.7401 21.5381 20.9404 20.3378 21.744V24.5877H24.0005C26.1435 22.6146 27.3799 19.7092 27.3799 16.2576Z" fill="#0D1634"/>
<path fill-rule="evenodd" clip-rule="evenodd" d="M16.5 27.3333C19.56 27.3333 22.1254 26.3185 24.0006 24.5876L20.3379 21.7439C19.323 22.4239 18.0248 22.8258 16.5 22.8258C13.5481 22.8258 11.0497 20.8321 10.1584 18.1533H6.37207V21.0897C8.23692 24.7936 12.0697 27.3333 16.5 27.3333Z" fill="#0D1634"/>
<path fill-rule="evenodd" clip-rule="evenodd" d="M10.1585 18.1533C9.93179 17.4733 9.803 16.747 9.803 16C9.803 15.253 9.93179 14.5266 10.1585 13.8466V10.9103H6.37208C5.60451 12.4403 5.16663 14.1712 5.16663 16C5.16663 17.8288 5.60451 19.5597 6.37208 21.0897L10.1585 18.1533Z" fill="#0D1634"/>
<path fill-rule="evenodd" clip-rule="evenodd" d="M16.5 9.17421C18.1639 9.17421 19.6578 9.74603 20.8324 10.8691L24.083 7.61845C22.1203 5.78966 19.5548 4.66663 16.5 4.66663C12.0697 4.66663 8.23692 7.20633 6.37207 10.9103L10.1584 13.8466C11.0497 11.1678 13.5481 9.17421 16.5 9.17421Z" fill="#0D1634"/>
</svg>
