<svg width="343" height="417" viewBox="0 0 343 417" fill="none" xmlns="http://www.w3.org/2000/svg">
<mask id="mask0_322_9269" style="mask-type:alpha" maskUnits="userSpaceOnUse" x="0" y="0" width="343" height="417">
<rect width="342.246" height="417" rx="21" fill="black"/>
</mask>
<g mask="url(#mask0_322_9269)">
<path d="M174.269 156.429H100.993C100.993 156.429 104.628 151.684 108.648 151.058C108.648 151.058 116.463 127.781 129.543 127.638C141.7 127.486 146.552 141.962 146.552 141.962C146.552 141.962 152.183 135.471 157.564 138.435C162.944 141.398 165.997 149.894 165.997 149.894C165.997 149.894 172.076 153.179 174.269 156.429Z" fill="#EBEBEB"/>
<path d="M218.234 49.6909H168.459C168.459 49.6909 170.939 46.468 173.66 46.0651C173.66 46.0651 178.969 30.273 187.85 30.1566C196.113 30.0492 199.425 39.87 199.425 39.87C199.425 39.87 203.248 35.4654 206.91 37.4797C210.571 39.494 212.657 45.2594 212.657 45.2594C212.657 45.2594 216.739 47.4796 218.234 49.6909Z" fill="#EBEBEB"/>
<path d="M258.718 100.192H351.42C351.42 100.192 351.42 94.2743 338.654 93.1104C338.654 93.1104 327.016 67.2379 309.201 70.7293C298.118 72.8958 292.46 88.115 292.46 88.115C292.46 88.115 284.08 76.1366 277.384 78.4553C270.687 80.774 266.703 93.5223 266.703 93.5223C266.703 93.5223 259.765 96.8436 258.718 100.192Z" fill="#EBEBEB"/>
<path d="M7.24265 108.777H70.2589C70.2589 108.777 64.3145 103.244 61.6735 103.244C59.0325 103.244 51.3155 84.659 41.4589 85.4468C31.6022 86.2347 26.374 100.075 26.374 100.075C26.374 100.075 14.3867 96.3241 7.24265 108.777Z" fill="#EBEBEB"/>
<path d="M264.797 183.342H318.682C318.682 183.342 315.996 179.86 313.051 179.421C313.051 179.421 307.303 162.322 297.688 162.197C288.736 162.08 285.155 172.716 285.155 172.716C285.155 172.716 281.019 167.944 277.098 170.128C273.177 172.313 270.894 178.553 270.894 178.553C270.894 178.553 266.373 180.934 264.797 183.342Z" fill="#EBEBEB"/>
<path d="M-43.3108 261.3C-43.3108 261.3 -13.6693 241.452 -3.02484 240.924C7.61961 240.396 14.5309 243.538 21.9704 243.019C29.4099 242.5 65.4703 205.15 80.8864 204.944C96.3025 204.738 122.068 213.825 128.334 211.909C134.601 209.993 177.179 182.912 194.484 182.912C224.752 182.912 251.144 235.427 264.179 233.735C277.213 232.043 287.84 231.524 297.911 235.445C307.983 239.366 354.052 261.3 354.052 261.3H-43.3108Z" fill="#EBEBEB"/>
<path opacity="0.6" d="M79.9347 72.8903C92.9862 67.5375 99.2272 52.6178 93.8744 39.5663C88.5216 26.5148 73.6019 20.2738 60.5504 25.6266C47.4989 30.9794 41.2579 45.8991 46.6107 58.9506C51.9635 72.0021 66.8831 78.2431 79.9347 72.8903Z" fill="#FFC727"/>
<path d="M88.2938 56.7999C92.4559 46.8307 87.7482 35.3751 77.779 31.2131C67.8098 27.0511 56.3542 31.7587 52.1922 41.7279C48.0302 51.6971 52.7378 63.1527 62.707 67.3147C72.6762 71.4767 84.1318 66.7691 88.2938 56.7999Z" fill="#FFC727"/>
<path d="M-56.4523 261.298L-3.49862 261.074L49.4551 261.002L155.362 260.85L261.27 261.002L314.223 261.074L367.177 261.298L314.223 261.513L261.27 261.593L155.362 261.745L49.4551 261.593L-3.49862 261.513L-56.4523 261.298Z" fill="#263238"/>
<path d="M270.714 255.533C270.293 255.953 265.423 256.142 263.651 256.142C261.878 256.142 257.008 255.953 256.587 255.533C256.167 255.112 262.066 222.722 263.651 222.722C265.235 222.722 271.135 255.121 270.714 255.533Z" fill="#455A64"/>
<path d="M270.848 247.279C269.639 247.744 265.181 249.553 264.223 250.09C264.223 249.884 264.223 249.678 264.223 249.481C265.298 248.845 266.381 248.219 267.464 247.592C268.547 246.965 269.863 246.312 270.947 245.524C270.991 245.524 270.947 245.372 270.893 245.408C269.717 245.955 268.58 246.583 267.491 247.288C266.39 247.932 265.306 248.595 264.223 249.257C264.223 247.708 264.223 246.151 264.223 244.602C265.982 243.871 267.682 243.006 269.308 242.015C269.362 242.015 269.308 241.88 269.308 241.907C267.567 242.606 265.882 243.438 264.268 244.396C264.268 243.59 264.268 242.776 264.268 241.97C264.223 237.816 264.214 233.653 264.107 229.499C265.163 228.962 266.255 228.496 267.312 227.959C267.383 227.959 267.312 227.798 267.258 227.825C266.184 228.246 265.154 228.72 264.098 229.204C264.044 227.064 263.964 224.915 263.829 222.776C263.829 222.762 263.824 222.748 263.814 222.738C263.804 222.728 263.79 222.722 263.776 222.722C263.761 222.722 263.748 222.728 263.738 222.738C263.728 222.748 263.722 222.762 263.722 222.776C263.57 226.76 263.588 230.743 263.632 234.727C262.54 233.832 261.367 233.08 260.257 232.23C260.257 232.23 260.168 232.274 260.257 232.301C261.421 233.196 262.513 234.172 263.686 235.059C263.686 235.282 263.686 235.506 263.686 235.739C262.495 235.193 261.287 234.683 260.105 234.172C260.016 234.172 259.926 234.271 260.025 234.315C261.251 234.897 262.469 235.497 263.704 236.052C263.704 238.022 263.767 240 263.794 241.97C263.838 245.416 263.91 248.863 263.99 252.31C261.743 251.173 259.514 250.072 257.213 248.997C257.124 248.997 257.043 249.078 257.133 249.132C259.356 250.401 261.645 251.552 263.99 252.578C264.053 255.443 264.116 258.299 264.152 261.164C264.152 261.199 264.166 261.234 264.191 261.259C264.216 261.284 264.25 261.298 264.286 261.298C264.322 261.298 264.356 261.284 264.381 261.259C264.406 261.234 264.42 261.199 264.42 261.164C264.375 257.511 264.375 253.859 264.366 250.206C266.651 249.422 268.89 248.511 271.072 247.476C271 247.422 270.929 247.234 270.848 247.279Z" fill="#37474F"/>
<path d="M339.165 255.103C338.708 255.551 333.471 255.748 331.564 255.748C329.657 255.748 324.402 255.551 323.964 255.103C323.525 254.655 329.863 219.812 331.564 219.812C333.265 219.812 339.613 254.655 339.165 255.103Z" fill="#37474F"/>
<path d="M339.264 246.222C337.975 246.715 333.177 248.675 332.102 249.239V248.586L335.576 246.553C336.865 245.88 338.117 245.139 339.327 244.333C339.381 244.288 339.327 244.172 339.273 244.208C338.008 244.798 336.784 245.474 335.612 246.231C334.43 246.92 333.266 247.637 332.102 248.353C332.102 246.679 332.102 245.014 332.102 243.34C333.996 242.56 335.825 241.632 337.572 240.564C337.635 240.564 337.572 240.421 337.528 240.448C335.654 241.205 333.841 242.103 332.102 243.134C332.102 242.238 332.102 241.397 332.102 240.528C332.058 236.052 332.049 231.576 331.932 227.1C333.069 226.527 334.242 226.017 335.379 225.444C335.451 225.444 335.379 225.274 335.325 225.309C334.17 225.757 333.06 226.294 331.923 226.786C331.861 224.486 331.771 222.176 331.637 219.875C331.637 219.859 331.63 219.843 331.619 219.831C331.607 219.819 331.591 219.812 331.574 219.812C331.558 219.812 331.542 219.819 331.53 219.831C331.518 219.843 331.512 219.859 331.512 219.875C331.359 224.154 331.368 228.443 331.422 232.731C330.24 231.782 328.987 230.94 327.787 230.045C327.787 230.045 327.698 230.045 327.787 230.117C329.041 231.075 330.213 232.131 331.476 233.08C331.476 233.322 331.476 233.563 331.476 233.805C330.196 233.223 328.897 232.677 327.608 232.131C327.51 232.086 327.42 232.23 327.519 232.274C328.835 232.91 330.142 233.555 331.476 234.145C331.512 236.27 331.544 238.392 331.574 240.511C331.619 244.217 331.7 247.923 331.78 251.629C329.393 250.436 326.964 249.242 324.493 248.049C324.394 248.004 324.314 248.138 324.412 248.183C326.801 249.553 329.264 250.791 331.789 251.889C331.852 254.969 331.914 258.048 331.95 261.128C331.958 261.161 331.977 261.19 332.004 261.211C332.031 261.232 332.064 261.244 332.098 261.244C332.132 261.244 332.165 261.232 332.192 261.211C332.218 261.19 332.237 261.161 332.246 261.128C332.246 257.198 332.192 253.277 332.183 249.347C334.64 248.499 337.048 247.519 339.399 246.41C339.479 246.383 339.39 246.177 339.264 246.222Z" fill="#455A64"/>
<path d="M286.74 255.103C286.292 255.551 281.055 255.748 279.148 255.748C277.242 255.748 271.986 255.551 271.548 255.103C271.109 254.655 277.447 219.812 279.148 219.812C280.849 219.812 287.197 254.655 286.74 255.103Z" fill="#37474F"/>
<path d="M286.847 246.222C285.558 246.715 280.759 248.675 279.685 249.239V248.586L283.158 246.553C284.446 245.878 285.698 245.137 286.909 244.333C286.963 244.288 286.909 244.172 286.856 244.208C285.588 244.799 284.362 245.475 283.185 246.231C282.012 246.92 280.84 247.637 279.685 248.353V243.34C281.579 242.56 283.408 241.632 285.155 240.564C285.17 240.557 285.182 240.544 285.188 240.528C285.194 240.512 285.193 240.495 285.186 240.479C285.183 240.472 285.178 240.465 285.171 240.459C285.165 240.453 285.158 240.449 285.15 240.446C285.134 240.44 285.117 240.441 285.101 240.448C283.231 241.207 281.421 242.105 279.685 243.134C279.685 242.238 279.685 241.397 279.685 240.528C279.64 236.052 279.631 231.576 279.515 227.1C280.652 226.527 281.824 226.017 282.961 225.444C283.033 225.444 282.961 225.274 282.899 225.309C281.753 225.757 280.634 226.294 279.506 226.786C279.443 224.486 279.354 222.176 279.219 219.875C279.219 219.859 279.213 219.843 279.201 219.831C279.189 219.819 279.173 219.812 279.157 219.812C279.14 219.812 279.124 219.819 279.112 219.831C279.101 219.843 279.094 219.859 279.094 219.875C278.933 224.154 278.951 228.443 279.004 232.731C277.823 231.782 276.569 230.94 275.37 230.045C275.325 230.045 275.28 230.045 275.325 230.117C276.578 231.075 277.751 232.131 279.004 233.08C279.004 233.322 279.004 233.563 279.004 233.805C277.733 233.223 276.435 232.677 275.146 232.131C275.039 232.086 274.949 232.23 275.056 232.274C276.372 232.91 277.68 233.555 279.013 234.145C279.013 236.27 279.046 238.392 279.112 240.511C279.112 244.217 279.237 247.923 279.318 251.629C276.901 250.436 274.472 249.242 272.031 248.049C271.932 248.004 271.851 248.138 271.95 248.183C274.337 249.551 276.796 250.789 279.318 251.889C279.389 254.969 279.452 258.048 279.488 261.128C279.496 261.161 279.515 261.19 279.542 261.211C279.569 261.232 279.602 261.244 279.636 261.244C279.67 261.244 279.703 261.232 279.729 261.211C279.756 261.19 279.775 261.161 279.783 261.128C279.739 257.198 279.73 253.277 279.721 249.347C282.177 248.499 284.586 247.519 286.936 246.41C287.053 246.383 286.963 246.177 286.847 246.222Z" fill="#455A64"/>
<path d="M189.489 255.103C189.041 255.551 183.795 255.748 181.897 255.748C179.999 255.748 174.735 255.551 174.297 255.103C173.858 254.655 180.196 219.812 181.897 219.812C183.598 219.812 189.937 254.655 189.489 255.103Z" fill="#37474F"/>
<path d="M189.595 246.223C188.297 246.715 183.498 248.676 182.433 249.24C182.433 249.025 182.433 248.801 182.433 248.586L185.915 246.554C187.2 245.878 188.449 245.137 189.658 244.334C189.72 244.289 189.658 244.173 189.604 244.208C188.338 244.798 187.115 245.474 185.942 246.232C184.761 246.921 183.597 247.637 182.433 248.353C182.433 246.679 182.433 245.014 182.433 243.34C184.326 242.559 186.155 241.631 187.903 240.565C187.957 240.565 187.903 240.421 187.849 240.448C185.978 241.204 184.167 242.102 182.433 243.134C182.433 242.239 182.433 241.397 182.433 240.529C182.379 236.053 182.37 231.576 182.263 227.1C183.4 226.527 184.573 226.017 185.701 225.444C185.781 225.444 185.701 225.274 185.647 225.31C184.492 225.757 183.382 226.294 182.254 226.787C182.191 224.486 182.102 222.176 181.958 219.876C181.962 219.866 181.964 219.856 181.963 219.846C181.962 219.835 181.958 219.826 181.952 219.817C181.946 219.809 181.939 219.802 181.93 219.797C181.921 219.792 181.911 219.79 181.9 219.79C181.89 219.79 181.88 219.792 181.871 219.797C181.862 219.802 181.854 219.809 181.848 219.817C181.843 219.826 181.839 219.835 181.838 219.846C181.837 219.856 181.838 219.866 181.842 219.876C181.681 224.155 181.699 228.443 181.753 232.731C180.571 231.782 179.318 230.941 178.118 230.046C178.073 230.046 178.019 230.046 178.073 230.117C179.326 231.075 180.499 232.131 181.753 233.08C181.753 233.322 181.753 233.564 181.753 233.806C180.472 233.224 179.183 232.678 177.885 232.131C177.787 232.087 177.697 232.23 177.805 232.275C179.112 232.91 180.428 233.555 181.762 234.146C181.762 236.268 181.824 238.389 181.851 240.511C181.905 244.217 181.985 247.924 182.057 251.63C179.67 250.436 177.241 249.243 174.77 248.049C174.68 248.004 174.6 248.138 174.689 248.183C177.08 249.55 179.542 250.787 182.066 251.89C182.129 254.969 182.2 258.049 182.236 261.128C182.236 261.316 182.531 261.316 182.522 261.128C182.522 257.198 182.522 253.277 182.469 249.347C184.925 248.498 187.334 247.518 189.684 246.411C189.801 246.384 189.72 246.178 189.595 246.223Z" fill="#455A64"/>
<path d="M316.811 256.966C317.134 257.279 320.795 257.422 322.12 257.422C323.445 257.422 327.116 257.279 327.429 256.966C327.742 256.652 323.311 232.311 322.12 232.311C320.93 232.311 316.507 256.652 316.811 256.966Z" fill="#455A64"/>
<path d="M316.739 250.762C317.635 251.111 321.001 252.472 321.726 252.875V252.419L319.291 250.995C318.391 250.524 317.519 250.004 316.677 249.437C316.677 249.437 316.677 249.33 316.677 249.357C317.563 249.766 318.419 250.239 319.237 250.771C320.061 251.255 320.875 251.747 321.69 252.248C321.69 251.085 321.69 249.921 321.69 248.748C320.365 248.205 319.087 247.555 317.867 246.805C317.823 246.805 317.867 246.707 317.867 246.725C319.175 247.252 320.441 247.878 321.654 248.596C321.654 247.987 321.654 247.378 321.654 246.805C321.654 243.69 321.699 240.539 321.771 237.432C320.983 237.029 320.159 236.68 319.362 236.277C319.318 236.277 319.362 236.161 319.407 236.179C320.213 236.492 320.992 236.868 321.78 237.217C321.824 235.606 321.887 233.994 321.986 232.383H322.066C322.183 235.373 322.165 238.372 322.129 241.335C322.952 240.682 323.83 240.1 324.671 239.464C324.671 239.464 324.734 239.464 324.671 239.518C323.776 240.181 322.979 240.924 322.102 241.586C322.102 241.756 322.102 241.926 322.102 242.096C322.997 241.685 323.892 241.309 324.788 240.924C324.859 240.924 324.922 240.995 324.85 241.022C323.955 241.47 323.015 241.917 322.084 242.329C322.084 243.815 322.039 245.301 322.021 246.805C322.021 249.402 321.923 251.989 321.869 254.576C323.552 253.681 325.253 252.893 326.963 252.096C327.026 252.096 327.088 252.15 327.026 252.186C325.354 253.142 323.633 254.008 321.869 254.782C321.824 256.931 321.78 259.079 321.753 261.237C321.753 261.362 321.547 261.362 321.547 261.237C321.547 258.488 321.547 255.749 321.592 253C319.873 252.408 318.188 251.723 316.542 250.95C316.596 250.87 316.65 250.762 316.739 250.762Z" fill="#37474F"/>
<path d="M166.034 256.966C166.348 257.279 170.009 257.422 171.343 257.422C172.677 257.422 176.339 257.279 176.652 256.966C176.965 256.652 172.525 232.311 171.343 232.311C170.161 232.311 165.712 256.652 166.034 256.966Z" fill="#455A64"/>
<path d="M165.953 250.762C166.848 251.111 170.214 252.472 170.939 252.875V252.419C170.134 251.935 169.319 251.47 168.504 250.995C167.605 250.524 166.732 250.004 165.89 249.437C165.89 249.437 165.89 249.33 165.89 249.357C166.776 249.766 167.632 250.239 168.451 250.771C169.274 251.255 170.089 251.747 170.904 252.248C170.904 251.085 170.904 249.921 170.904 248.748C169.579 248.205 168.3 247.555 167.081 246.805C167.081 246.805 167.081 246.707 167.081 246.725C168.388 247.252 169.654 247.878 170.868 248.596C170.868 247.987 170.868 247.378 170.868 246.805C170.868 243.69 170.912 240.539 170.993 237.432C170.196 237.029 169.373 236.68 168.585 236.277C168.531 236.277 168.585 236.161 168.585 236.179C169.391 236.492 170.169 236.868 170.957 237.217C171.002 235.606 171.065 233.994 171.163 232.383H171.244C171.36 235.373 171.351 238.372 171.306 241.335C172.13 240.682 173.007 240.1 173.849 239.464C173.849 239.464 173.912 239.464 173.849 239.518C172.954 240.181 172.148 240.924 171.271 241.586C171.271 241.756 171.271 241.926 171.271 242.096C172.166 241.685 173.061 241.309 173.956 240.924C174.028 240.924 174.091 240.995 174.019 241.022C173.124 241.47 172.184 241.917 171.253 242.329C171.253 243.815 171.208 245.301 171.19 246.805C171.154 249.402 171.103 251.992 171.038 254.576C172.73 253.681 174.422 252.893 176.132 252.096C176.203 252.096 176.257 252.15 176.194 252.186C174.524 253.143 172.802 254.01 171.038 254.782C171.038 256.931 170.948 259.079 170.921 261.237C170.915 261.259 170.901 261.278 170.883 261.292C170.864 261.306 170.842 261.313 170.819 261.313C170.795 261.313 170.773 261.306 170.754 261.292C170.736 261.278 170.722 261.259 170.716 261.237C170.716 258.488 170.716 255.749 170.716 253C168.997 252.408 167.312 251.723 165.666 250.95C165.81 250.87 165.872 250.762 165.953 250.762Z" fill="#37474F"/>
<path d="M283.282 256.966C283.595 257.279 287.257 257.422 288.591 257.422C289.925 257.422 293.586 257.279 293.899 256.966C294.213 256.652 289.772 232.311 288.591 232.311C287.409 232.311 282.969 256.652 283.282 256.966Z" fill="#455A64"/>
<path d="M283.212 250.762C284.107 251.111 287.464 252.472 288.189 252.875V252.418C287.384 251.935 286.569 251.469 285.763 250.995C284.86 250.526 283.984 250.006 283.14 249.437C283.14 249.437 283.14 249.33 283.14 249.357C284.027 249.766 284.882 250.239 285.701 250.771C286.524 251.254 287.348 251.747 288.154 252.248C288.154 251.084 288.154 249.921 288.154 248.748C286.829 248.205 285.55 247.555 284.331 246.805C284.331 246.805 284.331 246.707 284.331 246.724C285.638 247.252 286.904 247.878 288.118 248.596C288.118 247.987 288.118 247.378 288.118 246.805C288.118 243.69 288.118 240.538 288.234 237.432C287.437 237.029 286.623 236.68 285.826 236.277C285.772 236.277 285.826 236.161 285.826 236.179C286.632 236.492 287.411 236.868 288.207 237.217C288.207 235.606 288.306 233.994 288.404 232.383C288.404 232.329 288.485 232.329 288.485 232.383C288.601 235.373 288.592 238.372 288.557 241.335C289.38 240.682 290.257 240.1 291.09 239.464C291.09 239.464 291.153 239.464 291.09 239.518C290.195 240.18 289.389 240.923 288.512 241.586V242.096C289.407 241.684 290.302 241.308 291.197 240.923C291.269 240.923 291.332 240.995 291.26 241.022C290.365 241.469 289.425 241.917 288.494 242.329C288.494 243.815 288.449 245.301 288.431 246.805C288.431 249.401 288.342 251.989 288.288 254.576C289.971 253.681 291.672 252.893 293.382 252.096C293.388 252.09 293.395 252.086 293.402 252.083C293.41 252.081 293.418 252.08 293.426 252.081C293.434 252.082 293.442 252.085 293.449 252.089C293.456 252.094 293.461 252.1 293.466 252.107C293.47 252.114 293.472 252.121 293.473 252.129C293.474 252.138 293.473 252.146 293.47 252.153C293.467 252.161 293.462 252.168 293.456 252.173C293.45 252.179 293.443 252.183 293.436 252.185C291.766 253.145 290.044 254.012 288.279 254.782C288.234 256.93 288.189 259.079 288.163 261.236C288.156 261.259 288.142 261.278 288.124 261.292C288.105 261.306 288.083 261.313 288.06 261.313C288.037 261.313 288.014 261.306 287.995 261.292C287.977 261.278 287.963 261.259 287.957 261.236C287.957 258.488 287.957 255.749 288.001 253C286.287 252.406 284.604 251.722 282.961 250.95C283.06 250.869 283.122 250.762 283.212 250.762Z" fill="#37474F"/>
<path d="M236.237 330.438C240.033 340.814 367.9 348.531 367.9 361.261C367.9 371.628 289.387 379.855 279.325 390.339C269.262 400.822 261.42 416.775 261.42 416.775H379.171V255.013C379.171 255.013 309.486 262.614 296.164 274.431C282.843 286.248 320.569 286.535 320.569 295.568C320.569 302.855 295.949 303.016 283.049 306.571C260.507 312.775 233.157 321.996 236.237 330.438Z" fill="#455A64"/>
<path d="M377.588 274.87C375.994 277.251 371.634 281.137 365.95 284.1C360.265 287.063 348.68 296.007 346.004 298.424C343.327 300.841 323.076 306.759 318.654 306.598C314.231 306.436 288.654 305.344 283.023 306.598C295.924 303.017 320.543 302.882 320.543 295.595C320.543 288.693 298.52 286.893 294.07 281.164C294.393 281.244 299.693 282.695 304.697 284.431C309.862 286.222 338.26 289.489 342.127 287.788C345.995 286.088 355.233 280.259 360.292 277.278C365.35 274.297 379.172 272.489 377.588 274.87Z" fill="#37474F"/>
<path d="M122.909 417.276C122.909 417.276 121.772 404.081 88.9883 383.687C56.2045 363.293 39.4993 355.478 40.6452 341.261C42.1671 321.817 128.71 313.41 184.412 305.371C222.013 299.946 246.408 296.812 246.408 287.833C246.408 278.308 204.099 274.019 204.099 267.475C204.099 259.946 302.397 261.298 302.397 261.298C302.397 261.298 202.926 256.32 181.539 256.32C160.151 256.32 119.015 234.647 99.5522 232.301C80.0896 229.956 69.4183 237.109 48.0578 236.437C26.6973 235.766 14.4682 215.676 -13.3291 208.505C-41.1264 201.335 -68.4493 229.92 -68.4493 229.92V417.276H122.909Z" fill="#455A64"/>
<path d="M60.8051 366.248C45.3442 359.713 3.24092 353.831 -7.86011 344.861C-18.9611 335.891 -29.4534 317.905 -31.4587 313.948C-33.4641 309.991 -5.86371 301.173 -1.30692 297.001C3.24987 292.829 33.2316 309.373 41.7633 312.319C50.2949 315.264 97.537 315.461 102.3 315.264C107.062 315.067 116.453 314.816 116.928 314.799C76.9643 320.985 41.5663 328.89 40.5994 341.262C39.8743 350.564 46.7766 357.117 60.8051 366.248Z" fill="#37474F"/>
<path d="M129.694 295.415C129.139 297.25 106.472 293.83 102.703 290.455C98.9338 287.08 93.7504 282.12 92.9805 280.133C92.2106 278.146 103.5 282.12 106.472 284.099C109.444 286.077 119.175 288.074 122.353 289.658C125.532 291.243 129.999 294.412 129.694 295.415Z" fill="#37474F"/>
<path d="M-68.4493 417.278C-68.4493 417.278 -42.4872 394.315 -30.5536 385.514C-22.8634 379.865 24.7725 379.176 31.1198 377.69C37.467 376.204 59.1499 362.65 74.0915 354.619C89.0331 346.589 145.12 351.746 155.344 351.593C165.568 351.441 179.086 339.812 195.63 335.828C228.423 327.941 274.411 336.007 283.641 339.642C309.863 349.937 314.599 378.281 348.994 386.589C358.475 388.88 374.428 407.886 379.164 417.278H-68.4493Z" fill="#37474F"/>
<path opacity="0.5" d="M124.922 417.277H-5.86395C-5.86395 417.277 43.285 399.525 52.2016 390.993C61.1182 382.461 50.796 378.88 54.1711 372.775C57.5462 366.669 77.161 355.076 89.0856 351.038C111.583 348.612 147.384 351.719 155.334 351.602C156.342 351.578 157.345 351.464 158.333 351.262C145.28 357.009 116.525 369.113 119.757 372.614C122.022 375.058 136.355 382.658 154.071 381.736C164 381.226 161.869 391.253 162.433 395.648C163.704 405.326 124.922 417.277 124.922 417.277Z" fill="#263238"/>
<path opacity="0.5" d="M323.667 396.543C321.876 393.857 309.065 395.2 286.962 398.127C264.858 401.055 243.784 398.19 248.377 395.092C251.618 392.908 280.409 392.192 286.962 389.909C293.515 387.626 308.519 386.999 314.473 383.687C320.426 380.375 312.843 365.684 306.594 356.588C317.49 368.226 327.382 381.359 349.002 386.588C358.483 388.879 374.436 407.886 379.172 417.277H202.648C202.648 417.277 251.949 413.069 263.703 412.093C275.458 411.117 325.457 399.22 323.667 396.543Z" fill="#263238"/>
<path d="M147.107 71.1678C146.467 70.8235 145.802 70.5243 145.12 70.2726C144.424 70.0061 143.695 69.8374 142.953 69.7712C142.727 69.7523 142.499 69.7766 142.282 69.8429C142.208 69.8699 142.136 69.9029 142.067 69.9413L141.942 70.0398C141.861 70.0981 141.783 70.1609 141.709 70.2278C141.43 70.4798 141.164 70.7457 140.912 71.0246C140.429 71.5796 140.017 72.1526 139.56 72.7345L140.098 72.5465C139.369 72.3416 138.627 72.1861 137.877 72.081C137.494 72.0309 137.109 72.004 136.723 72.0004C136.517 71.9833 136.31 71.9833 136.105 72.0004C135.996 72.0198 135.888 72.0468 135.783 72.081C135.667 72.1208 135.556 72.1718 135.451 72.2332C135.109 72.4628 134.806 72.7471 134.556 73.0747C134.322 73.3611 134.104 73.6599 133.903 73.9699C133.505 74.5997 133.161 75.2615 132.873 75.9484C133.347 75.3844 133.768 74.8115 134.296 74.2654C134.528 73.9936 134.776 73.7365 135.039 73.4955C135.268 73.2552 135.53 73.0501 135.818 72.8867C136.107 72.7921 136.412 72.7615 136.714 72.7972C137.059 72.8241 137.403 72.872 137.743 72.9404C138.441 73.0657 139.149 73.2358 139.829 73.4238L140.178 73.5134L140.375 73.2358C140.769 72.6629 141.199 72.0989 141.637 71.5528C141.844 71.2843 142.065 71.0273 142.3 70.7829C142.363 70.7292 142.416 70.6665 142.47 70.6307L142.551 70.5591C142.669 70.5066 142.797 70.4791 142.927 70.4785C143.615 70.48 144.301 70.5459 144.977 70.6754C145.702 70.8903 146.409 71.0335 147.107 71.1678Z" fill="#263238"/>
<path d="M139.248 92.3039C138.396 91.6442 137.499 91.0459 136.562 90.5135C135.612 89.9252 134.589 89.4646 133.518 89.1437C133.19 89.0509 132.846 89.0205 132.507 89.0542C132.393 89.0683 132.281 89.0984 132.175 89.1437L131.952 89.2422C131.814 89.3066 131.679 89.3783 131.549 89.4571C131.068 89.7433 130.605 90.0572 130.161 90.3971C129.266 91.0596 128.478 91.7757 127.663 92.5098L128.514 92.3935C127.504 91.8775 126.46 91.4318 125.389 91.0596C124.843 90.8674 124.284 90.7148 123.715 90.603C123.42 90.5415 123.121 90.5025 122.82 90.4866C122.65 90.4735 122.48 90.4735 122.31 90.4866C122.131 90.4866 121.952 90.5761 121.773 90.6209C121.216 90.8704 120.7 91.2024 120.242 91.6057C119.812 91.9705 119.402 92.359 119.015 92.7695C118.248 93.5804 117.548 94.4516 116.92 95.3746C117.816 94.6763 118.63 93.9691 119.508 93.3156C119.937 92.9933 120.403 92.671 120.824 92.4203C121.232 92.1378 121.678 91.9148 122.149 91.7578C122.585 91.7042 123.028 91.747 123.447 91.8832C123.95 92.0211 124.443 92.1916 124.924 92.3935C125.909 92.7784 126.902 93.244 127.851 93.7095L128.326 93.9512L128.702 93.5931C129.454 92.868 130.251 92.1697 131.038 91.4982C131.441 91.158 131.844 90.8357 132.247 90.5582L132.542 90.3702L132.686 90.2986C132.686 90.2986 132.686 90.2986 132.739 90.2986C132.932 90.2669 133.129 90.2669 133.321 90.2986C134.33 90.5 135.317 90.7998 136.267 91.1938C137.296 91.4893 138.281 91.91 139.248 92.3039Z" fill="#263238"/>
<path d="M12.9196 43.389C12.347 42.965 11.7491 42.5764 11.1292 42.2252C10.4838 41.8402 9.79183 41.5393 9.0701 41.3299C8.8449 41.2919 8.61491 41.2919 8.38972 41.3299C8.31621 41.3437 8.24424 41.3647 8.17485 41.3926L8.02266 41.4732L7.76304 41.6164C7.45229 41.8201 7.15339 42.0413 6.8678 42.2789C6.29484 42.7355 5.76665 43.2368 5.24741 43.7381L5.81141 43.6397C5.12521 43.3234 4.41952 43.0513 3.69863 42.825C3.32878 42.7114 2.952 42.6217 2.57063 42.5564C2.3671 42.5165 2.16031 42.4955 1.95291 42.4938C1.84266 42.4852 1.73191 42.4852 1.62167 42.4938C1.50017 42.5183 1.38052 42.5512 1.26357 42.5922C0.89588 42.7691 0.557673 43.0016 0.260897 43.2816C-0.0180227 43.5366 -0.283947 43.8055 -0.53587 44.0873C-1.02608 44.6488 -1.47205 45.2474 -1.86978 45.8778C-1.30578 45.3944 -0.759683 44.902 -0.195679 44.4454C0.0907987 44.2216 0.377277 43.9978 0.699565 43.8008C0.974511 43.6042 1.27592 43.4474 1.59481 43.3353C1.89342 43.2848 2.19963 43.3031 2.49005 43.389C2.82819 43.4702 3.16023 43.5749 3.48377 43.7023C4.14626 43.9351 4.81769 44.2216 5.46226 44.517L5.78455 44.6602L6.02627 44.4185C6.5097 43.9172 7.02894 43.4338 7.54818 42.9682C7.79885 42.7355 8.06743 42.5117 8.32705 42.3147L8.524 42.1894L8.61353 42.1357C8.74076 42.1121 8.87125 42.1121 8.99848 42.1357C9.67633 42.2478 10.3419 42.4246 10.9859 42.6639C11.5678 42.8877 12.2393 43.1473 12.9196 43.389Z" fill="#263238"/>
<path d="M30.6469 40.524C30.036 39.6302 29.3629 38.7806 28.6326 37.9815C27.9052 37.1336 27.0647 36.3895 26.1348 35.7703C25.8489 35.5833 25.5298 35.4527 25.1948 35.3853C25.0822 35.3668 24.9673 35.3668 24.8547 35.3853H24.6129C24.462 35.4056 24.3125 35.4355 24.1653 35.4748C23.6194 35.605 23.0813 35.7664 22.5539 35.9583C21.5243 36.3343 20.5396 36.7729 19.5459 37.2385L20.3874 37.3727C19.5826 36.5797 18.7208 35.8467 17.8091 35.1794C17.3382 34.8516 16.8479 34.5526 16.3409 34.2842C16.0702 34.1378 15.7889 34.0121 15.4993 33.9081C15.339 33.8505 15.1744 33.8057 15.007 33.7739C14.8252 33.7603 14.6426 33.7603 14.4609 33.7739C13.8425 33.8353 13.238 33.9955 12.6704 34.2483C12.1422 34.4722 11.6409 34.7318 11.1485 35.0003C10.1955 35.5326 9.28289 36.134 8.41797 36.7998C9.4475 36.3969 10.4681 35.9672 11.4976 35.6091C11.9954 35.417 12.5035 35.2527 13.0195 35.1167C13.4922 34.9681 13.9834 34.8867 14.4788 34.875C14.911 34.9559 15.3203 35.1301 15.6784 35.3853C16.1181 35.6561 16.5398 35.9551 16.9407 36.2805C17.7733 36.943 18.579 37.6771 19.3489 38.4112L19.7339 38.7783L20.1815 38.5903C21.0767 38.1248 22.0883 37.695 23.0463 37.2832C23.5106 37.0784 23.9858 36.899 24.4697 36.7461L24.8099 36.6565H24.9621C24.9621 36.6565 24.9621 36.6565 25.0247 36.6565C25.2187 36.6784 25.4069 36.7361 25.5798 36.8266C26.4812 37.3235 27.3353 37.9019 28.1312 38.5545C28.9907 39.1543 29.8054 39.8436 30.6469 40.524Z" fill="#263238"/>
<path d="M164.583 87.122C163.972 86.2283 163.299 85.3787 162.569 84.5795C161.841 83.7316 161.001 82.9876 160.071 82.3683C159.799 82.1865 159.495 82.056 159.176 81.9833C159.063 81.9648 158.948 81.9648 158.836 81.9833H158.594C158.443 82.0036 158.293 82.0335 158.146 82.0729C157.6 82.2031 157.062 82.3645 156.535 82.5563C155.505 82.9323 154.521 83.371 153.527 83.8365L154.368 83.9708C153.564 83.1778 152.702 82.4447 151.79 81.7774C151.319 81.4496 150.829 81.1506 150.322 80.8822C150.051 80.7358 149.77 80.6101 149.48 80.5062C149.32 80.4486 149.155 80.4037 148.988 80.3719C148.806 80.3583 148.624 80.3583 148.442 80.3719C147.824 80.4333 147.219 80.5935 146.651 80.8464C146.123 81.0702 145.622 81.3298 145.13 81.5984C144.162 82.1492 143.238 82.7716 142.363 83.4605C143.393 83.0576 144.413 82.6279 145.443 82.2698C145.944 82.0774 146.455 81.913 146.974 81.7774C147.446 81.6288 147.938 81.5474 148.433 81.5357C148.865 81.6166 149.275 81.7908 149.633 82.046C150.072 82.3168 150.494 82.6158 150.895 82.9412C151.727 83.6037 152.533 84.3378 153.303 85.0719L153.688 85.439L154.145 85.2062C155.04 84.7407 156.051 84.311 157.009 83.8992C157.474 83.6943 157.949 83.515 158.433 83.362L158.773 83.2725H158.925C158.925 83.2725 158.925 83.2725 158.988 83.2725C159.182 83.2943 159.37 83.352 159.543 83.4426C160.444 83.9395 161.298 84.5178 162.094 85.1704C162.927 85.7523 163.742 86.4417 164.583 87.122Z" fill="#263238"/>
<path d="M282.12 293.321L283.14 333.607C283.14 341.046 282.961 347.573 282.567 350.939C282.571 350.956 282.571 350.975 282.567 350.993C282.557 351.788 282.367 352.572 282.012 353.284C282.012 353.284 282.012 353.329 282.012 353.338C279.792 354.824 220.33 356.373 218.235 355.728C216.14 355.084 217.814 349.068 220.079 347.17C222.344 345.272 244.851 334.493 244.851 334.493L244.197 294.261L282.12 293.321Z" fill="#F7A9A0"/>
<path d="M283.203 325.612C283.203 325.612 283.14 333.571 283.14 333.598C283.14 341.037 282.961 347.564 282.567 350.93C282.571 350.947 282.571 350.966 282.567 350.984C282.47 351.766 282.284 352.535 282.012 353.275C282.012 353.275 282.012 353.32 282.012 353.329C279.792 354.815 220.33 356.364 218.235 355.719C216.14 355.075 217.814 349.059 220.079 347.161C222.344 345.263 244.851 334.484 244.851 334.484V326.427L283.203 325.612Z" fill="white"/>
<path d="M241.152 334.512C245.109 333.858 249.916 334.565 252.871 337.439C252.987 337.547 252.826 337.708 252.701 337.672C248.958 336.367 245.086 335.466 241.152 334.986C241.102 334.969 241.059 334.937 241.029 334.895C240.999 334.852 240.982 334.801 240.982 334.749C240.982 334.697 240.999 334.646 241.029 334.603C241.059 334.561 241.102 334.529 241.152 334.512Z" fill="#263238"/>
<path d="M238.261 336.159C242.227 335.514 247.035 336.221 249.989 339.095C250.106 339.202 249.944 339.364 249.819 339.319C246.075 338.018 242.204 337.117 238.27 336.633C238.221 336.617 238.177 336.586 238.146 336.544C238.114 336.502 238.097 336.451 238.096 336.399C238.095 336.347 238.111 336.295 238.14 336.252C238.17 336.209 238.212 336.176 238.261 336.159Z" fill="#263238"/>
<path d="M235.378 337.816C239.344 337.171 244.152 337.878 247.106 340.752C247.223 340.859 247.061 341.021 246.936 340.976C243.194 339.67 239.322 338.77 235.387 338.29C235.338 338.274 235.294 338.243 235.263 338.201C235.231 338.159 235.214 338.108 235.213 338.056C235.212 338.004 235.228 337.952 235.257 337.909C235.287 337.866 235.329 337.833 235.378 337.816Z" fill="#263238"/>
<path d="M218.18 355.72C220.275 356.364 279.737 354.825 281.958 353.33C282.853 352.775 283.095 344.091 283.13 333.634V333.303L244.76 333.876V334.52C244.76 334.52 222.272 345.263 219.998 347.197C217.724 349.131 216.086 355.084 218.18 355.72Z" fill="#263238"/>
<path d="M283.14 333.268V333.608C283.095 344.091 282.818 352.775 281.959 353.303C280.956 353.984 268.064 354.673 254.134 355.165C237.474 355.756 219.318 356.061 218.181 355.703C216.086 355.058 217.77 349.033 220.026 347.135C222.282 345.237 244.788 334.458 244.788 334.458V333.814L257.581 333.626L283.14 333.268Z" fill="#FFC727"/>
<path d="M218.79 353.4C228.808 352.89 269.255 351.798 279.201 352.057C279.282 352.057 279.282 352.111 279.201 352.12C269.282 352.836 228.826 353.606 218.799 353.561C218.584 353.561 218.584 353.409 218.79 353.4Z" fill="#263238"/>
<path opacity="0.1" d="M257.554 333.651C256.659 340.079 255.191 349.551 254.134 355.191C237.474 355.782 219.318 356.086 218.181 355.728C216.086 355.083 217.77 349.058 220.026 347.16C222.282 345.263 244.788 334.484 244.788 334.484V333.839L257.554 333.651Z" fill="black"/>
<path d="M286.594 317.904L243.56 318.316C243.56 318.316 241.125 264.198 240.937 240.833C240.686 209.159 240.82 209.168 242.235 134.093H274.428C274.428 134.093 278.662 145.131 279.638 155.203C280.095 159.876 278.635 164.603 278.125 166.608L276.764 243.008L286.594 317.904Z" fill="#FFC727"/>
<path d="M286.594 317.904L243.56 318.316C243.56 318.316 241.125 264.198 240.937 240.833C240.686 209.159 240.82 209.168 242.235 134.093H274.428C274.428 134.093 278.662 145.131 279.638 155.203C280.095 159.876 278.635 164.603 278.125 166.608L276.764 243.008L286.594 317.904Z" fill="#0064D2"/>
<path d="M283.38 310.339C282.243 310.191 281.098 310.102 279.952 310.071C278.68 309.981 277.409 309.883 276.138 309.829C273.685 309.73 271.241 309.686 268.788 309.677C263.846 309.677 258.94 309.677 253.972 309.847C251.161 309.936 248.35 310.053 245.547 310.214C245.53 310.22 245.514 310.231 245.503 310.246C245.492 310.262 245.486 310.28 245.486 310.299C245.486 310.318 245.492 310.336 245.503 310.351C245.514 310.367 245.53 310.378 245.547 310.384C250.444 310.563 255.395 310.644 260.247 310.733C265.1 310.823 270.05 310.93 274.938 310.832C276.344 310.832 277.749 310.832 279.146 310.715C280.543 310.599 281.984 310.715 283.363 310.509C283.47 310.5 283.506 310.366 283.38 310.339Z" fill="#263238"/>
<path d="M245.476 252.847C244.841 229.661 244.68 201.487 244.975 178.3C245.136 165.284 245.485 157.262 245.87 144.281C245.87 144.129 245.647 144.138 245.647 144.281C244.671 162.589 243.946 185.91 243.919 214.2C243.919 237.396 247.025 293.733 248.001 306.714C248.001 307.26 248.359 306.902 248.35 306.786C247.831 295.067 245.781 264.432 245.476 252.847Z" fill="#263238"/>
<path d="M236.085 299.713C236.085 299.713 235.754 338.621 235.754 338.648C235.754 346.087 235.584 352.613 235.181 355.979C235.185 355.988 235.188 355.997 235.188 356.006C235.188 356.016 235.185 356.025 235.181 356.033C235.17 356.829 234.98 357.612 234.626 358.325L234.581 358.37C232.361 359.865 172.89 361.414 170.804 360.769C168.718 360.124 170.383 354.108 172.639 352.21C174.895 350.313 197.437 339.534 197.437 339.534L198.135 300.644L236.085 299.713Z" fill="#F7A9A0"/>
<path d="M235.825 330.663C235.825 330.663 235.754 338.621 235.754 338.648C235.754 346.088 235.584 352.614 235.181 355.98C235.185 355.988 235.188 355.998 235.188 356.007C235.188 356.016 235.185 356.026 235.181 356.034C235.083 356.816 234.897 357.585 234.626 358.326L234.581 358.37C232.361 359.865 172.89 361.414 170.804 360.77C168.718 360.125 170.383 354.109 172.639 352.211C174.895 350.313 197.437 339.534 197.437 339.534V331.424L235.825 330.663Z" fill="white"/>
<path d="M193.766 339.552C197.732 338.907 202.54 339.614 205.494 342.488C205.61 342.596 205.449 342.757 205.324 342.712C201.581 341.407 197.71 340.506 193.775 340.026C193.725 340.01 193.682 339.979 193.65 339.937C193.619 339.895 193.602 339.845 193.601 339.792C193.6 339.74 193.615 339.689 193.645 339.645C193.675 339.602 193.717 339.57 193.766 339.552Z" fill="#263238"/>
<path d="M190.885 341.181C194.851 340.527 199.658 341.244 202.613 344.117C202.729 344.225 202.613 344.386 202.443 344.341C198.7 343.036 194.828 342.135 190.894 341.655C190.844 341.639 190.8 341.608 190.769 341.566C190.738 341.524 190.721 341.474 190.72 341.421C190.719 341.369 190.734 341.318 190.764 341.275C190.793 341.231 190.836 341.199 190.885 341.181Z" fill="#263238"/>
<path d="M188.001 342.865C191.958 342.212 196.775 342.919 199.729 345.802C199.846 345.909 199.684 346.07 199.559 346.026C195.817 344.72 191.945 343.82 188.01 343.34C187.961 343.324 187.917 343.293 187.886 343.251C187.854 343.209 187.837 343.158 187.836 343.106C187.835 343.053 187.851 343.002 187.88 342.959C187.91 342.916 187.952 342.883 188.001 342.865Z" fill="#263238"/>
<path d="M170.804 360.769C172.899 361.413 232.352 359.873 234.581 358.369C235.432 357.814 235.718 349.139 235.754 338.674V338.343L197.384 338.916V339.56C197.384 339.56 174.886 350.303 172.612 352.237C170.338 354.171 168.709 360.133 170.804 360.769Z" fill="#FFC727"/>
<path d="M171.415 358.441C181.433 357.94 221.88 356.839 231.826 357.098C231.907 357.098 231.907 357.161 231.826 357.17C221.907 357.886 181.451 358.656 171.424 358.611C171.209 358.611 171.2 358.459 171.415 358.441Z" fill="#263238"/>
<path d="M255.745 170.27C255.745 170.27 238.091 230.887 237.777 241.11C237.5 249.83 238.619 321.36 238.619 321.36L193.928 321.62C193.928 321.62 197.706 248.326 198.405 239.257C199.819 220.797 208.037 187.333 217.205 154.531C218.933 148.336 225.217 134.084 225.217 134.084H273.39C272.643 145.599 269.11 156.761 263.095 166.608C263.095 166.608 258.61 168.649 255.745 170.27Z" fill="#FFC727"/>
<path d="M255.745 170.27C255.745 170.27 238.091 230.887 237.777 241.11C237.5 249.83 238.619 321.36 238.619 321.36L193.928 321.62C193.928 321.62 197.706 248.326 198.405 239.257C199.819 220.797 208.037 187.333 217.205 154.531C218.933 148.336 225.217 134.084 225.217 134.084H273.39C272.643 145.599 269.11 156.761 263.095 166.608C263.095 166.608 258.61 168.649 255.745 170.27Z" fill="#0064D2"/>
<path d="M236.245 313.116C231.08 312.973 225.726 312.821 220.561 312.946C215.395 313.071 210.31 313.152 205.189 313.456C202.289 313.626 199.397 313.725 196.506 314.011C196.484 314.011 196.464 314.02 196.449 314.035C196.433 314.05 196.425 314.07 196.425 314.092C196.425 314.113 196.433 314.134 196.449 314.149C196.464 314.164 196.484 314.172 196.506 314.172C201.662 314.468 206.846 314.405 212.011 314.36C217.177 314.316 222.262 314.262 227.383 314.029C230.283 313.895 233.175 313.743 236.075 313.546C236.389 313.528 236.55 313.125 236.245 313.116Z" fill="#263238"/>
<path d="M213.831 210.619C213.759 210.968 213.679 211.317 213.598 211.667C212.139 218.587 210.912 224.639 210.304 227.996C208.452 238.842 207.5 249.822 207.457 260.824C207.367 271.899 207.51 282.991 207.546 294.074C207.582 305.157 207.743 298.317 207.448 309.4C207.448 309.526 207.242 309.544 207.233 309.4C207.188 308.013 207.152 306.634 207.134 305.246C206.937 294.11 206.848 300.904 206.767 289.768C206.687 278.631 206.472 267.592 206.705 256.509C206.97 245.642 208.168 234.817 210.286 224.155C210.832 221.317 211.825 216.608 213.034 211.138C213.106 210.78 213.195 210.413 213.276 210.046L213.329 210.109C213.506 210.27 213.673 210.44 213.831 210.619Z" fill="#263238"/>
<path d="M226.793 155.382C225.415 161.434 223.749 167.432 222.192 173.457C221.762 175.104 220.813 179.195 219.604 184.459C219.604 184.656 219.515 184.862 219.479 185.059L218.888 184.961C218.942 184.764 218.987 184.558 219.032 184.361C220.473 178.094 221.655 173.117 222.111 171.371C223.535 165.999 224.877 160.628 226.471 155.301C226.488 155.266 226.517 155.239 226.552 155.223C226.587 155.206 226.627 155.203 226.665 155.212C226.702 155.221 226.735 155.243 226.759 155.274C226.782 155.305 226.794 155.343 226.793 155.382Z" fill="#263238"/>
<path d="M244.688 171.344C246.915 171.325 249.137 171.121 251.331 170.735C253.503 170.251 255.649 169.653 257.759 168.945C259.824 168.473 261.917 168.129 264.025 167.915C266.164 167.609 268.246 166.988 270.203 166.071C270.301 166.071 270.373 166.169 270.283 166.214C268.383 167.235 266.4 168.094 264.357 168.784C262.244 169.446 260.024 169.544 257.875 170.064C255.704 170.712 253.494 171.223 251.259 171.595C249.056 171.86 246.827 171.821 244.634 171.478C244.581 171.469 244.608 171.344 244.688 171.344Z" fill="#263238"/>
<path d="M241.88 220.583C242.3 218.935 249.847 187.593 251.96 181.085C253.16 177.387 254.225 173.654 255.631 170.037C255.631 170.018 255.638 170 255.652 169.987C255.665 169.973 255.683 169.966 255.702 169.966C255.721 169.966 255.739 169.973 255.753 169.987C255.766 170 255.774 170.018 255.774 170.037C255.067 173.412 254.073 176.716 253.178 180.046C252.282 183.376 243.33 218.3 242.703 220.108C242.077 221.917 241.548 223.868 240.778 225.677C240.778 225.698 240.77 225.718 240.755 225.734C240.74 225.749 240.719 225.757 240.698 225.757C240.677 225.757 240.656 225.749 240.641 225.734C240.626 225.718 240.617 225.698 240.617 225.677C240.913 223.949 241.441 222.266 241.88 220.583Z" fill="#263238"/>
<path d="M230.417 204.415C231.062 200.924 230.856 202.025 231.501 198.524C232.145 195.024 232.87 191.676 233.381 188.229C233.443 187.835 233.488 187.504 233.067 187.244C232.252 186.908 231.393 186.688 230.516 186.591C228.385 186.107 226.237 185.695 224.088 185.266C219.657 184.433 214.643 183.574 210.149 183.171C209.728 183.171 209.63 183.699 210.06 183.744C217.194 184.548 224.275 185.768 231.268 187.396C231.644 187.477 232.512 187.584 232.718 187.934C232.696 188.191 232.648 188.446 232.575 188.695L232.145 190.977C231.847 192.499 231.548 194.021 231.25 195.543C230.668 198.596 230.937 197.047 230.355 200.091C230.095 201.488 229.826 202.884 229.567 204.281L229.137 206.564C229.066 206.949 229.021 207.342 228.922 207.71C228.88 208.039 228.735 208.346 228.509 208.589C228.282 208.831 227.985 208.997 227.66 209.061C226.254 209.527 224.697 209.76 223.237 210.1L218.323 211.246C217.472 211.542 216.588 211.735 215.691 211.819C214.795 211.819 213.9 210.673 213.291 210.118L207.696 205.051C207.137 204.526 206.658 203.923 206.273 203.26C205.906 202.517 208.958 186.627 210.149 183.404C210.203 183.26 209.791 183.135 209.737 183.278C208.645 186.322 205.073 201.353 205.064 202.92C205.064 204.254 206.183 205.06 207.177 205.964L211.384 209.751C212.119 210.404 212.835 211.067 213.569 211.711C214.043 212.226 214.671 212.571 215.359 212.696C216.002 212.693 216.641 212.584 217.248 212.374L220.113 211.693L225.646 210.368C226.863 210.082 228.806 209.957 229.459 208.855C229.706 208.306 229.858 207.719 229.907 207.119C230.077 206.188 230.247 205.301 230.417 204.415Z" fill="#263238"/>
<path d="M232.354 189.115C228.406 190.512 224.449 191.882 220.394 193.054C219.874 193.207 219.355 193.368 218.827 193.502C218.445 193.642 218.029 193.656 217.639 193.541C217.249 193.427 216.906 193.19 216.66 192.866C215.953 192.186 215.273 191.488 214.574 190.816C212.963 189.259 211.325 187.728 209.704 186.179C209.579 186.063 209.364 186.179 209.481 186.322C211.155 188.113 212.82 189.993 214.548 191.792C215.72 193.019 216.804 194.755 218.8 194.245C221.074 193.663 223.276 192.813 225.479 192.025C227.833 191.183 230.161 190.234 232.417 189.241C232.488 189.205 232.444 189.089 232.354 189.115Z" fill="#263238"/>
<path d="M219.148 191.531C219.145 191.374 219.105 191.221 219.032 191.082C218.959 190.944 218.855 190.825 218.727 190.734C218.553 190.648 218.362 190.603 218.168 190.603C217.974 190.603 217.782 190.648 217.608 190.734C217.447 190.796 217.555 191.029 217.716 190.967C217.856 190.902 218.01 190.874 218.163 190.886C218.235 190.896 218.303 190.923 218.36 190.967L218.441 191.047C218.477 191.108 218.51 191.171 218.539 191.235C218.539 191.235 218.539 191.298 218.539 191.334C218.576 191.477 218.592 191.625 218.584 191.772C218.574 191.9 218.525 192.022 218.443 192.122C218.362 192.221 218.251 192.293 218.128 192.327C218.055 192.352 217.977 192.354 217.903 192.333C217.83 192.313 217.764 192.27 217.716 192.211C217.614 192.08 217.557 191.92 217.555 191.754C217.555 191.754 217.474 191.71 217.474 191.754C217.448 191.896 217.464 192.043 217.522 192.175C217.579 192.307 217.675 192.42 217.796 192.497C217.943 192.558 218.104 192.578 218.261 192.556C218.418 192.534 218.567 192.471 218.692 192.372C218.835 192.285 218.954 192.161 219.034 192.013C219.114 191.865 219.153 191.699 219.148 191.531Z" fill="#263238"/>
<path d="M236.863 60.7453L223.712 59.0085L225.315 50.3694L238.215 53.4759L236.863 60.7453Z" fill="#263238"/>
<path d="M230.902 61.4078L211.565 58.8474L213.928 46.1528L232.889 50.7186L230.902 61.4078Z" fill="#37474F"/>
<path d="M217.42 60.2529L193.329 57.0658L196.265 41.2468L219.891 46.9406L217.42 60.2529Z" fill="#455A64"/>
<path d="M191.968 48.6332C191.154 52.9931 191.762 56.771 193.329 57.0664C194.896 57.3618 196.812 54.0494 197.626 49.6806C198.441 45.3119 197.832 41.5429 196.265 41.2474C194.699 40.952 192.783 44.2644 191.968 48.6332Z" fill="#455A64"/>
<path d="M199.075 41.9271C198.901 41.9329 198.732 41.9827 198.583 42.072C198.435 42.1613 198.311 42.2871 198.224 42.4374C198.018 42.7183 197.838 43.0181 197.687 43.3327C197.39 43.9645 197.139 44.6167 196.935 45.2843C196.509 46.6094 196.171 47.9611 195.924 49.3308C195.665 50.705 195.51 52.0964 195.458 53.4937C195.409 54.1881 195.409 54.8852 195.458 55.5796C195.481 55.9263 195.532 56.2706 195.61 56.6091C195.7 56.9314 195.816 57.3074 196.156 57.4417C195.798 57.3522 195.619 56.9672 195.503 56.6449C195.386 56.3071 195.299 55.9596 195.243 55.6065C195.143 54.9036 195.092 54.1947 195.091 53.4847C195.084 52.065 195.207 50.6476 195.458 49.2502C195.726 47.8589 196.103 46.4908 196.586 45.159C196.831 44.491 197.13 43.8442 197.481 43.2252C197.66 42.9045 197.873 42.6043 198.117 42.33C198.229 42.1866 198.376 42.0744 198.543 42.0038C198.711 41.9333 198.894 41.9069 199.075 41.9271Z" fill="#37474F"/>
<path d="M232.638 62.3113L219.425 61.1027L220.678 52.4099L233.695 54.9972L232.638 62.3113Z" fill="#263238"/>
<path d="M226.713 63.2073L207.286 61.4347L209.13 48.6595L228.27 52.4554L226.713 63.2073Z" fill="#37474F"/>
<path d="M213.185 62.6087L188.986 60.3974L191.287 44.48L215.119 49.2069L213.185 62.6087Z" fill="#455A64"/>
<path d="M187.285 52.018C186.65 56.4136 187.411 60.1647 188.986 60.3885C190.562 60.6123 192.352 57.2372 192.988 52.8416C193.624 48.4459 192.863 44.6949 191.287 44.4711C189.711 44.2473 187.921 47.6313 187.285 52.018Z" fill="#455A64"/>
<path d="M194.116 45.0437C193.945 45.0566 193.779 45.1126 193.635 45.2065C193.491 45.3004 193.373 45.4292 193.293 45.5808C193.095 45.8613 192.927 46.1613 192.791 46.4761C192.517 47.1173 192.292 47.7787 192.12 48.4546C191.746 49.8011 191.462 51.1708 191.269 52.5548C191.072 53.9366 190.973 55.3308 190.974 56.7266C190.968 57.4237 191.007 58.1205 191.09 58.8125C191.126 59.1571 191.189 59.4984 191.278 59.8331C191.386 60.1464 191.511 60.5224 191.86 60.6388C191.493 60.5672 191.296 60.1912 191.171 59.8689C191.041 59.5385 190.942 59.1969 190.875 58.8483C190.746 58.1506 190.665 57.4446 190.634 56.7356C190.574 55.3151 190.64 53.8921 190.831 52.4832C191.038 51.081 191.359 49.6978 191.789 48.3471C192.008 47.6717 192.278 47.0134 192.594 46.3776C192.763 46.0596 192.964 45.7597 193.194 45.4823C193.297 45.336 193.436 45.2187 193.597 45.1418C193.759 45.065 193.938 45.0312 194.116 45.0437Z" fill="#37474F"/>
<path d="M192.218 44.7122C196.058 45.3657 199.881 46.064 203.704 46.7712C207.526 47.4785 211.349 48.2215 215.163 49.0004H215.36V49.2063L215.27 49.824L215.1 49.5912L221.707 50.9341C223.909 51.4086 226.112 51.8294 228.305 52.3396H228.377V52.4113L228.144 53.8347V53.781L230.319 54.2555L228.126 53.8705H228.081V53.8257L228.26 52.4023L228.323 52.4918C226.103 52.1069 223.9 51.6772 221.689 51.2654L215.064 49.9941H214.867V49.7882L214.957 49.1705L215.127 49.4122C211.304 48.687 207.5 47.8903 203.677 47.1293C199.854 46.3684 196.014 45.5537 192.218 44.7122Z" fill="#263238"/>
<path d="M245.19 85.7047C248.171 86.0718 251.018 81.2285 252.065 77.6923C252.146 77.4237 251.51 74.8723 250.848 71.7299C250.454 69.8141 250.06 67.6834 249.836 65.705L237.786 70.0917C238.765 72.4821 239.448 74.9835 239.818 77.5401C239.845 77.814 239.845 78.0898 239.818 78.3637C239.814 78.4084 239.814 78.4533 239.818 78.498C239.747 80.0647 242.307 85.3556 245.19 85.7047Z" fill="#F7A9A0"/>
<path d="M239.827 78.3639V78.4982C240.252 78.5082 240.677 78.4842 241.099 78.4266C247.813 77.5314 248.995 69.1608 249.156 65.8932L237.75 70.0471C238.731 72.4403 239.413 74.9449 239.783 77.5045C239.827 77.7887 239.842 78.0767 239.827 78.3639Z" fill="#263238"/>
<path d="M254.734 49.5917C256.059 54.9632 253.194 67.9621 249.282 71.1492C243.597 75.7687 234.698 75.7597 230.884 69.0275C227.178 62.4922 231.001 46.0555 235.361 43.1997C241.735 39.001 252.782 41.6957 254.734 49.5917Z" fill="#F7A9A0"/>
<path d="M231.761 50.7098C231.761 50.7098 231.376 53.87 233.399 54.9175C233.56 54.998 239.746 70.5932 250.946 69.7427C250.946 69.7427 259.639 60.4769 257.759 51.7393C256.532 46.0814 252.745 44.3715 252.745 44.3715C252.745 44.3715 245.073 37.0573 235.816 40.2444C226.559 43.4315 228.35 50.2264 231.761 50.7098Z" fill="#263238"/>
<path d="M227.877 120.951L225.272 134.084H274.429C274.429 134.084 269.246 95.0959 256.238 80.969C249.73 73.9055 242.084 74.4337 237.223 79.3755C235.988 80.6199 224.502 98.6769 222.953 106.099C221.61 112.634 227.877 120.951 227.877 120.951Z" fill="#FFC727"/>
<path d="M275.789 137.72H223.319L224.456 131.605H275.055L275.789 137.72Z" fill="#263238"/>
<path d="M244.491 81.6585C244.912 81.4437 247.794 81.6585 247.651 81.2109C247.562 80.9423 246.953 78.0865 245.404 76.493C244.875 76.0557 244.259 75.7362 243.597 75.5556C242.934 75.375 242.241 75.3375 241.564 75.4455C239.075 75.7678 229.272 92.4552 227.813 98.1758C226.353 103.896 227.177 121.452 228.198 124.245C229.218 127.038 233.175 135.713 234.276 135.149C235.377 134.585 237.159 131.273 237.159 130.619C237.159 129.966 233.193 121.909 232.459 120.163C231.725 118.417 231.635 101.757 231.886 98.9815C232.137 96.2063 241.993 77.5852 242.28 77.3166C242.566 77.048 244.321 81.7391 244.491 81.6585Z" fill="#263238"/>
<path d="M193.41 116.948C189.766 111.935 191.019 100.126 194.421 75.7668C194.887 72.4007 218.888 72.1231 218.593 75.7668C218.19 80.3325 215.656 97.9509 215.307 99.2222C212.353 109.885 195.889 120.35 193.41 116.948Z" fill="#F7A9A0"/>
<path d="M222.827 49.1519C222.181 48.7794 221.436 48.614 220.694 48.6781C219.951 48.7421 219.245 49.0325 218.673 49.51C218.106 48.3674 217.156 47.4609 215.987 46.9496C213.91 46.126 211.717 49.0266 211.717 49.0266C210.889 47.9686 209.763 47.1828 208.485 46.7705C206.426 46.1886 203.794 48.7938 203.794 48.7938C202.498 48.2393 201.046 48.1694 199.703 48.5968C196.166 49.877 194.958 55.4992 194.161 59.0623C193.364 62.6253 194.421 73.4936 194.412 75.5885L217.258 80.9599C217.258 80.9599 225.396 65.9914 225.745 61.6674C226.086 57.9969 225.244 50.6649 222.827 49.1519Z" fill="#F7A9A0"/>
<path d="M218.754 49.5638C219.372 53.5118 218.754 57.433 218.432 61.372C218.436 61.3829 218.437 61.3945 218.436 61.406C218.434 61.4174 218.43 61.4284 218.423 61.4379C218.417 61.4473 218.408 61.4551 218.398 61.4604C218.388 61.4658 218.376 61.4686 218.365 61.4686C218.353 61.4686 218.342 61.4658 218.332 61.4604C218.321 61.4551 218.312 61.4473 218.306 61.4379C218.299 61.4284 218.295 61.4174 218.294 61.406C218.292 61.3945 218.294 61.3829 218.298 61.372C218.7 57.4509 218.298 53.5028 218.566 49.5817C218.57 49.5608 218.581 49.5419 218.597 49.5276C218.612 49.5133 218.632 49.5045 218.653 49.5025C218.675 49.5005 218.696 49.5054 218.714 49.5164C218.732 49.5275 218.746 49.5441 218.754 49.5638Z" fill="#263238"/>
<path d="M211.842 49.0262C211.889 49.9261 211.823 50.8285 211.645 51.7119C211.51 52.6609 211.358 53.6188 211.188 54.5677C210.854 56.4716 210.472 58.3666 210.042 60.2525C210.042 60.3421 209.89 60.3331 209.908 60.2525C210.242 58.3546 210.54 56.4507 210.803 54.5409C210.928 53.583 211.045 52.6251 211.161 51.6671C211.205 50.7588 211.349 49.8581 211.591 48.9814C211.607 48.9605 211.628 48.9444 211.653 48.9349C211.677 48.9254 211.704 48.9228 211.73 48.9274C211.756 48.932 211.78 48.9437 211.8 48.9611C211.819 48.9785 211.834 49.001 211.842 49.0262Z" fill="#263238"/>
<path d="M203.812 48.876C203.852 49.7021 203.749 50.529 203.507 51.32C203.337 52.2153 203.176 53.0479 203.015 53.9162C202.693 55.6441 202.37 57.3808 202.12 59.1176C202.12 59.2071 201.968 59.1982 201.977 59.1176C202.236 57.3271 202.469 55.5366 202.738 53.7999C202.872 52.9046 203.015 52.0631 203.158 51.1947C203.211 50.3901 203.408 49.6016 203.74 48.8671L203.812 48.876Z" fill="#263238"/>
<path d="M239.379 88.6411C226.918 108.336 215.351 117.289 201.519 118.82C187.867 120.351 193.534 109.232 194.268 108.077C197.025 103.771 218.073 86.7163 232.969 79.2052C247.866 71.6941 242.459 83.771 239.379 88.6411Z" fill="#F7A9A0"/>
<path d="M216.856 89.1324L212.272 92.6149C210.741 93.7698 209.21 94.9157 207.697 96.0974C206.184 97.2792 204.662 98.434 203.167 99.6337C201.672 100.833 200.195 102.042 198.79 103.358C200.09 101.942 201.481 100.611 202.952 99.374C204.403 98.1117 205.916 96.9211 207.429 95.7393C208.942 94.5576 210.499 93.4386 212.066 92.3374C213.633 91.2363 215.235 90.162 216.856 89.1324Z" fill="#263238"/>
<path d="M286.506 153.716H235.934L236.892 87.7098C236.908 86.6332 237.347 85.6064 238.115 84.8509C238.882 84.0955 239.915 83.6721 240.992 83.6722H278.959C280.702 83.672 282.374 84.3574 283.615 85.5803C284.857 86.8031 285.567 88.4653 285.593 90.2075L286.506 153.716Z" fill="#263238"/>
<path d="M286.505 153.716H236.479C236.126 153.715 235.777 153.642 235.453 153.503C235.129 153.363 234.836 153.159 234.594 152.903C234.351 152.646 234.163 152.344 234.04 152.012C233.918 151.681 233.865 151.329 233.883 150.976L236.774 95.3279L285.494 95.686L286.505 153.716Z" fill="#37474F"/>
<path d="M247.24 153.716L247.903 95.3283C247.903 95.3283 247.992 88.6319 246.273 85.8119C245.262 84.1557 238.708 83.726 237.715 86.3222C236.721 88.9184 236.819 93.3856 236.819 93.3856L236.9 87.3159C236.914 86.3446 237.31 85.4179 238.002 84.7361C238.694 84.0543 239.626 83.6721 240.597 83.6722H279.567C281.211 83.672 282.789 84.3175 283.961 85.4696C285.133 86.6217 285.806 88.1882 285.834 89.8315L286.085 112.58C286.659 113.323 287.11 114.154 287.419 115.042C288.081 124.889 288.439 143.994 288.556 151.021C288.556 151.734 288.273 152.417 287.769 152.921C287.265 153.424 286.582 153.707 285.87 153.707L247.24 153.716Z" fill="#455A64"/>
<path d="M247.697 106.671C247.697 107.566 247.697 108.595 248.404 109.151C249.175 109.593 250.058 109.804 250.946 109.759C252.737 109.759 254.581 109.715 256.398 109.697L267.311 109.616L278.233 109.697L283.694 109.786C284.128 109.847 284.57 109.82 284.992 109.706C285.182 109.612 285.347 109.476 285.476 109.308C285.605 109.141 285.693 108.946 285.736 108.739C285.941 107.858 286.043 106.957 286.04 106.053C286.116 106.968 286.071 107.889 285.906 108.792C285.867 109.033 285.773 109.261 285.631 109.46C285.49 109.659 285.305 109.822 285.091 109.938C284.867 110.044 284.622 110.099 284.375 110.099H283.694L278.233 110.189L267.311 110.27L256.398 110.207C254.608 110.162 252.764 110.207 250.928 110.091C249.988 110.085 249.07 109.805 248.287 109.285C247.939 108.961 247.727 108.515 247.697 108.04C247.661 107.585 247.661 107.127 247.697 106.671Z" fill="#37474F"/>
<path d="M271.386 108.507H263.759V112.419H271.386V108.507Z" fill="#FFC727"/>
<path d="M241.333 120.246L238.415 120.196L238.357 123.553L241.275 123.603L241.333 120.246Z" fill="#DBDBDB"/>
<path d="M242.225 122.526L237.463 122.444L237.397 126.284L242.159 126.366L242.225 122.526Z" fill="#C7C7C7"/>
<path d="M245.36 131.157C245.306 134.639 245.065 148.721 245.065 148.721L233.74 148.524C233.74 148.524 233.981 134.442 234.035 130.969C234.089 127.495 236.327 124.845 239.801 124.908C243.274 124.97 245.423 127.683 245.36 131.157Z" fill="#FFC727"/>
<path opacity="0.1" d="M245.36 131.157C245.306 134.639 245.065 148.721 245.065 148.721L233.74 148.524C233.74 148.524 233.981 134.442 234.035 130.969C234.089 127.495 236.327 124.845 239.801 124.908C243.274 124.97 245.423 127.683 245.36 131.157Z" fill="black"/>
<path d="M239.174 126.206C239.174 126.295 239.148 126.382 239.098 126.455C239.049 126.529 238.978 126.587 238.896 126.62C238.814 126.654 238.723 126.662 238.636 126.644C238.549 126.626 238.469 126.583 238.407 126.519C238.345 126.456 238.303 126.375 238.287 126.288C238.27 126.2 238.28 126.11 238.316 126.028C238.351 125.947 238.41 125.877 238.485 125.829C238.559 125.781 238.647 125.756 238.736 125.758C238.794 125.758 238.852 125.77 238.906 125.793C238.959 125.815 239.008 125.848 239.049 125.89C239.09 125.932 239.122 125.981 239.144 126.035C239.165 126.09 239.175 126.148 239.174 126.206Z" fill="white"/>
<path d="M244.724 130.271C244.722 130.358 244.695 130.442 244.645 130.513C244.595 130.584 244.526 130.639 244.445 130.671C244.364 130.702 244.276 130.709 244.191 130.69C244.106 130.672 244.029 130.628 243.969 130.566C243.909 130.503 243.869 130.424 243.854 130.339C243.838 130.253 243.849 130.165 243.884 130.086C243.918 130.007 243.976 129.939 244.049 129.892C244.122 129.846 244.208 129.822 244.294 129.823C244.352 129.825 244.409 129.837 244.461 129.86C244.514 129.883 244.562 129.917 244.602 129.958C244.642 130 244.673 130.049 244.694 130.103C244.715 130.156 244.725 130.213 244.724 130.271Z" fill="white"/>
<path d="M239.711 130.628C239.711 130.717 239.684 130.804 239.635 130.878C239.585 130.952 239.515 131.009 239.432 131.042C239.35 131.076 239.259 131.084 239.172 131.066C239.085 131.048 239.006 131.005 238.943 130.941C238.881 130.878 238.839 130.797 238.823 130.71C238.807 130.622 238.817 130.532 238.852 130.451C238.887 130.369 238.946 130.3 239.021 130.252C239.096 130.203 239.183 130.179 239.272 130.181C239.33 130.18 239.388 130.192 239.442 130.215C239.496 130.237 239.545 130.27 239.585 130.312C239.626 130.354 239.658 130.403 239.68 130.458C239.701 130.512 239.712 130.57 239.711 130.628Z" fill="white"/>
<path d="M240.079 134.854C240.078 134.911 240.066 134.968 240.043 135.021C240.019 135.074 239.986 135.121 239.945 135.161C239.903 135.201 239.854 135.233 239.8 135.253C239.747 135.274 239.689 135.285 239.632 135.283C239.515 135.281 239.403 135.233 239.321 135.149C239.239 135.066 239.193 134.953 239.193 134.836C239.193 134.717 239.24 134.603 239.324 134.519C239.408 134.435 239.522 134.388 239.641 134.388C239.759 134.388 239.873 134.435 239.957 134.519C240.041 134.603 240.088 134.717 240.088 134.836L240.079 134.854Z" fill="white"/>
<path d="M235.441 139.178C235.438 139.295 235.39 139.406 235.307 139.488C235.223 139.57 235.11 139.616 234.993 139.616C234.935 139.615 234.877 139.602 234.824 139.579C234.77 139.555 234.722 139.521 234.682 139.478C234.642 139.436 234.611 139.386 234.591 139.331C234.57 139.276 234.561 139.218 234.563 139.16C234.563 139.102 234.575 139.044 234.598 138.991C234.621 138.938 234.654 138.889 234.696 138.849C234.737 138.809 234.787 138.778 234.841 138.757C234.895 138.737 234.953 138.728 235.011 138.73C235.069 138.731 235.126 138.744 235.178 138.767C235.231 138.79 235.279 138.823 235.319 138.865C235.359 138.906 235.39 138.955 235.411 139.009C235.432 139.063 235.442 139.12 235.441 139.178Z" fill="white"/>
<path d="M235.037 135.276C235.037 135.394 234.99 135.508 234.906 135.592C234.822 135.676 234.708 135.723 234.589 135.723C234.47 135.723 234.357 135.676 234.273 135.592C234.189 135.508 234.142 135.394 234.142 135.276C234.144 135.158 234.192 135.047 234.276 134.965C234.359 134.883 234.472 134.837 234.589 134.837C234.648 134.836 234.706 134.846 234.76 134.868C234.814 134.889 234.863 134.921 234.905 134.962C234.947 135.003 234.98 135.052 235.003 135.106C235.025 135.159 235.037 135.217 235.037 135.276Z" fill="white"/>
<path d="M235.252 131.094C235.252 131.183 235.225 131.27 235.176 131.344C235.126 131.418 235.056 131.475 234.973 131.509C234.891 131.542 234.8 131.551 234.713 131.533C234.626 131.515 234.547 131.471 234.484 131.408C234.422 131.344 234.38 131.263 234.364 131.176C234.348 131.089 234.358 130.998 234.393 130.917C234.428 130.835 234.487 130.766 234.562 130.718C234.637 130.67 234.724 130.645 234.813 130.647C234.929 130.651 235.04 130.7 235.121 130.783C235.203 130.867 235.249 130.978 235.252 131.094Z" fill="white"/>
<path d="M237.204 128.588C237.202 128.705 237.154 128.817 237.07 128.899C236.986 128.981 236.874 129.027 236.757 129.027C236.698 129.025 236.641 129.013 236.587 128.989C236.534 128.965 236.486 128.931 236.446 128.889C236.406 128.846 236.375 128.796 236.354 128.741C236.334 128.687 236.325 128.628 236.327 128.57C236.327 128.451 236.374 128.337 236.458 128.253C236.542 128.169 236.656 128.122 236.775 128.122C236.893 128.122 237.007 128.169 237.091 128.253C237.175 128.337 237.222 128.451 237.222 128.57L237.204 128.588Z" fill="white"/>
<path d="M237.571 132.975C237.569 133.062 237.541 133.146 237.492 133.217C237.442 133.288 237.372 133.343 237.292 133.374C237.211 133.406 237.122 133.413 237.038 133.394C236.953 133.376 236.876 133.332 236.816 133.27C236.756 133.207 236.715 133.128 236.7 133.043C236.685 132.957 236.695 132.869 236.73 132.79C236.765 132.71 236.823 132.643 236.896 132.596C236.969 132.549 237.054 132.525 237.141 132.527C237.199 132.527 237.256 132.539 237.31 132.562C237.363 132.584 237.411 132.618 237.451 132.659C237.491 132.701 237.523 132.751 237.543 132.805C237.564 132.859 237.573 132.917 237.571 132.975Z" fill="white"/>
<path d="M241.976 128.283C241.972 128.401 241.922 128.513 241.836 128.595C241.751 128.677 241.638 128.722 241.52 128.722C241.401 128.722 241.287 128.675 241.203 128.591C241.119 128.507 241.072 128.393 241.072 128.274C241.072 128.156 241.119 128.042 241.203 127.958C241.287 127.874 241.401 127.827 241.52 127.827C241.58 127.826 241.64 127.837 241.696 127.859C241.752 127.882 241.803 127.915 241.845 127.958C241.888 128.001 241.922 128.051 241.944 128.107C241.967 128.163 241.978 128.223 241.976 128.283Z" fill="white"/>
<path d="M242.433 132.59C242.433 132.648 242.421 132.705 242.399 132.759C242.376 132.812 242.343 132.86 242.301 132.9C242.259 132.94 242.209 132.972 242.155 132.992C242.101 133.013 242.043 133.022 241.985 133.02C241.868 133.017 241.757 132.969 241.675 132.885C241.593 132.802 241.547 132.689 241.547 132.572C241.548 132.514 241.561 132.456 241.584 132.403C241.608 132.349 241.642 132.301 241.685 132.261C241.727 132.221 241.777 132.19 241.832 132.17C241.887 132.149 241.945 132.14 242.003 132.142C242.061 132.142 242.119 132.154 242.172 132.177C242.225 132.199 242.273 132.233 242.314 132.274C242.354 132.316 242.385 132.366 242.406 132.42C242.426 132.474 242.435 132.532 242.433 132.59Z" fill="white"/>
<path d="M237.723 137.066C237.723 137.185 237.676 137.299 237.592 137.383C237.508 137.467 237.394 137.514 237.276 137.514C237.157 137.514 237.043 137.467 236.959 137.383C236.875 137.299 236.828 137.185 236.828 137.066C236.828 136.948 236.875 136.834 236.959 136.75C237.043 136.666 237.157 136.619 237.276 136.619C237.394 136.619 237.508 136.666 237.592 136.75C237.676 136.834 237.723 136.948 237.723 137.066Z" fill="white"/>
<path d="M242.433 140.646C242.432 140.704 242.419 140.761 242.396 140.814C242.373 140.866 242.34 140.914 242.298 140.954C242.257 140.994 242.208 141.025 242.154 141.046C242.1 141.067 242.043 141.077 241.985 141.076C241.868 141.074 241.757 141.025 241.675 140.942C241.593 140.858 241.547 140.746 241.547 140.628C241.547 140.51 241.594 140.396 241.678 140.312C241.762 140.228 241.876 140.181 241.994 140.181C242.113 140.181 242.227 140.228 242.311 140.312C242.395 140.396 242.442 140.51 242.442 140.628L242.433 140.646Z" fill="white"/>
<path d="M242.307 143.967C242.303 144.054 242.274 144.137 242.224 144.207C242.173 144.277 242.103 144.33 242.022 144.36C241.941 144.391 241.853 144.396 241.769 144.377C241.685 144.357 241.608 144.313 241.549 144.25C241.49 144.187 241.451 144.108 241.436 144.023C241.422 143.938 241.433 143.85 241.468 143.771C241.503 143.693 241.56 143.626 241.633 143.579C241.706 143.533 241.791 143.509 241.877 143.511C241.936 143.512 241.993 143.525 242.047 143.548C242.1 143.572 242.148 143.606 242.188 143.649C242.228 143.691 242.259 143.741 242.28 143.796C242.3 143.851 242.309 143.909 242.307 143.967Z" fill="white"/>
<path d="M237.939 140.646C237.937 140.733 237.909 140.817 237.86 140.888C237.81 140.959 237.74 141.014 237.66 141.046C237.579 141.077 237.49 141.084 237.406 141.066C237.321 141.047 237.244 141.004 237.184 140.941C237.124 140.878 237.083 140.799 237.068 140.714C237.053 140.629 237.063 140.541 237.098 140.461C237.133 140.382 237.191 140.314 237.264 140.268C237.337 140.221 237.422 140.197 237.509 140.199C237.567 140.199 237.624 140.21 237.678 140.233C237.731 140.256 237.779 140.289 237.819 140.331C237.859 140.373 237.891 140.422 237.911 140.476C237.932 140.53 237.941 140.588 237.939 140.646Z" fill="white"/>
<path d="M235.7 145.777C235.7 145.896 235.653 146.01 235.569 146.094C235.485 146.178 235.371 146.225 235.252 146.225C235.134 146.225 235.02 146.178 234.936 146.094C234.852 146.01 234.805 145.896 234.805 145.777C234.807 145.66 234.855 145.549 234.939 145.467C235.023 145.384 235.135 145.339 235.252 145.339C235.311 145.337 235.369 145.348 235.423 145.369C235.477 145.391 235.527 145.423 235.568 145.464C235.61 145.505 235.643 145.553 235.666 145.607C235.688 145.661 235.7 145.719 235.7 145.777Z" fill="white"/>
<path d="M240.257 138.704C240.255 138.791 240.228 138.875 240.178 138.946C240.129 139.017 240.059 139.072 239.978 139.104C239.897 139.135 239.809 139.142 239.724 139.123C239.639 139.105 239.562 139.061 239.502 138.999C239.442 138.936 239.402 138.857 239.387 138.772C239.371 138.686 239.382 138.598 239.417 138.519C239.452 138.439 239.509 138.372 239.582 138.325C239.655 138.279 239.741 138.255 239.827 138.256C239.885 138.256 239.943 138.268 239.996 138.291C240.049 138.313 240.098 138.347 240.138 138.389C240.178 138.43 240.209 138.48 240.23 138.534C240.25 138.588 240.26 138.646 240.257 138.704Z" fill="white"/>
<path d="M240.249 142.286C240.249 142.404 240.202 142.518 240.118 142.602C240.034 142.686 239.92 142.733 239.801 142.733C239.683 142.733 239.569 142.686 239.485 142.602C239.401 142.518 239.354 142.404 239.354 142.286C239.354 142.167 239.401 142.053 239.485 141.969C239.569 141.885 239.683 141.838 239.801 141.838C239.92 141.838 240.034 141.885 240.118 141.969C240.202 142.053 240.249 142.167 240.249 142.286Z" fill="white"/>
<path d="M240.195 145.857C240.19 145.974 240.14 146.086 240.055 146.168C239.97 146.25 239.856 146.295 239.738 146.295C239.65 146.293 239.564 146.265 239.491 146.215C239.419 146.164 239.363 146.093 239.33 146.011C239.298 145.928 239.291 145.838 239.31 145.752C239.329 145.665 239.373 145.586 239.437 145.525C239.501 145.464 239.582 145.423 239.669 145.407C239.756 145.391 239.846 145.402 239.927 145.438C240.008 145.473 240.077 145.532 240.124 145.606C240.172 145.681 240.197 145.768 240.195 145.857Z" fill="white"/>
<path d="M242.406 147.549C242.404 147.666 242.355 147.778 242.272 147.86C242.188 147.942 242.076 147.988 241.958 147.988C241.9 147.987 241.842 147.974 241.789 147.95C241.736 147.926 241.688 147.892 241.648 147.85C241.607 147.807 241.576 147.757 241.556 147.702C241.536 147.648 241.526 147.59 241.529 147.531C241.529 147.473 241.54 147.416 241.563 147.362C241.586 147.309 241.619 147.261 241.661 147.221C241.703 147.181 241.752 147.149 241.806 147.129C241.861 147.108 241.918 147.099 241.976 147.101C242.034 147.103 242.091 147.115 242.143 147.138C242.196 147.161 242.244 147.195 242.284 147.236C242.324 147.278 242.355 147.327 242.376 147.381C242.397 147.434 242.407 147.491 242.406 147.549Z" fill="white"/>
<path d="M235.71 142.437C235.71 142.526 235.683 142.613 235.634 142.686C235.584 142.76 235.514 142.818 235.431 142.851C235.349 142.885 235.258 142.893 235.171 142.875C235.084 142.857 235.005 142.814 234.942 142.75C234.88 142.687 234.838 142.606 234.822 142.519C234.806 142.431 234.816 142.341 234.851 142.259C234.886 142.178 234.945 142.108 235.02 142.06C235.095 142.012 235.182 141.987 235.271 141.989C235.329 141.989 235.387 142.001 235.441 142.023C235.495 142.046 235.544 142.079 235.584 142.121C235.625 142.163 235.657 142.212 235.679 142.266C235.7 142.32 235.711 142.378 235.71 142.437Z" fill="white"/>
<path d="M237.885 144.039C237.882 144.157 237.834 144.268 237.75 144.35C237.667 144.432 237.554 144.478 237.437 144.478C237.32 144.474 237.21 144.425 237.129 144.341C237.047 144.258 237 144.147 236.998 144.031C236.998 143.912 237.045 143.798 237.129 143.714C237.213 143.63 237.327 143.583 237.446 143.583C237.565 143.583 237.678 143.63 237.762 143.714C237.846 143.798 237.893 143.912 237.893 144.031L237.885 144.039Z" fill="white"/>
<path d="M244.536 145.927C244.533 146.044 244.485 146.156 244.402 146.238C244.318 146.32 244.205 146.366 244.088 146.366C243.969 146.366 243.856 146.318 243.772 146.234C243.688 146.151 243.641 146.037 243.641 145.918C243.641 145.799 243.688 145.685 243.772 145.601C243.856 145.518 243.969 145.47 244.088 145.47C244.148 145.47 244.207 145.482 244.262 145.505C244.317 145.528 244.366 145.562 244.408 145.605C244.45 145.647 244.482 145.698 244.504 145.753C244.526 145.808 244.537 145.867 244.536 145.927Z" fill="white"/>
<path d="M237.92 147.513C237.92 147.632 237.873 147.746 237.789 147.83C237.705 147.914 237.591 147.961 237.472 147.961C237.354 147.961 237.24 147.914 237.156 147.83C237.072 147.746 237.025 147.632 237.025 147.513C237.027 147.396 237.075 147.285 237.159 147.203C237.243 147.121 237.355 147.075 237.472 147.075C237.531 147.074 237.589 147.084 237.643 147.106C237.697 147.127 237.747 147.159 237.788 147.2C237.83 147.241 237.863 147.29 237.886 147.344C237.908 147.397 237.92 147.455 237.92 147.513Z" fill="white"/>
<path d="M244.724 138.899C244.724 138.988 244.698 139.075 244.648 139.149C244.598 139.223 244.528 139.28 244.446 139.314C244.363 139.347 244.273 139.356 244.186 139.338C244.099 139.32 244.019 139.276 243.957 139.213C243.895 139.149 243.853 139.068 243.836 138.981C243.82 138.894 243.83 138.803 243.866 138.722C243.901 138.64 243.96 138.571 244.034 138.523C244.109 138.475 244.196 138.45 244.285 138.452C244.344 138.452 244.402 138.463 244.455 138.486C244.509 138.509 244.558 138.542 244.599 138.583C244.64 138.625 244.672 138.674 244.693 138.729C244.715 138.783 244.725 138.841 244.724 138.899Z" fill="white"/>
<path d="M244.662 142.365C244.662 142.483 244.615 142.597 244.531 142.681C244.447 142.765 244.333 142.812 244.214 142.812C244.095 142.812 243.982 142.765 243.898 142.681C243.814 142.597 243.766 142.483 243.766 142.365C243.769 142.247 243.817 142.136 243.901 142.054C243.984 141.972 244.097 141.926 244.214 141.926C244.272 141.925 244.33 141.935 244.385 141.957C244.439 141.978 244.488 142.01 244.53 142.051C244.572 142.092 244.605 142.141 244.627 142.195C244.65 142.248 244.662 142.306 244.662 142.365Z" fill="white"/>
<path d="M242.587 137.065C242.584 137.182 242.536 137.294 242.452 137.376C242.369 137.458 242.256 137.504 242.139 137.504C242.02 137.504 241.906 137.457 241.823 137.373C241.739 137.289 241.691 137.175 241.691 137.056C241.691 136.937 241.739 136.824 241.823 136.74C241.906 136.656 242.02 136.609 242.139 136.609C242.199 136.606 242.259 136.616 242.316 136.638C242.372 136.66 242.422 136.694 242.465 136.737C242.507 136.78 242.54 136.832 242.561 136.888C242.582 136.945 242.591 137.005 242.587 137.065Z" fill="white"/>
<path d="M245.011 134.871C245.011 134.929 245 134.987 244.977 135.04C244.954 135.093 244.921 135.142 244.879 135.182C244.837 135.222 244.788 135.253 244.734 135.274C244.679 135.294 244.622 135.303 244.564 135.301C244.506 135.301 244.448 135.289 244.395 135.267C244.342 135.244 244.293 135.211 244.253 135.169C244.213 135.127 244.182 135.078 244.161 135.023C244.141 134.969 244.132 134.911 244.134 134.853C244.134 134.735 244.181 134.621 244.265 134.537C244.349 134.453 244.463 134.406 244.582 134.406C244.7 134.406 244.814 134.453 244.898 134.537C244.982 134.621 245.029 134.735 245.029 134.853L245.011 134.871Z" fill="white"/>
<path d="M232.728 149.222C235.262 152.741 245.655 152.159 246.318 150.78C246.595 150.198 246.318 135.794 246.318 135.794C246.318 135.794 237.365 136.626 232.522 134.898C232.486 134.863 231.94 148.121 232.728 149.222Z" fill="#455A64"/>
<path d="M278.824 84.4333H243.605C242.853 84.4344 242.107 84.287 241.411 83.9995C240.716 83.712 240.084 83.29 239.551 82.7577C239.019 82.2255 238.597 81.5934 238.31 80.8977C238.022 80.202 237.875 79.4564 237.876 78.7037V77.5667C237.875 76.814 238.022 76.0684 238.31 75.3727C238.597 74.6771 239.019 74.045 239.551 73.5127C240.084 72.9804 240.716 72.5584 241.411 72.2709C242.107 71.9834 242.853 71.836 243.605 71.8372H278.654C280.027 71.8351 281.355 72.3269 282.395 73.2226C283.436 74.1183 284.119 75.3583 284.321 76.7162L284.491 77.8532C284.614 78.6685 284.559 79.5005 284.33 80.2926C284.101 81.0846 283.705 81.818 283.167 82.4426C282.629 83.0673 281.962 83.5685 281.213 83.912C280.463 84.2556 279.649 84.4334 278.824 84.4333Z" fill="#FFC727"/>
<path opacity="0.1" d="M242.146 82.6695C243.891 82.6695 245.306 80.6053 245.306 78.059C245.306 75.5127 243.891 73.4485 242.146 73.4485C240.401 73.4485 238.986 75.5127 238.986 78.059C238.986 80.6053 240.401 82.6695 242.146 82.6695Z" fill="black"/>
<path d="M250.812 66.3414C254.223 67.3531 260.838 73.8525 261.214 79.3493C261.59 84.8461 257.732 91.3008 256.031 91.1934C254.33 91.086 248.815 87.3976 246.058 83.0019C243.301 78.6063 249.129 65.8849 250.812 66.3414Z" fill="#263238"/>
<path d="M250.794 66.3935C250.705 66.3129 250.794 66.1339 250.902 66.1965C253.587 67.6021 255.951 70.0819 258.064 72.2126C259.903 73.8502 261.377 75.8575 262.388 78.1033C262.818 79.201 263.007 80.3789 262.94 81.5562C262.874 82.7335 262.554 83.8827 262.003 84.925C260.78 87.5145 258.915 89.7486 256.587 91.4155C256.515 91.4155 256.407 91.4156 256.47 91.3081C260.15 87.5481 264.223 82.7317 261.483 77.2707C259.21 72.6065 254.563 69.688 250.794 66.3935Z" fill="#263238"/>
<path d="M256.228 89.8319C258.699 91.6224 262.808 100.53 261.17 106.224C259.532 111.918 251.322 117.128 249.693 116.967C248.064 116.806 244.895 108.686 244.948 104.066C244.948 100.987 247.536 98.7665 249.639 96.3314C252.746 92.7146 255.843 89.5544 256.228 89.8319Z" fill="#263238"/>
<path d="M243.713 102.536C245.772 96.9492 251.511 93.4578 255.844 89.7783C255.889 89.7335 255.951 89.7783 255.915 89.8499C252.469 93.78 247.563 96.2957 244.913 100.933C244.076 102.254 243.568 103.756 243.433 105.314C243.297 106.872 243.538 108.44 244.134 109.885C245.298 112.455 247.42 114.496 249.264 116.582C249.38 116.716 249.156 116.886 249.04 116.752C245.289 112.741 241.583 108.301 243.713 102.536Z" fill="#263238"/>
<path d="M256.523 90.6282C256.425 90.485 256.63 90.3238 256.729 90.4671C259.522 94.3435 262.629 99.4732 262.539 104.424C262.432 109.795 257.83 112.911 253.81 115.579C253.806 115.582 253.8 115.585 253.795 115.586C253.789 115.588 253.783 115.588 253.777 115.587C253.771 115.586 253.766 115.584 253.761 115.581C253.756 115.578 253.751 115.574 253.748 115.57C253.744 115.565 253.742 115.56 253.74 115.554C253.739 115.548 253.738 115.542 253.739 115.537C253.74 115.531 253.742 115.525 253.745 115.52C253.748 115.515 253.752 115.511 253.757 115.507C257.776 112.768 262.423 109.178 262.163 103.752C261.957 99.0883 259.137 94.3435 256.523 90.6282Z" fill="#263238"/>
<path d="M249.47 116.644C247.187 116.77 243.069 118.739 240.795 122.186C236.892 128.086 235.057 125.767 227.366 124.352C220.849 123.162 216.624 129.178 218.351 133.824C218.351 133.824 218.351 128.963 223.186 128.739C228.978 128.48 237.59 138.274 245.97 133.994C256.793 128.462 249.47 116.644 249.47 116.644Z" fill="#263238"/>
<path d="M245.655 118.472C245.771 118.418 245.655 118.221 245.565 118.266C244.408 118.71 243.341 119.359 242.414 120.182C241.223 121.265 240.543 122.715 239.433 123.861C236.613 126.788 232.45 124.756 229.299 123.646C225.064 122.106 220.651 123.136 218.475 127.343C218.475 127.397 218.538 127.451 218.574 127.388C219.257 126.098 220.281 125.02 221.534 124.272C222.787 123.524 224.222 123.134 225.682 123.145C228.529 123.199 230.991 124.935 233.739 125.446C235.628 125.795 237.642 125.831 239.173 124.55C239.949 123.767 240.64 122.902 241.232 121.972C242.384 120.447 243.906 119.242 245.655 118.472Z" fill="#263238"/>
<path d="M250.203 117.897C250.203 117.853 250.096 117.897 250.114 117.897C251.412 121.228 252.844 124.621 252.02 128.273C251.125 132.194 247.661 134.979 243.856 135.892C239.594 136.921 236.694 134.236 233.471 131.962C231.134 130.314 228.655 128.846 225.745 128.604C225.655 128.604 225.638 128.739 225.745 128.757C230.221 129.652 233.39 132.49 237.088 134.907C240.105 136.885 243.166 136.894 246.389 135.301C253.471 131.827 253.48 124.2 250.203 117.897Z" fill="#263238"/>
<path d="M253.498 65.6962C253.719 65.6072 253.966 65.6095 254.185 65.7027C254.404 65.7959 254.577 65.9723 254.666 66.1931C254.755 66.4139 254.753 66.6611 254.66 66.8802C254.566 67.0993 254.39 67.2724 254.169 67.3614C253.948 67.4504 253.701 67.4481 253.482 67.3549C253.263 67.2617 253.09 67.0853 253.001 66.8645C252.912 66.6437 252.914 66.3966 253.007 66.1775C253.101 65.9584 253.277 65.7853 253.498 65.6962Z" fill="#FFC727"/>
<path d="M252.147 66.6812C252.367 66.591 252.615 66.5922 252.835 66.6845C253.055 66.7768 253.229 66.9528 253.319 67.1736C253.41 67.3944 253.408 67.642 253.316 67.8619C253.224 68.0819 253.048 68.2561 252.827 68.3464C252.718 68.391 252.601 68.4137 252.483 68.4132C252.364 68.4126 252.248 68.3888 252.139 68.3431C252.03 68.2973 251.931 68.2306 251.848 68.1467C251.765 68.0628 251.699 67.9633 251.654 67.854C251.61 67.7446 251.587 67.6276 251.587 67.5095C251.588 67.3914 251.612 67.2745 251.658 67.1656C251.703 67.0567 251.77 66.9579 251.854 66.8748C251.938 66.7917 252.037 66.7259 252.147 66.6812Z" fill="#FFC727"/>
<path d="M250.643 67.4412C250.864 67.3522 251.111 67.3545 251.33 67.4477C251.549 67.5409 251.722 67.7173 251.811 67.9381C251.9 68.1589 251.898 68.406 251.805 68.6251C251.711 68.8442 251.535 69.0173 251.314 69.1064C251.093 69.1954 250.846 69.1931 250.627 69.0999C250.408 69.0067 250.235 68.8303 250.146 68.6095C250.057 68.3887 250.059 68.1416 250.152 67.9225C250.246 67.7034 250.422 67.5303 250.643 67.4412Z" fill="#FFC727"/>
<path d="M249.084 67.9689C249.305 67.8787 249.552 67.8799 249.772 67.9722C249.992 68.0646 250.166 68.2405 250.257 68.4613C250.347 68.6821 250.346 68.9297 250.253 69.1497C250.161 69.3696 249.985 69.5438 249.764 69.6341C249.655 69.6787 249.538 69.7015 249.42 69.7009C249.302 69.7003 249.185 69.6765 249.076 69.6308C248.967 69.585 248.868 69.5183 248.785 69.4344C248.702 69.3505 248.636 69.251 248.591 69.1417C248.547 69.0324 248.524 68.9153 248.525 68.7972C248.525 68.6791 248.549 68.5622 248.595 68.4533C248.64 68.3444 248.707 68.2456 248.791 68.1625C248.875 68.0794 248.974 68.0136 249.084 67.9689Z" fill="#FFC727"/>
<path d="M247.428 68.2381C247.649 68.1479 247.897 68.149 248.117 68.2414C248.337 68.3337 248.511 68.5097 248.601 68.7305C248.691 68.9513 248.69 69.1989 248.598 69.4188C248.506 69.6388 248.33 69.813 248.109 69.9032C248 69.9479 247.882 69.9706 247.764 69.97C247.646 69.9695 247.529 69.9457 247.42 69.8999C247.312 69.8542 247.213 69.7875 247.13 69.7036C247.047 69.6197 246.981 69.5202 246.936 69.4109C246.891 69.3015 246.869 69.1845 246.869 69.0663C246.87 68.9482 246.894 68.8314 246.939 68.7225C246.985 68.6136 247.052 68.5148 247.136 68.4316C247.22 68.3485 247.319 68.2828 247.428 68.2381Z" fill="#FFC727"/>
<path d="M245.781 68.1942C246.002 68.1051 246.249 68.1075 246.468 68.2006C246.687 68.2938 246.86 68.4702 246.949 68.691C247.038 68.9118 247.036 69.159 246.943 69.3781C246.849 69.5972 246.673 69.7703 246.452 69.8593C246.231 69.9484 245.984 69.946 245.765 69.8529C245.546 69.7597 245.373 69.5833 245.284 69.3625C245.195 69.1416 245.197 68.8945 245.29 68.6754C245.384 68.4563 245.56 68.2832 245.781 68.1942Z" fill="#FFC727"/>
</g>
</svg>
