<svg width="343" height="444" fill="none" xmlns="http://www.w3.org/2000/svg"><mask id="a" style="mask-type:alpha" maskUnits="userSpaceOnUse" x="0" y="0" width="343" height="444"><rect width="343" height="443.192" rx="21" fill="#F3F3F3"/></mask><g mask="url(#a)"><path d="M262.372 133.694v262.915c0 7.431-5.566 13.443-12.43 13.443H127.239c-6.88 0-12.446-6.012-12.446-13.443V133.694c0-15.139 5.566-15.878 12.446-15.878h24.583c1.428 0 2.596 1.623 2.596 3.635v.868c0 4.714 2.58 4.73 5.744 4.73h56.841c3.196 0 5.76 0 5.76-4.73v-.868c0-2.012 1.152-3.635 2.605-3.635h24.574c6.864 0 12.43 2.012 12.43 15.878Z" fill="#fff"/><rect x="153.736" y="215.985" width="95.735" height="7.302" rx="3.651" fill="#CFDAD8"/><rect x="127.774" y="265.476" width="120.886" height="7.302" rx="3.651" fill="#CFDAD8"/><rect x="154.548" y="314.155" width="94.113" height="7.302" rx="3.651" fill="#CFDAD8"/><rect x="153.736" y="227.344" width="95.735" height="7.302" rx="3.651" fill="#CFDAD8"/><rect x="127.774" y="276.834" width="120.886" height="7.302" rx="3.651" fill="#CFDAD8"/><rect x="154.548" y="325.513" width="94.113" height="7.302" rx="3.651" fill="#CFDAD8"/><rect x="152.925" y="238.702" width="95.735" height="7.302" rx="3.651" fill="#CFDAD8"/><rect x="126.963" y="288.193" width="120.886" height="7.302" rx="3.651" fill="#CFDAD8"/><rect x="153.736" y="336.872" width="94.113" height="7.302" rx="3.651" fill="#CFDAD8"/><rect x="166.718" y="366.079" width="81.943" height="20.283" rx="7" fill="#0064D2"/><path d="m33.832 305.14-10.652.228-5.404.089c-1.801.04-3.618 0-5.428.048h-.365v-.365l-.04-9.078v-.406h.405l10.742.049c3.578 0 7.156.097 10.742.138h.22v.219c0 1.541-.074 3.075-.106 4.584l-.114 4.494Zm0 0-.114-4.584c0-1.517-.097-3.01-.113-4.494l.227.219c-3.586 0-7.164.13-10.742.138l-10.742.048.406-.405-.049 9.078-.357-.365c1.77 0 3.53 0 5.306.049l5.339.089 10.839.227ZM21.849 316.589l-10.653.227-5.403.09c-1.81.04-3.619 0-5.428.048H0v-9.849h.398l10.741.049c3.578 0 7.156.097 10.742.137h.22v.22c0 1.541-.074 3.074-.106 4.583l-.146 4.495Zm0 0-.122-4.584c0-1.517-.09-3.01-.105-4.494l.227.219c-3.586.04-7.164.129-10.742.137l-10.71.049.398-.405-.073 9.078-.357-.365c1.769 0 3.53 0 5.306.049l5.339.089 10.839.227ZM45.831 316.589l-10.653.227-5.403.09c-1.801.04-3.618 0-5.427.048h-.357v-9.849h.405l10.742.049c3.578 0 7.164.097 10.742.137h.219v.22c0 1.541-.065 3.074-.106 4.583l-.162 4.495Zm0 0-.114-4.584c0-1.517-.097-3.01-.105-4.494l.22.219c-3.579.04-7.165.129-10.743.137l-10.741.049.405-.405-.065 9.078-.357-.365c1.769 0 3.538 0 5.306.049l5.339.089 10.855.227ZM330.822 316.589l-10.644.227-5.404.09c-1.809.04-3.626 0-5.436.048h-.357v-.365l-.048-9.078v-.406h.405l10.742.049c3.586 0 7.164.097 10.742.137h.227v.22c0 1.541-.073 3.074-.105 4.583l-.122 4.495Zm0 0-.114-4.584c0-1.517-.089-3.01-.105-4.494l.219.219c-3.578.04-7.156.129-10.742.137l-10.742.049.406-.405-.041 9.078-.365-.365c1.769 0 3.538 0 5.314.049l5.339.089 10.831.227ZM330.822 112.761l-10.644.187-5.404.097c-1.809 0-3.626 0-5.436.041h-.357v-.357l-.048-9.079v-.414h.405l10.742.049c3.586 0 7.164.089 10.742.13h.227v.219c0 1.533-.073 3.067-.105 4.584l-.122 4.543Zm0 0-.114-4.592c0-1.509-.089-3.002-.105-4.486l.219.219c-3.578 0-7.156.129-10.742.129l-10.742.049.406-.397-.041 9.078-.365-.365h5.314l5.339.097 10.831.268ZM342.773 124.21l-10.645.219-5.403.098h-5.793v-.357l-.049-9.079v-.414h.406l10.742.049c3.586 0 7.164.089 10.742.13H343v.219c0 1.533-.073 3.067-.106 4.584l-.121 4.551Zm0 0-.114-4.592c0-1.509-.089-3.002-.105-4.486l.219.251c-3.578 0-7.156.13-10.742.13l-10.742.049.406-.398-.017 9.046-.365-.365h5.314l5.339.097 10.807.268ZM21.849 112.769l-10.653.227-5.403.09H0V103.236h.398l10.741.049c3.578 0 7.156.089 10.742.13h.22v.219c0 1.541-.074 3.067-.106 4.584l-.146 4.551Zm0 0-.122-4.592c0-1.509-.09-3.002-.105-4.486l.227.219c-3.586 0-7.164.13-10.742.13l-10.71.056.398-.405-.073 9.078-.324-.365c1.768 0 3.529 0 5.306.049l5.338.089 10.807.227ZM71.372 183.711l10.652-.227 5.404-.09c1.809 0 3.618 0 5.427-.04h.365v.365l.041 9.078v.406h-.373l-10.742-.049c-3.578 0-7.156-.089-10.742-.129h-.219v-.219c0-1.542.073-3.067.105-4.584l.082-4.511Zm0 0 .121 4.592c0 1.509.09 3.002.106 4.486l-.227-.219c3.586 0 7.164-.13 10.742-.13l10.741-.056-.405.405.048-9.078.357.365c-1.768 0-3.529 0-5.306-.049l-5.338-.089-10.84-.227ZM270.915 222.087l10.644-.219 5.403-.097h5.793v.365l.049 9.079v.413h-.406l-10.741-.048c-3.587 0-7.164-.09-10.742-.13h-.227v-.219c0-1.534.073-3.067.105-4.584l.122-4.56Zm0 0 .113 4.592c0 1.509.09 3.002.106 4.487l-.219-.219c3.578-.041 7.155-.13 10.742-.13l10.741-.057-.405.406v-9.079l.365.365c-1.769 0-3.538 0-5.314-.048l-5.339-.09-10.79-.227ZM83.363 172.264l10.644-.228 5.404-.089c1.809 0 3.618 0 5.436-.04h.356v.365l.049 9.078v.406h-.405l-10.742-.049c-3.586 0-7.164-.089-10.742-.13h-.211v-.219c0-1.541.073-3.066.105-4.583l.106-4.511Zm0 0 .113 4.592c0 1.509.09 3.002.106 4.486l-.22-.219c3.579-.04 7.157-.13 10.743-.13l10.742-.056-.406.405v-9.078l.365.365c-1.777 0-3.537 0-5.314-.049l-5.339-.089-10.79-.227Z" fill="#EBEBEB"/><path d="M32.315 65.892h-.812v79.168h.812V65.892Z" fill="#C7C7C7"/><path d="m59.397 171.557-2.207 4.86H6.62l-2.198-4.86 21.524-14.904h11.926l21.525 14.904Z" fill="#EBEBEB"/><path d="m39.365 142.302-1.493 14.352H25.946l-1.493-14.352h14.912ZM59.397 171.558l-2.207 4.86H6.62l-2.206-4.86h54.983Z" fill="#DBDBDB"/><path d="M91.338 65.892h-.811v63.486h.811V65.892Z" fill="#C7C7C7"/><path d="m118.42 155.876-2.207 4.86H65.652l-2.207-4.86L84.97 140.98h11.927l21.524 14.896Z" fill="#EBEBEB"/><path d="m98.388 126.619-1.492 14.36H84.969l-1.492-14.36h14.911ZM118.42 155.875l-2.207 4.86h-50.57l-2.198-4.86h54.975Z" fill="#DBDBDB"/><path d="M171.585 442.885c88.818 0 160.819-5.67 160.819-12.665 0-6.994-72.001-12.664-160.819-12.664-88.818 0-160.819 5.67-160.819 12.664 0 6.995 72.001 12.665 160.819 12.665Z" fill="#EBEBEB"/><path d="m267.32 385.795 9.416-.195 9.418-.073 18.832-.138 18.832.138 9.417.073 9.416.195-9.416.203-9.417.065-18.832.138-18.832-.138-9.418-.065-9.416-.203Z" fill="#263238"/><path d="M302.572 249.428s-19.139-2.678-14.668-25.784c0 0 21.386 4.803 14.668 25.784Z" fill="#FFC727"/><path opacity=".1" d="M302.572 249.428s-19.139-2.678-14.668-25.784c0 0 21.386 4.803 14.668 25.784Z" fill="#000"/><path d="M301.607 244.609a35.355 35.355 0 0 0-1.306-3.448c0-.146 0-.292-.049-.438 0-.317-.056-.633-.081-.949-.057-.69-.097-1.38-.138-2.069-.081-1.38-.17-2.767-.186-4.146 0-.073-.122-.073-.122 0v4.154c0 .689.065 1.379.114 2.069v.454a41.875 41.875 0 0 0-3.838-6.564 34.3 34.3 0 0 0-2.093-2.653c-.763-.868-1.574-1.703-2.345-2.563-.049-.057-.13 0-.081.081a34.044 34.044 0 0 1 3.691 4.908 36.453 36.453 0 0 1 1.623 2.702l-.178-.073-.682-.276-1.566-.592-3.083-1.144c-.057 0-.097.081 0 .105 1.023.406 2.029.812 3.035 1.274l1.484.633.747.308c.158.082.328.142.503.179.389.697.811 1.387 1.119 2.101a48.392 48.392 0 0 1 2.345 5.517c0 .13.089.26.138.398a11.532 11.532 0 0 0-1.574-.763l-1.98-.901c-1.338-.616-2.677-1.241-3.959-1.971-.065 0-.121.073-.057.105 1.315.722 2.605 1.485 3.919 2.199.657.357 1.322.706 1.996 1.03a6.267 6.267 0 0 0 1.801.722 22.63 22.63 0 0 1 1.249 5.428c.219 2.613.195 5.249.252 7.87h.073a99.73 99.73 0 0 0 .308-7.156 21.016 21.016 0 0 0-1.079-6.531Z" fill="#263238"/><path d="M298.654 231.019a22.835 22.835 0 0 0-.187 4.057h.057c.081-1.355.089-2.702.243-4.057.008-.049-.105-.073-.113 0ZM293.186 232.213a13.83 13.83 0 0 1-2.434-1.209c-.057-.04-.114.065-.057.106a9.625 9.625 0 0 0 2.491 1.184.036.036 0 0 0 .028-.012.038.038 0 0 0 .012-.028.038.038 0 0 0-.012-.029.036.036 0 0 0-.028-.012ZM303.181 286.116c0-2.117-.057-4.235-.081-6.344a1858.16 1858.16 0 0 0-.219-21.094c-.103-5.571-.233-11.145-.39-16.721a.088.088 0 0 0-.014-.043.088.088 0 0 0-.034-.03v-4.568c0-.041-.049-.057-.09-.057-.04 0-.097 0-.097.057v4.576s-.049.04-.049.065c-.276 9.922-.527 19.852-.592 29.775v6.06c-.065 6.491-.089 12.962-.073 19.415v3.091c0 5.923.065 11.845.065 17.76 0 .324.349.479.73.495.381.016.884-.154.884-.519 0-6.531.049-13.054.049-19.586-.073-4.105-.057-8.218-.089-12.332Z" fill="#263238"/><path d="M295.189 279.69s-9.208-6.823-17.946-2.215c-8.738 4.609-10.109 22.377-10.109 22.377s12.835 1.833 20.916-5.858c7.78-7.424 7.139-14.304 7.139-14.304Z" fill="#FFC727"/><path opacity=".1" d="M295.189 279.69s-9.208-6.823-17.946-2.215c-8.738 4.609-10.109 22.377-10.109 22.377s12.835 1.833 20.916-5.858c7.78-7.424 7.139-14.304 7.139-14.304Z" fill="#000"/><path d="M297.696 280.081a10.912 10.912 0 0 0-5.33-.698c-.373-.062-.75-.1-1.128-.114l-1.298-.097-2.685-.187c-1.818-.138-3.635-.251-5.452-.43-.065 0-.073.106 0 .114 1.793.227 3.577.487 5.379.665.924.098 1.849.195 2.774.26l.674.065a8.028 8.028 0 0 0-.812.203 21.267 21.267 0 0 0-4.17 1.695c-.722.13-1.444.333-2.158.503-1.136.268-2.272.56-3.399.812-2.24.592-4.454 1.249-6.669 1.89a.062.062 0 0 0-.041.016.06.06 0 0 0 0 .081c.011.01.026.016.041.016 2.215-.543 4.446-1.038 6.669-1.565l3.245-.812c.276-.073.56-.13.811-.194a26.957 26.957 0 0 0-6.539 5.679 35.368 35.368 0 0 0-4.551 7.172c0 .065.056.13.097.065a35.049 35.049 0 0 1 5.501-7.221c0 .122-.081.243-.114.365l-.511 1.623c-.341 1.087-.69 2.166-1.014 3.245 0 .073.089.097.113 0 .39-1.047.755-2.109 1.128-3.164.179-.519.365-1.039.544-1.55.097-.276.186-.543.276-.811.034-.082.064-.166.089-.252a34.248 34.248 0 0 1 3.245-2.782 24.857 24.857 0 0 1 4.868-2.799c0 .162-.057.324-.089.47-.09.422-.187.811-.276 1.258-.179.876-.349 1.752-.519 2.62-.341 1.785-.56 3.586-.893 5.371 0 .015.006.03.017.04.01.011.025.017.04.017a.056.056 0 0 0 .04-.017.054.054 0 0 0 .017-.04c.414-1.785.941-3.553 1.347-5.346.194-.901.397-1.793.584-2.694.089-.422.17-.811.259-1.266.049-.235.098-.47.13-.705.162-.065.325-.147.495-.203 2.434-.901 5.087-1.55 7.659-1.055a7.504 7.504 0 0 1 3.329 1.527 7.501 7.501 0 0 1 2.212 2.919c.089.195.406.073.357-.13a7.079 7.079 0 0 0-4.292-4.559Z" fill="#263238"/><path d="m283.604 287.698-.811 3.497a25.435 25.435 0 0 0-.641 3.407c0 .041.065.041.073 0 .348-1.124.619-2.271.811-3.432.227-1.152.446-2.304.674-3.456a.06.06 0 0 0-.017-.03.057.057 0 0 0-.064-.01.058.058 0 0 0-.025.024ZM274.704 290.627c-1.177.6-2.313 1.273-3.538 1.76a.049.049 0 0 0-.018.014.062.062 0 0 0-.012.019.056.056 0 0 0-.003.022c0 .008.002.015.005.022.003.007.008.013.013.019a.067.067 0 0 0 .02.012.078.078 0 0 0 .022.003.054.054 0 0 0 .022-.005 37.64 37.64 0 0 0 3.513-1.818s0-.048-.024-.048Z" fill="#263238"/><path d="M297.258 267.163s-11.253.714-16.486-6.701c-5.233-7.416-4.056-18.02-4.056-18.02s11.813 1.436 16.51 6.767c4.698 5.33 4.032 17.954 4.032 17.954Z" fill="#FFC727"/><path d="M302.54 278.263c-.39-1.201-.876-2.393-1.331-3.578a67.667 67.667 0 0 0-1.395-3.367 69.58 69.58 0 0 0-3.375-6.628c-.812-1.372-1.623-2.694-2.523-4.008 0-.195-.057-.398-.082-.593-.056-.348-.105-.697-.162-1.046-.113-.714-.235-1.428-.357-2.134-.251-1.558-.576-3.099-.811-4.657 0-.073-.13-.073-.122 0 .227 1.534.382 3.075.601 4.617.105.754.202 1.509.316 2.263.041.268.081.544.13.811a82.097 82.097 0 0 0-5.566-7.212c-.268-.317-.552-.617-.811-.925 0-.081-.065-.17-.097-.26-.09-.211-.171-.422-.252-.641l-.487-1.338a26.792 26.792 0 0 1-.811-2.678c0-.073-.13 0-.114 0 .227.925.471 1.85.739 2.759.129.438.275.876.43 1.306l.081.219a124.768 124.768 0 0 0-4.454-4.576c-.057-.048-.13 0-.082.09a80.095 80.095 0 0 1 7.976 9.735 6.5 6.5 0 0 0-.812-.211 40.476 40.476 0 0 0-2.612-.405c-1.834-.236-3.659-.463-5.485-.755-.081 0-.105.098 0 .114 1.745.349 3.473.738 5.201 1.136.811.186 1.623.348 2.434.511.669.142 1.328.329 1.971.56l.552.811a125.388 125.388 0 0 1 2.394 3.667l-1.153-.227a90.238 90.238 0 0 0-2.612-.471c-1.712-.276-3.432-.576-5.128-.965-.073 0-.105.097 0 .113 1.72.406 3.432.877 5.136 1.331.811.219 1.623.422 2.491.608l1.249.268c.166.04.334.069.503.089a142.005 142.005 0 0 1 4.617 8.17 98.886 98.886 0 0 1 1.817 3.708c.584 1.274 1.112 2.58 1.671 3.878-.008.3.414.195.325-.089Z" fill="#263238"/><path d="M291.019 252.405c-.211-1.079-.438-2.15-.673-3.245 0-.073-.13-.041-.114 0 .211 1.055.414 2.109.609 3.172.156 1.06.37 2.111.641 3.148a21.714 21.714 0 0 0-.463-3.075ZM284.456 252.089c-.519-.259-1.071-.47-1.623-.681l-.852-.333-.438-.17a2.253 2.253 0 0 1-.47-.211c-.09-.065-.138.081-.057.097.167.043.328.109.478.195l.43.195.812.365c.541.251 1.096.47 1.663.657.081.024.122-.081.057-.114Z" fill="#263238"/><path d="M308.779 258.311s6.807-12.721 17.168-14.692c10.36-1.972 16.705 8.697 16.705 8.697s-7.562 9.646-17.038 11.358c-9.476 1.712-16.835-5.363-16.835-5.363Z" fill="#FFC727"/><path d="M332.891 249.322a28.17 28.17 0 0 0-8.113.098l.463-.244 2.304-1.184c1.622-.812 3.196-1.712 4.868-2.378a.059.059 0 0 0 .03-.032.063.063 0 0 0-.002-.045.06.06 0 0 0-.033-.03.06.06 0 0 0-.044.002c-1.623.755-3.294 1.387-4.925 2.134-.811.373-1.622.762-2.434 1.184-.511.268-1.079.528-1.582.852a28.377 28.377 0 0 0-6.58 2.183l1.29-1.412c.966-1.055 1.915-2.166 2.978-3.124.057-.056 0-.138-.081-.081-1.087.982-2.231 1.891-3.245 2.921a26.39 26.39 0 0 0-1.469 1.541c-.243.26-.479.536-.706.812a27.334 27.334 0 0 0-13.89 18.749c0 .073.09.114.114 0a31.28 31.28 0 0 1 7.618-12.892 29.923 29.923 0 0 1 13.874-8.023 30.493 30.493 0 0 1 9.581-.877.107.107 0 0 0 .022-.037.105.105 0 0 0 .004-.043.094.094 0 0 0-.013-.041.102.102 0 0 0-.029-.033Z" fill="#263238"/><path opacity=".1" d="M342.652 252.317s-7.562 9.646-17.038 11.358c-7.253 1.282-13.216-2.499-15.642-4.365l-.519-.852s4.867-4.137 14.181-6.49c9.314-2.353 19.018.349 19.018.349Z" fill="#000"/><path d="M326.871 244.787c-.792.464-1.558.971-2.296 1.517a14.328 14.328 0 0 0-2.004 1.834c-.048.057 0 .13.089.081.69-.592 1.38-1.193 2.094-1.761a24.639 24.639 0 0 1 2.182-1.574c.065-.032 0-.137-.065-.097ZM332.559 246.945c-.382.154-.812.292-1.16.454l-1.153.479c-.081 0-.04.17.041.138l1.152-.471 1.152-.494c.073-.025.041-.138-.032-.106Z" fill="#263238"/><path d="M307.416 274.32s1.825 12.624 11.31 17.037c9.484 4.414 21.053 0 21.053 0s-4.543-27.3-32.363-17.037Z" fill="#FFC727"/><path opacity=".1" d="M307.416 274.32s1.825 12.624 11.31 17.037c9.484 4.414 21.053 0 21.053 0s-4.543-27.3-32.363-17.037Z" fill="#000"/><path d="M333.248 283.147a38.98 38.98 0 0 1-2.612-.406l-1.274-.243-.673-.13c-.252-.243-.503-.487-.763-.714a38.91 38.91 0 0 0-5.809-4.21 34.054 34.054 0 0 0-3.473-1.785h.179l3.123.138c2.077.097 4.163.146 6.248.275.073 0 .065-.113 0-.113-2.085-.146-4.162-.373-6.256-.552l-3.034-.268-1.558-.137-.405-.041a29.174 29.174 0 0 0-1.623-.568 14.82 14.82 0 0 0-8.04-.446c-2.385.616-4.771 2.182-5.387 4.697 0 .081.113.146.146.057.892-2.101 3.245-3.164 5.338-3.602a12.702 12.702 0 0 1 4.292-.081c.099.649.259 1.287.479 1.906.268.893.527 1.777.811 2.661.536 1.777 1.128 3.53 1.623 5.306-.004.009-.005.018-.004.028a.054.054 0 0 0 .009.025.076.076 0 0 0 .021.019.058.058 0 0 0 .026.006.06.06 0 0 0 .027-.006.06.06 0 0 0 .02-.019.046.046 0 0 0 .01-.025.053.053 0 0 0-.004-.028c-.438-1.768-.811-3.561-1.233-5.33-.211-.876-.43-1.744-.649-2.612-.12-.608-.28-1.207-.479-1.793.822.147 1.634.339 2.434.576a35.88 35.88 0 0 1 4.3 1.582c.138.9.341 1.785.544 2.677.259 1.112.551 2.215.9 3.302-.003.009-.004.018-.003.027.001.01.004.018.009.026a.05.05 0 0 0 .02.018.054.054 0 0 0 .027.007.054.054 0 0 0 .027-.007.059.059 0 0 0 .03-.044 1.78 1.78 0 0 0-.045-.23c-.211-1.03-.438-2.052-.657-3.091-.178-.811-.341-1.663-.519-2.491a37.336 37.336 0 0 1 3.456 1.753c0 .251.089.519.13.754.065.43.146.86.219 1.29.178.974.373 1.948.608 2.913.428 1.86.97 3.692 1.623 5.485a.064.064 0 0 0-.011.036.07.07 0 0 0 .011.037l.057.064c.04.049.105 0 .097-.064-.438-1.866-.941-3.724-1.355-5.599-.203-.933-.405-1.874-.6-2.815l-.268-1.411c0-.13-.04-.276-.065-.422a36.87 36.87 0 0 1 3.692 2.434 39.637 39.637 0 0 1 5.679 5.16c.065.073.195 0 .138-.114a34.95 34.95 0 0 0-2.264-2.758 40.753 40.753 0 0 0-1.476-1.493h.154l1.339.203c.876.113 1.76.202 2.636.3.098.008.13-.106.057-.114Z" fill="#263238"/><path d="M326.547 287.422c0-.105 0-.219-.057-.324a1.287 1.287 0 0 1-.113-.414 47.612 47.612 0 0 1-.512-2.548c0-.056-.105-.04-.097 0 .056 1.131.3 2.244.722 3.294h.065l-.008-.008ZM318.636 287.219a.05.05 0 0 0-.019-.035.057.057 0 0 0-.037-.014 98.238 98.238 0 0 1-.755-3.359 139.47 139.47 0 0 1-.357-1.776 42.841 42.841 0 0 1-.178-.958 2.776 2.776 0 0 0-.203-.811.054.054 0 0 0-.021-.026.06.06 0 0 0-.032-.01.063.063 0 0 0-.032.01.06.06 0 0 0-.021.026c-.01.571.07 1.141.236 1.687.113.617.235 1.234.373 1.842.276 1.25.584 2.491.941 3.716a.073.073 0 0 0 .024.031.07.07 0 0 0 .037.011.07.07 0 0 0 .037-.011.073.073 0 0 0 .024-.031c-.008-.13-.008-.195-.017-.292ZM332.38 279.511c-1.736-.235-3.464-.486-5.2-.697-.073 0-.106.105 0 .113 1.736.252 3.472.471 5.2.698.049.008.073-.106 0-.114Z" fill="#263238"/><path d="M302.556 244.731s-5.809-25.5 21.557-35.787c0 0 7.586 33.531-21.557 35.787Z" fill="#FFC727"/><path d="m308.463 230.281.292-.178 1.549-.868 3.173-1.769c2.093-1.168 4.154-2.385 6.255-3.529a.052.052 0 0 0 .019-.014.057.057 0 0 0 .013-.021.062.062 0 0 0-.005-.046.069.069 0 0 0-.016-.018c-.007-.004-.014-.008-.022-.009a.049.049 0 0 0-.024 0c-.008.002-.015.006-.022.01-2.109 1.144-4.251 2.215-6.377 3.335l-3.131 1.623-1.282.681a60.315 60.315 0 0 1 2.961-5.062c1.428-2.183 2.994-4.26 4.624-6.296.073-.09-.048-.211-.129-.13a43.103 43.103 0 0 0-6.329 7.756v-.26c0-.632.041-1.265.057-1.906 0-1.241-.04-2.483 0-3.724a.054.054 0 0 0-.016-.04.08.08 0 0 0-.019-.013.078.078 0 0 0-.022-.004.078.078 0 0 0-.021.004.064.064 0 0 0-.019.013.054.054 0 0 0-.016.04c-.057 1.225-.203 2.434-.268 3.667a44.356 44.356 0 0 0-.081 1.834c0 .324-.041.706 0 1.062-.56.901-1.104 1.81-1.623 2.735a46.47 46.47 0 0 0-2.434 5.127c0-.633-.073-1.266-.105-1.906-.081-1.388-.252-2.783-.309-4.179a.062.062 0 0 0-.023-.03.063.063 0 0 0-.037-.012.064.064 0 0 0-.038.012.062.062 0 0 0-.023.03v4.187c0 .697.04 1.395.089 2.085l.049.811a46.027 46.027 0 0 0-2.069 7.002 74.508 74.508 0 0 0-1.014 7.691 41.997 41.997 0 0 1 1.452-6.856 89.67 89.67 0 0 1 1.079-3.586c1.144-.535 2.231-1.209 3.334-1.817 1.104-.608 2.288-1.249 3.432-1.874 2.28-1.258 4.56-2.531 6.921-3.635.065 0 0-.13-.065-.105-2.385 1.087-4.787 2.109-7.132 3.245a87.7 87.7 0 0 0-3.448 1.858c-.949.535-1.931 1.071-2.839 1.687.267-.811.543-1.582.811-2.369.868-2.085 1.801-4.186 2.848-6.239Z" fill="#263238"/><path d="M306.159 224.457a.062.062 0 0 0-.024-.031.063.063 0 0 0-.074 0 .062.062 0 0 0-.024.031c.105 1.452.154 2.904.308 4.348 0 .081.13.081.122 0-.049-1.46-.203-2.896-.308-4.348ZM319.245 229.324c-1.712.69-3.44 1.347-5.144 2.053-.048 0 0 .097 0 .081 1.728-.649 3.432-1.355 5.152-2.02.13-.033.097-.146-.008-.114ZM321.882 217.609a42.317 42.317 0 0 0-4.896 2.629.076.076 0 0 0-.023.06.07.07 0 0 0 .01.031.084.084 0 0 0 .023.023c.009.006.02.01.031.012a.07.07 0 0 0 .032-.004.062.062 0 0 0 .028-.017 102.843 102.843 0 0 1 4.868-2.637c.057-.097-.008-.162-.073-.097Z" fill="#263238"/><path d="M321.468 299.811h-39.471v41.604h39.471v-41.604Z" fill="#455A64"/><path d="M281.3 314.537h-2.02v71.266h2.02v-71.266ZM323.975 314.537h-2.02v71.266h2.02v-71.266ZM303.708 314.537h-2.02v71.266h2.02v-71.266Z" fill="#263238"/><path d="M322.961 338.746h-42.667v5.761h42.667v-5.761ZM257.025 108.64H119.864a13.995 13.995 0 0 0-12.857 8.764 13.985 13.985 0 0 0-1.016 5.369v282.338a14.013 14.013 0 0 0 13.873 14.133h137.161a14.026 14.026 0 0 0 13.89-14.133V122.773a14.021 14.021 0 0 0-13.89-14.133Zm5.209 287.749c0 7.432-5.566 13.443-12.43 13.443H127.101c-6.88 0-12.446-6.011-12.446-13.443V133.474c0-15.139 5.566-15.878 12.446-15.878h24.583c1.428 0 2.596 1.623 2.596 3.635v.868c0 4.714 2.58 4.73 5.744 4.73h56.841c3.197 0 5.76 0 5.76-4.73v-.868c0-2.012 1.152-3.635 2.605-3.635h24.574c6.864 0 12.43 2.013 12.43 15.878v262.915Z" fill="#263238"/><path d="M262.234 133.473v53.945H114.655v-53.945c0-15.139 5.566-15.877 12.446-15.877h24.583c1.428 0 2.596 1.622 2.596 3.634v.869c0 4.713 2.58 4.729 5.744 4.729h56.841c3.197 0 5.76 0 5.76-4.729v-.869c0-2.012 1.152-3.634 2.605-3.634h24.574c6.864 0 12.43 2.012 12.43 15.877Z" fill="#0064D2"/><path d="m147.433 123.495-.235.235-.13.138a3.245 3.245 0 0 0-4.584 0l-.106-.13-.227-.235c.098-.09.195-.179.3-.26a3.57 3.57 0 0 1 1.623-.754c.154 0 .308 0 .463-.065.154-.065.389 0 .397 0h.317a3.776 3.776 0 0 1 1.379.47c.193.113.377.241.551.382l.244.227.008-.008Z" fill="#fff"/><path d="m143.238 124.622-.373-.373a2.651 2.651 0 0 1 1.525-.811 2.67 2.67 0 0 1 1.239.108c.399.132.761.356 1.057.654l-.373.374a2.172 2.172 0 0 0-3.075 0v.048Z" fill="#fff"/><path d="m145.932 124.996-.373.373a1.081 1.081 0 0 0-.811-.325 1.114 1.114 0 0 0-.812.325l-.365-.373a1.632 1.632 0 0 1 1.181-.51 1.63 1.63 0 0 1 1.18.51Z" fill="#fff"/><path d="M145.113 125.71c0 .067-.02.133-.058.189a.337.337 0 0 1-.35.145.34.34 0 0 1-.122-.618.341.341 0 0 1 .53.284ZM124.277 124.217a.98.98 0 0 1 .606-.907.986.986 0 0 1 1.07.213.977.977 0 0 1 .213 1.07.978.978 0 0 1-.907.606.983.983 0 0 1-.982-.982ZM127.361 124.217a.98.98 0 0 1 1.678-.691.98.98 0 0 1-.157 1.511.987.987 0 0 1-1.239-.126.983.983 0 0 1-.282-.694ZM130.436 124.217a.978.978 0 0 1 .606-.907.983.983 0 1 1-.606.907ZM133.518 124.217a.98.98 0 0 1 .607-.907.982.982 0 1 1-.607.907ZM136.601 124.217a.98.98 0 0 1 1.177-.962.98.98 0 0 1 .71 1.343.99.99 0 0 1-.913.601.975.975 0 0 1-.974-.982ZM251.159 126.351H243.2v-3.667h7.959v3.667Zm-7.553-.406h7.148v-2.872h-7.148v2.872Z" fill="#fff"/><path d="M248.993 123.292h-5.135v2.434h5.135v-2.434ZM251.873 123.527h-.705v1.971h.705v-1.971ZM196.201 120.94h-15.504a.965.965 0 0 1-.677-.281.956.956 0 0 1 .677-1.634h15.504a.956.956 0 0 1 .677 1.634.95.95 0 0 1-.677.281ZM121.933 189.123a16.225 16.225 0 0 1-17.784 14.409 16.021 16.021 0 0 1-9.257-4.178l-8.113 1.193 4.056-7.002a16.225 16.225 0 0 1 19.999-21.691 16.227 16.227 0 0 1 11.091 17.269h.008Z" fill="#fff"/><path d="M121.933 189.124a16.316 16.316 0 0 1-3.245 8.202 14.748 14.748 0 0 1-3.173 3.132 15.684 15.684 0 0 1-3.902 2.174c-1.4.548-2.869.897-4.365 1.039-.747.069-1.498.085-2.247.049-.752-.022-1.5-.101-2.24-.236a16.34 16.34 0 0 1-8.007-3.951l.194.057-8.113 1.241-.592.09.3-.52 4.057-7.009v.275a16.36 16.36 0 0 1 .998-14.425 16.563 16.563 0 0 1 5.07-5.403 16.488 16.488 0 0 1 14.223-1.915 16.56 16.56 0 0 1 6.247 3.83 16.283 16.283 0 0 1 4.795 13.37Zm0 0a16.017 16.017 0 0 0-4.871-13.277 16.029 16.029 0 0 0-13.489-4.247 15.894 15.894 0 0 0-6.677 2.644 16.578 16.578 0 0 0-4.868 5.282 15.934 15.934 0 0 0-2.061 6.848 16.226 16.226 0 0 0 1.144 7.05l.057.146-.081.13-4.057 6.993-.292-.43 8.113-1.135h.114l.08.073a15.922 15.922 0 0 0 7.749 3.991c.724.15 1.46.239 2.199.268.737.053 1.477.053 2.215 0a16.111 16.111 0 0 0 4.324-.949 14.905 14.905 0 0 0 3.902-2.11 17.963 17.963 0 0 0 1.712-1.452 17.015 17.015 0 0 0 1.469-1.671 16.231 16.231 0 0 0 3.318-8.154Z" fill="#263238"/><path d="m103.938 196.669-6.913-7.002 2.32-2.296 4.041 4.089 8.389-13.151 2.759 1.752-10.596 16.608Z" fill="#FFC727"/><path d="M54.967 323.672h3.14v-46.886h-3.14v46.886ZM23.731 323.672h3.14v-46.886h-3.14v46.886Z" fill="#DBDBDB"/><path d="M53.734 280.478h5.452v-7.229h-5.452v7.229ZM22.571 280.478h5.452v-7.229h-5.452v7.229Z" fill="#263238"/><path d="M22.571 271.415v5.452h7.813l1.534 1.087H49.84l1.533-1.087h7.805v-5.452h-7.805l-1.533 1.087H31.917l-1.533-1.087h-7.813Z" fill="#263238"/><path d="M6.5 421.379h68.84v-97.707H6.5v97.707Z" fill="#FFC727"/><path opacity=".1" d="M6.5 421.379h68.84v-97.707H6.5v97.707Z" fill="#000"/><path d="M14.052 413.817h53.734v-82.592H14.052v82.592Z" fill="#FFC727"/><g opacity=".1" fill="#000"><path opacity=".1" d="M61.896 334.745c-.146 6.295-.211 12.591-.268 18.887l-.081 18.887.081 18.888.097 9.444.17 9.451.18-9.451.097-9.444.08-18.888-.08-18.887c-.057-6.296-.114-12.592-.276-18.887ZM54.943 334.745c-.146 6.295-.211 12.591-.268 18.887l-.081 18.887.08 18.888.098 9.444.17 9.451.18-9.451.096-9.444.082-18.888-.081-18.887c-.057-6.296-.13-12.592-.276-18.887ZM47.99 334.745c-.147 6.295-.211 12.591-.268 18.887l-.09 18.887.082 18.888.105 9.444.17 9.451.17-9.451.106-9.444.081-18.888-.08-18.887c-.066-6.296-.13-12.592-.276-18.887ZM41.037 334.745c-.146 6.295-.22 12.591-.276 18.887l-.081 18.887.08 18.888.098 9.444.179 9.451.17-9.451.097-9.444.082-18.888-.082-18.887c-.056-6.296-.121-12.592-.267-18.887ZM34.084 334.745c-.146 6.295-.22 12.591-.276 18.887l-.081 18.887.08 18.888.098 9.444.179 9.451.17-9.451.098-9.444.08-18.888-.08-18.887c-.057-6.296-.122-12.592-.268-18.887ZM27.122 334.745c-.146 6.295-.21 12.591-.267 18.887l-.081 18.887.08 18.888.098 9.444.17 9.451.179-9.451.097-9.444.082-18.888-.082-18.887c-.056-6.296-.13-12.592-.276-18.887ZM20.17 334.745c-.146 6.295-.211 12.591-.268 18.887l-.081 18.887.081 18.888.097 9.444.17 9.451.18-9.451.097-9.444.08-18.888-.08-18.887c-.057-6.296-.13-12.592-.276-18.887Z"/></g><path d="M75.339 413.858H62.374l-5.192 7.521h18.157v-7.521ZM6.499 413.858h12.965l5.184 7.521H6.5v-7.521ZM75.34 346.283l3.618-.714v-8.105l-3.619-.706v9.525ZM75.34 408.283l3.618-.705v-8.105l-3.619-.714v9.524ZM.52 372.521c0 14.855 3.618 23.966 3.618 23.966h2.36v-13.792H3.506v-20.389H6.5v-13.792H4.138S.52 357.666.52 372.521Z" fill="#263238"/><path d="M2.678 391.563c.382 1.671.87 3.315 1.46 4.925h2.361v-4.925H2.678ZM2.678 353.48h3.821v-4.925H4.138a40.555 40.555 0 0 0-1.46 4.925Z" fill="#DBDBDB"/><path d="M40.566 318.399c-14.855 0-18.303 3.618-18.303 3.618v1.623h8.794v-2.28h19.01v2.28h9.5v-1.623s-4.154-3.618-19.001-3.618ZM67.177 427.407h3.205l2.125-6.028H65.58l1.988 3.018-.39 3.01Z" fill="#263238"/><path d="M64.2 429.241a4.421 4.421 0 1 0 4.421-4.422 4.412 4.412 0 0 0-4.421 4.422Z" fill="#263238"/><path d="M68.621 431.657a2.417 2.417 0 1 0 .001-4.835 2.417 2.417 0 0 0 0 4.835Z" fill="#DBDBDB"/><path d="M68.549 427.74c0 .349 0 .633.089.633s.097-.284.097-.633c0-.349-.049-.625-.097-.625-.049 0-.09.308-.09.625ZM69.62 428.169c-.244.244-.414.471-.382.511.033.041.268-.138.511-.381.244-.243.414-.471.382-.511-.033-.041-.268.138-.511.381ZM70.082 429.369c.345 0 .625-.04.625-.089 0-.049-.28-.089-.625-.089s-.625.04-.625.089c0 .049.28.089.625.089ZM69.684 430.238c-.243-.243-.47-.413-.503-.381-.032.033.13.268.374.511.243.244.478.414.51.382.033-.033-.13-.268-.38-.512ZM68.573 431.324c.049 0 .089-.279.089-.624s-.04-.625-.09-.625c-.049 0-.088.28-.088.625s.04.624.089.624ZM67.615 430.303c.252-.243.414-.47.381-.503-.032-.032-.267.13-.51.373-.244.244-.415.479-.382.512.032.032.268-.13.511-.382ZM67.153 429.289c.349 0 .633-.041.633-.098 0-.056-.284-.089-.633-.089-.35 0-.625.041-.625.089 0 .049.276.098.625.098ZM67.55 428.234c.244.251.471.413.512.381.04-.032-.138-.268-.382-.511-.243-.243-.47-.414-.51-.381-.041.032.137.267.38.511ZM14.66 427.407h-3.204l-2.126-6.028h6.92l-1.979 3.018.39 3.01Z" fill="#263238"/><path d="M17.638 429.241a4.421 4.421 0 1 1-4.421-4.422 4.411 4.411 0 0 1 4.421 4.422Z" fill="#263238"/><path d="M15.634 429.24a2.434 2.434 0 1 1-4.867 0 2.434 2.434 0 0 1 4.867 0Z" fill="#DBDBDB"/><path d="M13.168 428.396c.05 0 .09-.28.09-.625s-.04-.624-.09-.624c-.05 0-.09.279-.09.624s.04.625.09.625ZM12.219 428.169c.243.244.413.471.373.511-.04.041-.26-.138-.511-.381-.252-.243-.414-.471-.374-.511.041-.041.26.138.512.381ZM11.756 429.191c.34 0 .625 0 .625.089s-.284.097-.625.097c-.34 0-.633-.048-.633-.097s.284-.089.633-.089ZM12.146 430.238c.243-.243.478-.413.51-.381.033.033-.129.268-.38.511-.252.244-.47.414-.511.382-.041-.033.137-.268.38-.512ZM13.168 430.7c0-.349 0-.625.09-.625.089 0 .097.276.097.625s0 .632-.098.632c-.097 0-.089-.283-.089-.632ZM14.19 430.303c-.243-.243-.413-.47-.373-.503.04-.032.26.13.503.373.243.244.422.479.381.512-.04.032-.243-.13-.51-.382ZM14.677 429.289c.345 0 .625-.044.625-.098 0-.053-.28-.097-.625-.097s-.625.044-.625.097c0 .054.28.098.625.098ZM14.287 428.234c-.243.251-.478.413-.51.381-.033-.032.13-.268.38-.511.252-.243.471-.414.504-.381.032.032-.13.267-.373.511Z" fill="#263238"/><path d="M116.481 439.162c-1.882.235-53.198-11.74-54.87-13.355-.202-.178 2.224-10.027 2.224-10.027.81-4.057 12.632-37.159 12.632-37.159l33.548 8.284-12.673 30.676s6.393 4.324 11.894 8.454a70.43 70.43 0 0 1 6.953 5.565c1.639 1.964 2.166 7.343.292 7.562Z" fill="#AD6359"/><path d="M116.481 439.162c-1.883.236-53.198-11.739-54.861-13.354-.203-.178 2.223-10.036 2.223-10.036.267-1.322 1.882-5.801 3.95-11.212l32.112 7.48-2.563 5.541s6.393 4.325 11.894 8.454a72.951 72.951 0 0 1 6.953 5.566c1.647 1.971 2.166 7.342.292 7.561Z" fill="#EBEBEB"/><path d="M116.627 439.308c-1.947.203-53.677-11.358-55.364-13.087-.65-.624 3.943-17.289 3.959-17.386l33.11 7.302-.138.56s16.64 12.762 18.303 14.814c1.663 2.053 2.069 7.586.13 7.797Z" fill="#FFC727"/><path d="M116.489 437.175c-8.673-2.134-43.884-10.101-52.59-11.586-.072 0-.08 0 0 .057 8.552 2.336 43.812 9.979 52.574 11.675.17.032.203-.098.016-.146ZM100.855 416.543c-3.245-1.403-7.602-1.817-10.774 0-.122.073 0 .243.097.235a49.52 49.52 0 0 1 10.547.163.226.226 0 0 0 .122-.049.225.225 0 0 0 .008-.349ZM102.997 418.595c-3.286-1.412-7.602-1.826-10.774 0-.122.073 0 .251.097.235a49.002 49.002 0 0 1 10.547.17.224.224 0 0 0 .206-.157.225.225 0 0 0-.076-.248ZM105.139 420.641c-3.246-1.412-7.602-1.826-10.775 0-.121.073 0 .251.098.235a50.055 50.055 0 0 1 10.547.17.23.23 0 0 0 .206-.157.225.225 0 0 0 0-.136.219.219 0 0 0-.076-.112Z" fill="#263238"/><path d="M106.996 410.069c-.933-2.15-3.634-1.882-5.33-.998a18.66 18.66 0 0 0-7.05 6.661.43.43 0 0 0 .495.689c3.066-.413 6.401-.47 9.249-1.817 1.663-.779 3.513-2.491 2.636-4.535Zm-7.366 4.778c-1.501.236-3.01.406-4.503.698a56.492 56.492 0 0 1 4.202-3.805 20.169 20.169 0 0 1 2.256-1.55c1.233-.697 5.72-1.768 4.267 1.858-.795 1.996-4.429 2.515-6.222 2.799Z" fill="#263238"/><path d="M86.09 412.884c2.563 1.834 5.825 2.507 8.77 3.472.3.098.535-.194.535-.462a.088.088 0 0 0 .041-.014.087.087 0 0 0 .042-.073.09.09 0 0 0-.01-.043 18.715 18.715 0 0 0-5.68-7.837c-1.508-1.177-4.112-1.931-5.427 0-1.314 1.931.235 3.886 1.728 4.957Zm-.999-2.791c-.762-3.829 3.457-1.963 4.536-1.047a20.738 20.738 0 0 1 1.939 1.94 55.656 55.656 0 0 1 3.431 4.502c-1.411-.56-2.864-.998-4.3-1.509-1.711-.608-5.184-1.777-5.606-3.886Z" fill="#263238"/><path d="m99.962 416.429-35.787-8.016s29.524-82.291 26.903-85.756c-1.306-1.736-34.464-2.247-45.012-11.18-13.695-11.602-4.502-29.337-4.502-29.337l37.028-1.095s-.446 7.732.998 8.924c.95.812 45.069 4.487 49.92 19.35 5.939 18.214-29.548 107.11-29.548 107.11Z" fill="#0064D2"/><path d="M101.001 409.956c-.941-.398-10.182-3.018-12.251-3.554a673.07 673.07 0 0 0-12.535-3.091c-2.182-.519-6.864-1.623-7.14-1.623a.111.111 0 0 0-.08.034.113.113 0 0 0 0 .16c.022.022.05.034.08.034 4.057 1.273 8.211 2.385 12.34 3.513 4.13 1.127 18.304 4.584 19.529 4.721.057.033.179-.137.057-.194ZM97.407 319.591c-.738-.641-1.858-.714-2.791-.868l-16.032-2.694c-5.005-.811-10.035-1.582-15.009-2.539-4.121-.812-8.316-1.866-11.886-4.106a17.198 17.198 0 0 1-7.301-9.525 30.502 30.502 0 0 1-.942-12.169c.09-.99.276-1.988.463-2.97 0-.073-.106-.097-.122 0-1.355 7.586-1.477 16.389 4.21 22.433 2.776 2.945 6.58 4.673 10.467 5.801 4.389 1.266 8.973 1.858 13.468 2.613l16.088 2.644c2.572.422 5.184.763 7.732 1.29.515.066 1 .28 1.395.617a1.988 1.988 0 0 1 .227 1.858c-.26 1.258-.6 2.499-.957 3.732-2.92 9.955-22.611 71.274-23.187 72.369-.065.114.121.203.178.09 4.868-8.73 19.18-59.226 22.417-68.654a58.929 58.929 0 0 0 2.101-7.302c.162-.949.268-1.955-.519-2.62Z" fill="#263238"/><path d="M187.139 439.714c-1.793.601-53.158-.121-55.113-1.371-.763-.722-1.363-7.302-1.826-15.464l-8.835-35.032 33.037-.268 9.679 34.789s7.131 2.97 13.338 5.923a73.215 73.215 0 0 1 7.927 4.057c1.995 1.614 3.586 6.75 1.793 7.366Z" fill="#AD6359"/><path d="M188.193 439.747c-1.858.616-54.877.365-56.889-.925-.771-.479-1.185-8.195-1.412-17.533v-.3l34.205-.211v.576s20.283 9.16 22.319 10.815c2.037 1.655 3.627 6.977 1.777 7.578Z" fill="#FFC727"/><path d="M187.601 437.694c-8.925-.259-45.004-.478-53.855-.056-.073 0-.073.048 0 .056 8.851.455 44.914.374 53.855.147.211-.009.211-.138 0-.147ZM167.902 420.891c-3.513-.673-7.821-.154-10.547 2.336-.106.098 0 .244.154.203a49.335 49.335 0 0 1 10.352-2.093.228.228 0 0 0 .209-.206.226.226 0 0 0-.168-.24ZM170.433 422.433c-3.513-.674-7.821-.154-10.547 2.336-.105.09 0 .244.154.203a49.913 49.913 0 0 1 10.377-2.101.223.223 0 0 0 .208-.128.214.214 0 0 0 .019-.083.215.215 0 0 0-.127-.207.225.225 0 0 0-.084-.02ZM172.965 423.975c-3.521-.674-7.821-.154-10.547 2.328-.106.098 0 .244.154.211a49.877 49.877 0 0 1 10.352-2.101.25.25 0 0 0 .086-.009.238.238 0 0 0 .075-.041.207.207 0 0 0 .054-.067.212.212 0 0 0 .016-.167.233.233 0 0 0-.041-.076.234.234 0 0 0-.067-.054.21.21 0 0 0-.082-.024Z" fill="#263238"/><path d="M172.51 413.257c-1.371-1.915-3.951-1.071-5.427.154a18.799 18.799 0 0 0-5.452 8.024c-.006.013-.008.028-.006.042a.084.084 0 0 0 .014.04.09.09 0 0 0 .073.04.458.458 0 0 0 .04.199.455.455 0 0 0 .308.249.449.449 0 0 0 .203-.002c2.905-1.063 6.15-1.834 8.649-3.757 1.485-1.119 2.896-3.188 1.598-4.989Zm-6.166 6.239c-1.42.552-2.856 1.038-4.251 1.622a54.215 54.215 0 0 1 3.245-4.616 20.884 20.884 0 0 1 1.874-2.004c1.055-.941 5.201-2.945 4.568.901-.316 2.15-3.748 3.415-5.436 4.097Z" fill="#263238"/><path d="M152.698 420.438c2.888 1.249 6.223 1.2 9.306 1.517a.444.444 0 0 0 .351-.175.43.43 0 0 0 .071-.385.1.1 0 0 0 .06-.061.093.093 0 0 0 .004-.044.097.097 0 0 0-.015-.041 18.772 18.772 0 0 0-7.302-6.434c-1.728-.811-4.438-1.006-5.298 1.177-.86 2.182 1.136 3.756 2.823 4.446Zm-1.582-2.434c-1.566-3.578 2.953-2.653 4.203-1.996.804.437 1.577.931 2.312 1.476a56.626 56.626 0 0 1 4.324 3.668c-1.501-.244-3.018-.366-4.527-.552-1.801-.268-5.444-.665-6.312-2.596Z" fill="#263238"/><path d="M166.555 421.143h-38.561s-16.503-79.282-19.423-83.014c-3.895-4.973-58.415-4.868-70.066-21.094-10.498-14.563-1.622-35.179-1.622-35.179l41.263-1.225a85.428 85.428 0 0 1-3.821 12.981s49.701 9.16 63.623 24.34c9.387 10.303 28.607 103.191 28.607 103.191Z" fill="#0064D2"/><path d="M81.53 290.772c-1.2.26-2.37.635-3.497 1.12a38.951 38.951 0 0 0-3.49 1.517 70.042 70.042 0 0 0-6.53 3.683c-.065 0 0 .138.065.098 2.23-1.152 4.535-2.199 6.847-3.189l3.335-1.436a35.626 35.626 0 0 0 3.367-1.484c.121-.082.04-.341-.098-.309ZM79.03 280.599c-.47 1.882-.884 3.772-1.427 5.638-.244.86-.487 1.728-.812 2.556-.275.698-.69 1.501-1.5 1.623-.934.178-1.201-.617-1.128-1.388.073-.771.308-1.728.478-2.572.195-.973.398-1.955.576-2.937.082-.486.179-.973.26-1.468 0-.122.114-1.063.178-1.331 0 0 0 .049.057.041a.058.058 0 0 0 .057-.049c0-.073 0-.089-.049-.138a.072.072 0 0 0-.044-.015.072.072 0 0 0-.045.015c-.178.098-.186.349-.243.528-.154.47-.309.949-.447 1.428-.26.9-.519 1.801-.746 2.709-.227.909-.446 1.81-.673 2.718a4.146 4.146 0 0 0-.179 2.085 1.622 1.622 0 0 0 1.477 1.209 1.27 1.27 0 0 0-.097.179c-.082.186-.147.381-.22.576-.073.194-.13.389-.186.584-.03.095-.05.193-.057.292v.324a.156.156 0 0 0 .212.194.156.156 0 0 0 .08-.088 2.87 2.87 0 0 1 .17-.26c.055-.101.1-.207.138-.316.065-.187.114-.381.163-.568.048-.187.105-.381.146-.576.04-.195 0-.235 0-.349a2.18 2.18 0 0 0 1.087-.414 3.648 3.648 0 0 0 1.128-1.712c.284-.811.503-1.622.722-2.434a35.896 35.896 0 0 0 1.2-6.06.168.168 0 0 0-.055-.057.16.16 0 0 0-.076-.026.179.179 0 0 0-.08.012.165.165 0 0 0-.064.047ZM162.564 414.239a30.119 30.119 0 0 0-3.091-.195l-3.245-.121c-2.164-.065-4.3-.103-6.41-.114-4.308 0-8.608 0-12.908.057-2.247 0-7.058.097-7.302.186a.114.114 0 0 0 0 .22c4.268.227 8.543.292 12.819.373 4.276.081 8.543.146 12.811.073 1.184 0 2.369-.065 3.545-.098a36.06 36.06 0 0 0 3.748-.162c.13-.016.171-.203.033-.219ZM113.065 338.64a11.616 11.616 0 0 0-1.623-3.318 5.968 5.968 0 0 0-3.164-1.623c-10.279-2.815-20.883-4.056-31.333-6.052a127.827 127.827 0 0 1-15.252-3.716 59.203 59.203 0 0 1-14.434-6.491 16.17 16.17 0 0 1-5.306-5.606 24.393 24.393 0 0 1-2.499-7.002 42.944 42.944 0 0 1 0-16.932 40.387 40.387 0 0 1 1.055-4.121c0-.081-.097-.114-.13 0a41.214 41.214 0 0 0-2.32 16.827c.373 4.957 1.574 10.173 4.779 14.108a19.957 19.957 0 0 0 5.93 4.657 63.01 63.01 0 0 0 7.302 3.424 96.852 96.852 0 0 0 14.977 4.47c10.425 2.305 21.094 3.481 31.487 5.793 1.29.292 2.572.592 3.846.917 1.316.217 2.593.627 3.789 1.217 1.233.771 1.622 2.312 2.133 3.594.536 1.412 17.298 71.948 17.671 73.367a.186.186 0 0 0 .357-.105c-1.436-5.825-16.178-70.625-17.265-73.408Z" fill="#263238"/><path d="M110.023 340.117c-.39-1.241-.73-2.572-1.891-3.318-1.16-.746-17.646-2.961-19.471-3.245-.09 0-.122.121 0 .138 1.623.267 16.827 2.993 18.19 3.448a3.017 3.017 0 0 1 1.484.957 6.47 6.47 0 0 1 .868 2.069c.471 1.477 6.548 27.001 7.424 30.416.065.26.438.138.389-.113-1.225-6.385-6.506-28.778-6.993-30.352ZM74.503 293.694c7.62.917 15.15 2.461 22.514 4.616a157.8 157.8 0 0 1 21.719 7.854c3.943 1.777 7.765 3.756 11.553 5.833.082.041 0 .154-.064.114a176.71 176.71 0 0 0-21.095-9.209 169.742 169.742 0 0 0-21.994-6.377c-4.203-.916-8.438-1.622-12.681-2.328-.309-.049-.227-.527.048-.503Z" fill="#263238"/><path d="m111.735 210.647-7.489 23.999a.861.861 0 0 0-.032.886.864.864 0 0 0 .762.453l12.543.706a2.038 2.038 0 0 0 1.81-1.193l7.496-23.974c.3-.698 0-1.298-.73-1.331l-12.543-.698a2.034 2.034 0 0 0-1.817 1.152Z" fill="#37474F"/><path d="m113.227 210.72-7.488 23.967c-.3.697 0 1.298.722 1.338l12.543.706a2.031 2.031 0 0 0 1.817-1.201l7.489-23.966c.3-.698 0-1.298-.722-1.338l-12.551-.731a2.043 2.043 0 0 0-1.81 1.225Z" fill="#455A64"/><path d="M116.603 212.018a1.07 1.07 0 0 1-.223.573c-.13.164-.304.287-.503.353a1.061 1.061 0 0 1-.87-1.927 1.07 1.07 0 0 1 1.004-.036 1.065 1.065 0 0 1 .592 1.037Z" fill="#263238"/><path d="M69.23 245.192c6.11 15.569 20.77 36.226 27.35 36.745 3.14.243 8.689 1.355 13.037-1.98 9.493-7.302 17.979-21.824 20.064-30.335.747-3.026-13.719-10.636-16.08-8.283-5.533 5.508-12.267 16.575-13.176 16.445-3.35-.479-15.829-12.316-24.534-20.656-10.588-10.117-9.095 1.858-6.661 8.064ZM131.085 233.834c-1.177-6.32-2.434-7.764-.601-13.622 1.209-3.845-.73-6.263-3.699-3.31-4.868 4.868-5.063 13.306-4.292 16.226l8.592.706Z" fill="#F7A9A0"/><path d="M128.78 252.243s3.343-8.486 2.759-15.342c-.406-4.746-2.434-14.96-15.237-21.094-3.034-1.46-8.397-1.387-4.3 2.799 2.905 2.97 5.68 3.976 7.026 6.012 0 0-6.815.909-8.153 4.008a61.04 61.04 0 0 0-2.937 8.348c.487.262.991.492 1.509.69 0 0-1.169 2.937.811 7.342l18.522 7.237Z" fill="#F7A9A0"/><path d="M130.436 232.431c-1.801-1.728-5.679-5.339-9.85-7.197-4.648-2.06-14.165-4.77-15.65-1.322-1.087 2.531 2.434 3.886 2.434 3.886s-4.17-.292-4.649 2.207c-.446 2.272 2.361 3.164 2.361 3.164s-2.564.252-2.564 2.531c0 2.734 5.363 1.745 7.757 4.519.551.625 20.161-7.788 20.161-7.788Z" fill="#F7A9A0"/><path d="M119.231 230.516a20.23 20.23 0 0 0-11.739-2.783c-.106 0-.154.097-.057.106a50.18 50.18 0 0 1 11.78 2.75l.016-.073ZM117.016 235.149c-1.809-.998-7.301-2.75-11.902-2.077-.105 0-.146.106-.048.106 4.04.224 8.043.899 11.934 2.012 0 0 .041-.033.016-.041Z" fill="#263238"/><path d="M129.681 257.598s-14.076 21.671-21.337 23.967c-7.262 2.296-11.489 1.427-14.101.86a7.221 7.221 0 0 1-2.702-1.534c-6.815-5.574-18.441-24.477-22.968-34.968-3.4-7.886-2.515-14.766 3.245-12.169a20.127 20.127 0 0 1 5.225 3.845c10.271 9.825 22.32 19.334 22.944 19.058.625-.276 7.521-9.736 7.521-9.736l22.173 10.677Z" fill="#FFC727"/><path opacity=".1" d="M91.541 280.891c-6.815-5.574-18.441-24.477-22.968-34.968-3.4-7.886-2.515-14.766 3.245-12.169 2.637 6.206 14.1 33.345 19.723 47.137Z" fill="#000"/><path d="M125.811 260.608c-.811-.503-8.235-3.984-9.874-4.706-1.639-.722-8.3-3.732-10.052-4.332a.059.059 0 0 0-.027-.014.061.061 0 0 0-.03-.001.07.07 0 0 0-.027.014.063.063 0 0 0-.023.054c0 .01.003.02.009.029a.063.063 0 0 0 .021.022.066.066 0 0 0 .028.009c1.623.917 8.316 3.976 9.963 4.747 1.647.77 9.111 4.056 9.971 4.3.073.008.098-.122.041-.122ZM99.995 256.666a63.194 63.194 0 0 1-1.906 2.734 32.383 32.383 0 0 1-2.077 2.612c.384-1.07.931-2.074 1.622-2.977a9.916 9.916 0 0 1 2.361-2.369Z" fill="#263238"/><path d="M82.584 289.815c-1.168 1.136-51.153 6.336-51.397 6.004-.665-.909 8.673-47.811 28.689-63.973 3.529-2.847 9.41-1.622 12.072.057 1.339.852 5.022 7.586 6.077 13.582 1.054 5.995 5.297 43.64 4.56 44.33Z" fill="#EBEBEB"/><path d="M61.19 230.704s5.452 28.339 5.63 29.499c.179 1.16-.616 32.712-.616 32.712l-37.118 4.584s4.194-15.674 4.413-16.421c.22-.746 8.114-26.773 16.535-38.416 7.773-10.709 11.156-11.958 11.156-11.958ZM72.719 232.35s3.748 25.151 3.854 26.773c.105 1.623 2.937 32.161 2.937 32.161l4.583-1.712s-2.563-19.95-2.855-21.662c-.293-1.712-2.434-20.283-3.246-23.707-1.257-5.5-5.273-11.853-5.273-11.853Z" fill="#FFC727"/><path d="M59.453 231.928c-19.942 7.634-43.957 27.057-43.437 34.424.576 8.194 29.207-2.556 29.06-3.789-.129-1.054 6.492-9.095 15.968-20.623 9.63-11.716 3.342-11.894-1.59-10.012Z" fill="#FFC727"/><path d="M16.016 266.352c1.07 5.792 9.054 10.433 28.063 24.006 2.629 1.875 20.875-13.119 18.173-15.269-3.407-2.709-17.224-12.478-18.32-13.062-9.28-4.957-28.647.39-27.916 4.325Z" fill="#AD6359"/><path d="M58.512 272.242s8.227 5.355 11.683 9.509c4.625 5.558 6.329 12.259 6.872 15.115 1.136 5.955-.227 21.135-4.673 21.5-4.056.34-1.834-15.115-1.834-15.115s.374 16.121-4.543 15.634c-4.916-.487-1.363-18.279-1.363-18.279s0 16.567-4.973 15.269c-3.773-.99-1.46-17.281-1.46-17.281s-.09 14.239-4.009 13.395c-4.332-.941-3.148-16.113-3.148-16.113-9.597-3.829-12.607-9.582-14.254-13.93-.406-1.055 21.702-9.704 21.702-9.704Z" fill="#F7A9A0"/><path d="M70.787 297.669c.106 1.89.236 3.805.179 5.679a64.07 64.07 0 0 1-.406 5.679 32.68 32.68 0 0 1-1.622 7.237c1.136-4.267 1.436-11.05 1.493-12.94.056-1.891.21-3.781.267-5.679.017-.025.081-.017.09.024ZM63.948 297.344c0 2.434.163 4.868.098 7.245s-.366 4.698-.577 7.132c0 .186-.113.113-.105-.074.138-2.433.081-4.64.187-7.058.105-2.418.316-4.811.332-7.221l.065-.024ZM58.123 296.006a54.113 54.113 0 0 1-.698 11.098c0 .179-.138.073-.122-.113.3-3.684.568-6.572.69-10.977.008-.065.13-.081.13-.008Z" fill="#263238"/><path d="M62.796 273.176s-25.15 15.285-25.361 15.171c-.211-.113-21.687-15.934-21.42-21.994.268-6.061 19.659-8.6 27.902-4.373 8.243 4.227 18.88 11.196 18.88 11.196Z" fill="#FFC727"/><path d="M55.178 269.784c-.966.454-8.925 5.598-10.636 6.758-1.712 1.161-8.73 5.809-10.385 7.148a.077.077 0 0 0-.025.106.08.08 0 0 0 .048.034c.02.004.04.001.058-.01 1.874-1.006 8.973-5.679 10.733-6.823 1.761-1.144 9.525-6.41 10.304-7.107.065-.057-.024-.138-.097-.106ZM33.662 260c2.028-.106 7.57 0 11.788 2.709.049 0 0 .09 0 .065-3.692-1.768-9.736-2.661-11.748-2.701-.04 0-.09-.073-.04-.073Z" fill="#263238"/><path d="m61.246 274.116 1.51-1.006v.13l-4.382-2.759a209.26 209.26 0 0 0-4.413-2.693c-2.945-1.801-5.93-3.529-8.973-5.128l-.406-.211.26-.373c2.11-3.042 4.275-6.036 6.58-8.924a142.948 142.948 0 0 1 3.529-4.284c1.225-1.387 2.434-2.759 3.764-4.057a192.554 192.554 0 0 0-6.807 8.73c-2.182 2.969-4.357 5.947-6.401 9.014l-.146-.584c3.059 1.622 6.028 3.415 8.924 5.265 1.455.952 2.894 1.912 4.317 2.88 1.436.974 2.823 1.996 4.219 3.018l.097.073-.097.057-1.575.852Z" fill="#263238"/><path d="M53.32 251.181c.333-.325.657-.649.998-.958.34-.308.681-.608 1.03-.892a17.262 17.262 0 0 1 2.256-1.574 15.56 15.56 0 0 1-1.996 1.882c-.357.284-.722.568-1.103.812-.374.276-.77.52-1.185.73ZM30.587 283.033a40.687 40.687 0 0 1 3.586 2.434c.568.439 1.144.877 1.704 1.339l1.687 1.387h-.235c.706-.332 1.42-.657 2.158-.941-.64.463-1.29.901-1.947 1.323l-.106.065-.13-.081c-.6-.398-1.208-.812-1.776-1.234-.568-.422-1.144-.884-1.712-1.338a40.607 40.607 0 0 1-3.23-2.954Z" fill="#263238"/><path d="M70.715 239.814c-2.905.503-7.57-4.162-9.306-7.821-.114-.252 1.468-9.914 1.623-11.862 0-.397 12.048 3.692 12.048 3.692a31.071 31.071 0 0 0-1.623 7.407c-.04.284.065 8.089-2.742 8.584Z" fill="#F7A9A0"/><path d="M75.039 223.822c0 .057-.105.292-.227.674a40.037 40.037 0 0 0-.811 2.888 22.228 22.228 0 0 0-.6 3.837v.942a8.478 8.478 0 0 1-1.194 0c-6.644-.544-8.405-8.844-8.835-12.016l.203.049c.325.073.747.186 1.25.332l.38.114c.812.235 1.761.535 2.76.811l.99.317 2.1.681c.284.106.576.203.812.284l.811.284.398.13.178.065.998.332.479.163c.07.017.138.041.203.073h.105v.04Z" fill="#263238"/><path d="M62.155 207.126c-1.346 4.333.909 16.876 3.984 19.683 4.462 4.056 11.796 4.47 15.26-.893 3.36-5.2.139-21.491-3.301-24.039-5.071-3.74-13.963-1.152-15.943 5.249Z" fill="#F7A9A0"/><path d="M74.382 214.509s-.057.057-.049.089c.203.812.284 1.826-.414 2.264.917-.276.787-1.59.463-2.353Z" fill="#263238"/><path d="M73.457 213.787c-1.38.171-.925 2.905.34 2.743 1.266-.163.812-2.889-.34-2.743ZM79.315 213.844s.073 0 .073.064c.113.852.39 1.81 1.2 1.964v.048c-.957.065-1.306-1.249-1.273-2.076Z" fill="#263238"/><path d="M79.907 212.837c1.347-.324 1.898 2.386.657 2.694-1.241.308-1.769-2.418-.657-2.694ZM72.264 212.676c.365-.114.69-.284 1.047-.43.39-.105.738-.332.99-.649a.593.593 0 0 0-.13-.706 1.447 1.447 0 0 0-1.477-.073 2.14 2.14 0 0 0-1.176.99.622.622 0 0 0 .39.871c.116.033.24.032.356-.003ZM80.775 211.167c-.39 0-.747-.065-1.136-.097a1.87 1.87 0 0 1-1.136-.333.578.578 0 0 1-.081-.706 1.458 1.458 0 0 1 1.387-.503c.531.013 1.038.224 1.42.592a.625.625 0 0 1-.454 1.047Z" fill="#263238"/><path d="M75.363 219.823a2.925 2.925 0 0 0 2.134.965c.353.013.706-.028 1.046-.121l.195-.057.187-.057a.235.235 0 0 0 .138-.219v-.154a21.738 21.738 0 0 0-.317-1.623c.26.081 1.566.43 1.493.09a44.414 44.414 0 0 0-2.547-8.552.081.081 0 0 0-.041-.042.08.08 0 0 0-.059-.004.08.08 0 0 0-.046.037.08.08 0 0 0-.009.058c.495 2.71 1.469 5.314 2.012 8.032a4.891 4.891 0 0 0-1.427-.195c-.09.041.47 1.891.486 2.191a4.07 4.07 0 0 1-3.14-.438c-.105-.041-.17.024-.105.089Z" fill="#263238"/><path d="M78.106 220.399c-.28.524-.69.966-1.193 1.282a1.57 1.57 0 0 1-.925.219c-.706-.073-.811-.69-.811-1.242.024-.292.081-.58.17-.86.832.49 1.799.701 2.759.601Z" fill="#263238"/><path d="M76.913 221.665a1.57 1.57 0 0 1-.925.219c-.706-.073-.811-.69-.811-1.241a1.62 1.62 0 0 1 1.736 1.022Z" fill="#FF9ABB"/><path d="M82.787 218.282s-.325 6.214-3.473 6.417c-1.882.122-3.123-1.687-3.123-1.687h-1.039s-1.566 3.618-4.868 2.133c-3.61-1.622-5.078-11.317-5.078-11.317s-.893 4.389-2.783 4.551a39.33 39.33 0 0 0 1.168 6.41c.738 3.042 5.176 7.869 12.17 7.585 2.92-.121 6.823-4.34 7.123-7.456.19-2.21.156-4.433-.097-6.636Z" fill="#263238"/><path d="M63.77 216.538c1.987 0 2.182-4.584 2.182-4.584s4.99 1.249 4.868-5.396c0 0 5.882 1.761 9.427-.3 3.027-1.76 4.511-7.042 2.159-10.084-1.331-1.712-4.95-3.246-10.158 2.117 0 0-7.1-4.584-9.444 3.886 0 0-3.586.544-3.91 4.057-.503 5.541 3.164 10.336 4.876 10.304Z" fill="#263238"/><path d="M70.812 206.096a.047.047 0 0 0-.014-.034.046.046 0 0 0-.035-.015.046.046 0 0 0-.034.015.047.047 0 0 0-.014.034c.357 1.623.722 3.359-.52 4.706a3.872 3.872 0 0 1-4.624.949c-.09-.041-.17.097-.081.146a4.24 4.24 0 0 0 4.657-.649c1.533-1.339 1.37-3.375.665-5.152ZM63.883 215.507c-2.775-1.323-4.925-3.578-5.257-6.767a6.18 6.18 0 0 1 .982-4.348c.81-1.136 2.133-1.623 3.245-2.296v-.057c-7.205 2.053-5.42 11.74.876 13.792a.184.184 0 0 0 .2-.104.186.186 0 0 0-.046-.22ZM83.33 196.206c-3.164-4.211-9.07-1.128-11.269 2.434 2.012-2.678 6.288-5.371 9.55-3.408 3.943 2.377 2.555 9.436-1.883 10.247-.13 0-.097.252 0 .235 4.154-.438 5.955-6.385 3.603-9.508Z" fill="#263238"/><path d="M64.914 217.34s-2.905-4.008-4.722-2.961c-1.818 1.047.405 6.872 2.58 7.643a2.2 2.2 0 0 0 1.724.008 2.192 2.192 0 0 0 1.197-1.242l-.78-3.448Z" fill="#F7A9A0"/><path d="M60.865 216.035v.057c1.525.584 2.345 1.979 2.929 3.423a1.206 1.206 0 0 0-1.358-.542 1.202 1.202 0 0 0-.46.242v.081a1.331 1.331 0 0 1 1.493.447c.29.365.538.763.739 1.184.073.138.316.065.26-.097.024-1.964-1.518-4.641-3.603-4.795Z" fill="#263238"/><path d="m73.416 232.26-3.245 7.148-8.6-9.59-2.693 2.848s8.226 15.001 8.308 14.344l3.245-6.142 4.146 4.543.113-10.969-1.273-2.182Z" fill="#EBEBEB"/><path d="M74.958 239.993c-.04-1.809 0-3.634-.162-5.444 0-.065-.098-.097-.122 0-.438 1.728-.235 8.657-.317 10.312-.17-.195-3.853-4.008-3.894-3.951-.69.965-3.083 5.436-3.245 5.85-1.298-2.386-6.296-11.059-7.862-13.322a.062.062 0 0 0-.037-.023.07.07 0 0 0-.043.005.069.069 0 0 0-.03.031.068.068 0 0 0-.003.044c1.136 2.507 7.748 14.181 7.853 14.149a67.587 67.587 0 0 0 3.416-6.491c.616.812 4.308 5.112 4.332 4.868.146-2.006.184-4.018.114-6.028Z" fill="#263238"/><rect x="124.529" y="151.08" width="127.377" height="15.415" rx="7.707" fill="#0076F8"/></g></svg>